<mxfile host="app.diagrams.net" agent="Mozilla/5.0 (X11; Linux x86_64; rv:135.0) Gecko/20100101 Firefox/135.0" version="26.0.16" pages="5">
  <diagram name="Client-Side-Architecture" id="FoZpYNEf1ZSBboNg3p44">
    <mxGraphModel dx="1820" dy="754" grid="0" gridSize="10" guides="1" tooltips="1" connect="1" arrows="1" fold="1" page="0" pageScale="1" pageWidth="850" pageHeight="1100" background="none" math="0" shadow="0">
      <root>
        <mxCell id="0" />
        <mxCell id="1" parent="0" />
        <mxCell id="_MXUExBWjo0OczY5g56T-52" style="edgeStyle=orthogonalEdgeStyle;rounded=0;orthogonalLoop=1;jettySize=auto;html=1;endArrow=diamondThin;endFill=0;" parent="1" source="_MXUExBWjo0OczY5g56T-98" target="_MXUExBWjo0OczY5g56T-45" edge="1">
          <mxGeometry relative="1" as="geometry">
            <mxPoint x="695" y="336.5" as="sourcePoint" />
          </mxGeometry>
        </mxCell>
        <mxCell id="_MXUExBWjo0OczY5g56T-74" style="edgeStyle=orthogonalEdgeStyle;rounded=0;orthogonalLoop=1;jettySize=auto;html=1;endArrow=block;endFill=0;" parent="1" source="_MXUExBWjo0OczY5g56T-98" target="_MXUExBWjo0OczY5g56T-61" edge="1">
          <mxGeometry relative="1" as="geometry">
            <mxPoint x="765" y="340" as="sourcePoint" />
          </mxGeometry>
        </mxCell>
        <mxCell id="_MXUExBWjo0OczY5g56T-334" style="edgeStyle=orthogonalEdgeStyle;rounded=0;orthogonalLoop=1;jettySize=auto;html=1;entryX=1;entryY=0.5;entryDx=0;entryDy=0;endArrow=diamondThin;endFill=1;" parent="1" source="_MXUExBWjo0OczY5g56T-32" target="_MXUExBWjo0OczY5g56T-318" edge="1">
          <mxGeometry relative="1" as="geometry" />
        </mxCell>
        <mxCell id="_MXUExBWjo0OczY5g56T-32" value="&lt;b&gt;Platform&lt;/b&gt;" style="swimlane;fontStyle=0;childLayout=stackLayout;horizontal=1;startSize=26;fillColor=#dae8fc;horizontalStack=0;resizeParent=1;resizeParentMax=0;resizeLast=0;collapsible=0;marginBottom=0;whiteSpace=wrap;html=1;swimlaneLine=1;glass=0;swimlaneHead=1;allowArrows=1;connectable=1;strokeColor=#6c8ebf;" parent="1" vertex="1">
          <mxGeometry x="60" y="242" width="300" height="216" as="geometry">
            <mxRectangle x="300" y="215" width="100" height="30" as="alternateBounds" />
          </mxGeometry>
        </mxCell>
        <mxCell id="_MXUExBWjo0OczY5g56T-33" value="- readonly navbar: Component" style="text;strokeColor=none;fillColor=none;align=left;verticalAlign=top;spacingLeft=4;spacingRight=4;overflow=hidden;rotatable=0;points=[[0,0.5],[1,0.5]];portConstraint=eastwest;whiteSpace=wrap;html=1;" parent="_MXUExBWjo0OczY5g56T-32" vertex="1">
          <mxGeometry y="26" width="300" height="26" as="geometry" />
        </mxCell>
        <mxCell id="_MXUExBWjo0OczY5g56T-322" value="- readonly chess: Chess" style="text;strokeColor=none;fillColor=none;align=left;verticalAlign=top;spacingLeft=4;spacingRight=4;overflow=hidden;rotatable=0;points=[[0,0.5],[1,0.5]];portConstraint=eastwest;whiteSpace=wrap;html=1;" parent="_MXUExBWjo0OczY5g56T-32" vertex="1">
          <mxGeometry y="52" width="300" height="26" as="geometry" />
        </mxCell>
        <mxCell id="_MXUExBWjo0OczY5g56T-34" value="- readonly navbarComponentA: NavbarComponent" style="text;strokeColor=none;fillColor=none;align=left;verticalAlign=top;spacingLeft=4;spacingRight=4;overflow=hidden;rotatable=0;points=[[0,0.5],[1,0.5]];portConstraint=eastwest;whiteSpace=wrap;html=1;" parent="_MXUExBWjo0OczY5g56T-32" vertex="1">
          <mxGeometry y="78" width="300" height="26" as="geometry" />
        </mxCell>
        <mxCell id="_MXUExBWjo0OczY5g56T-35" value="- readonly componentA: Component" style="text;strokeColor=none;fillColor=none;align=left;verticalAlign=top;spacingLeft=4;spacingRight=4;overflow=hidden;rotatable=0;points=[[0,0.5],[1,0.5]];portConstraint=eastwest;whiteSpace=wrap;html=1;" parent="_MXUExBWjo0OczY5g56T-32" vertex="1">
          <mxGeometry y="104" width="300" height="26" as="geometry" />
        </mxCell>
        <mxCell id="_MXUExBWjo0OczY5g56T-86" value="" style="line;strokeWidth=1;fillColor=none;align=left;verticalAlign=middle;spacingTop=-1;spacingLeft=3;spacingRight=3;rotatable=0;labelPosition=right;points=[];portConstraint=eastwest;strokeColor=inherit;" parent="_MXUExBWjo0OczY5g56T-32" vertex="1">
          <mxGeometry y="130" width="300" height="8" as="geometry" />
        </mxCell>
        <mxCell id="_MXUExBWjo0OczY5g56T-85" value="- handleComponentAOperations():void" style="text;strokeColor=none;fillColor=none;align=left;verticalAlign=top;spacingLeft=4;spacingRight=4;overflow=hidden;rotatable=0;points=[[0,0.5],[1,0.5]];portConstraint=eastwest;whiteSpace=wrap;html=1;" parent="_MXUExBWjo0OczY5g56T-32" vertex="1">
          <mxGeometry y="138" width="300" height="26" as="geometry" />
        </mxCell>
        <mxCell id="_MXUExBWjo0OczY5g56T-84" value="- preparePlatformForOnlineGame(): void" style="text;strokeColor=none;fillColor=none;align=left;verticalAlign=top;spacingLeft=4;spacingRight=4;overflow=hidden;rotatable=0;points=[[0,0.5],[1,0.5]];portConstraint=eastwest;whiteSpace=wrap;html=1;" parent="_MXUExBWjo0OczY5g56T-32" vertex="1">
          <mxGeometry y="164" width="300" height="26" as="geometry" />
        </mxCell>
        <mxCell id="_MXUExBWjo0OczY5g56T-87" value="- preparePlatformForSingleplayerGame(): void" style="text;strokeColor=none;fillColor=none;align=left;verticalAlign=top;spacingLeft=4;spacingRight=4;overflow=hidden;rotatable=0;points=[[0,0.5],[1,0.5]];portConstraint=eastwest;whiteSpace=wrap;html=1;" parent="_MXUExBWjo0OczY5g56T-32" vertex="1">
          <mxGeometry y="190" width="300" height="26" as="geometry" />
        </mxCell>
        <mxCell id="_MXUExBWjo0OczY5g56T-342" style="edgeStyle=orthogonalEdgeStyle;rounded=0;orthogonalLoop=1;jettySize=auto;html=1;exitX=0.5;exitY=0;exitDx=0;exitDy=0;entryX=0.75;entryY=0;entryDx=0;entryDy=0;endArrow=block;endFill=0;" parent="1" source="_MXUExBWjo0OczY5g56T-45" target="_MXUExBWjo0OczY5g56T-67" edge="1">
          <mxGeometry relative="1" as="geometry" />
        </mxCell>
        <mxCell id="_MXUExBWjo0OczY5g56T-45" value="&lt;b&gt;Navbar&lt;/b&gt;" style="swimlane;fontStyle=0;childLayout=stackLayout;horizontal=1;startSize=26;fillColor=#dae8fc;horizontalStack=0;resizeParent=1;resizeParentMax=0;resizeLast=0;collapsible=0;marginBottom=0;whiteSpace=wrap;html=1;strokeColor=#6c8ebf;" parent="1" vertex="1">
          <mxGeometry x="480" y="220" width="250" height="60" as="geometry" />
        </mxCell>
        <mxCell id="_MXUExBWjo0OczY5g56T-46" value="- navbarComponents: NavbarComponent[]" style="text;strokeColor=none;fillColor=none;align=left;verticalAlign=top;spacingLeft=4;spacingRight=4;overflow=hidden;rotatable=0;points=[[0,0.5],[1,0.5]];portConstraint=eastwest;whiteSpace=wrap;html=1;" parent="_MXUExBWjo0OczY5g56T-45" vertex="1">
          <mxGeometry y="26" width="250" height="26" as="geometry" />
        </mxCell>
        <mxCell id="_MXUExBWjo0OczY5g56T-100" value="" style="line;strokeWidth=1;fillColor=none;align=left;verticalAlign=middle;spacingTop=-1;spacingLeft=3;spacingRight=3;rotatable=0;labelPosition=right;points=[];portConstraint=eastwest;strokeColor=inherit;" parent="_MXUExBWjo0OczY5g56T-45" vertex="1">
          <mxGeometry y="52" width="250" height="8" as="geometry" />
        </mxCell>
        <mxCell id="_MXUExBWjo0OczY5g56T-61" value="&lt;div&gt;«abstract»&lt;/div&gt;&lt;div&gt;&lt;b&gt;NavbarComponent&lt;/b&gt;&lt;/div&gt;" style="swimlane;fontStyle=0;childLayout=stackLayout;horizontal=1;startSize=40;fillColor=#dae8fc;horizontalStack=0;resizeParent=1;resizeParentMax=0;resizeLast=0;collapsible=0;marginBottom=0;whiteSpace=wrap;html=1;strokeColor=#6c8ebf;" parent="1" vertex="1">
          <mxGeometry x="790" y="220" width="155" height="100" as="geometry" />
        </mxCell>
        <mxCell id="_MXUExBWjo0OczY5g56T-66" value="" style="line;strokeWidth=1;fillColor=none;align=left;verticalAlign=middle;spacingTop=-1;spacingLeft=3;spacingRight=3;rotatable=0;labelPosition=right;points=[];portConstraint=eastwest;strokeColor=inherit;" parent="_MXUExBWjo0OczY5g56T-61" vertex="1">
          <mxGeometry y="40" width="155" height="8" as="geometry" />
        </mxCell>
        <mxCell id="_MXUExBWjo0OczY5g56T-62" value="+ abstract hide(): void " style="text;strokeColor=none;fillColor=none;align=left;verticalAlign=top;spacingLeft=4;spacingRight=4;overflow=hidden;rotatable=0;points=[[0,0.5],[1,0.5]];portConstraint=eastwest;whiteSpace=wrap;html=1;" parent="_MXUExBWjo0OczY5g56T-61" vertex="1">
          <mxGeometry y="48" width="155" height="26" as="geometry" />
        </mxCell>
        <mxCell id="_MXUExBWjo0OczY5g56T-63" value="+ abstract show(): void" style="text;strokeColor=none;fillColor=none;align=left;verticalAlign=top;spacingLeft=4;spacingRight=4;overflow=hidden;rotatable=0;points=[[0,0.5],[1,0.5]];portConstraint=eastwest;whiteSpace=wrap;html=1;" parent="_MXUExBWjo0OczY5g56T-61" vertex="1">
          <mxGeometry y="74" width="155" height="26" as="geometry" />
        </mxCell>
        <mxCell id="_MXUExBWjo0OczY5g56T-67" value="&lt;div&gt;«abstract»&lt;/div&gt;&lt;div&gt;&lt;b&gt;Component&lt;/b&gt;&lt;/div&gt;" style="swimlane;fontStyle=0;childLayout=stackLayout;horizontal=1;startSize=40;fillColor=#dae8fc;horizontalStack=0;resizeParent=1;resizeParentMax=0;resizeLast=0;collapsible=0;marginBottom=0;whiteSpace=wrap;html=1;strokeColor=#6c8ebf;" parent="1" vertex="1">
          <mxGeometry x="910" y="369" width="155" height="100" as="geometry" />
        </mxCell>
        <mxCell id="_MXUExBWjo0OczY5g56T-68" value="" style="line;strokeWidth=1;fillColor=none;align=left;verticalAlign=middle;spacingTop=-1;spacingLeft=3;spacingRight=3;rotatable=0;labelPosition=right;points=[];portConstraint=eastwest;strokeColor=inherit;" parent="_MXUExBWjo0OczY5g56T-67" vertex="1">
          <mxGeometry y="40" width="155" height="8" as="geometry" />
        </mxCell>
        <mxCell id="_MXUExBWjo0OczY5g56T-69" value="# loadHTML(): void " style="text;strokeColor=none;fillColor=none;align=left;verticalAlign=top;spacingLeft=4;spacingRight=4;overflow=hidden;rotatable=0;points=[[0,0.5],[1,0.5]];portConstraint=eastwest;whiteSpace=wrap;html=1;" parent="_MXUExBWjo0OczY5g56T-67" vertex="1">
          <mxGeometry y="48" width="155" height="26" as="geometry" />
        </mxCell>
        <mxCell id="_MXUExBWjo0OczY5g56T-70" value="# loadCSS(): void" style="text;strokeColor=none;fillColor=none;align=left;verticalAlign=top;spacingLeft=4;spacingRight=4;overflow=hidden;rotatable=0;points=[[0,0.5],[1,0.5]];portConstraint=eastwest;whiteSpace=wrap;html=1;" parent="_MXUExBWjo0OczY5g56T-67" vertex="1">
          <mxGeometry y="74" width="155" height="26" as="geometry" />
        </mxCell>
        <mxCell id="_MXUExBWjo0OczY5g56T-337" style="edgeStyle=orthogonalEdgeStyle;rounded=0;orthogonalLoop=1;jettySize=auto;html=1;exitX=1;exitY=0.5;exitDx=0;exitDy=0;endArrow=block;endFill=0;" parent="1" source="_MXUExBWjo0OczY5g56T-90" target="_MXUExBWjo0OczY5g56T-67" edge="1">
          <mxGeometry relative="1" as="geometry" />
        </mxCell>
        <mxCell id="_MXUExBWjo0OczY5g56T-340" style="edgeStyle=orthogonalEdgeStyle;rounded=0;orthogonalLoop=1;jettySize=auto;html=1;entryX=1;entryY=0.5;entryDx=0;entryDy=0;endArrow=diamondThin;endFill=0;" parent="1" source="_MXUExBWjo0OczY5g56T-90" target="_MXUExBWjo0OczY5g56T-84" edge="1">
          <mxGeometry relative="1" as="geometry" />
        </mxCell>
        <mxCell id="_MXUExBWjo0OczY5g56T-90" value="ComponentA" style="swimlane;fontStyle=1;align=center;verticalAlign=top;childLayout=stackLayout;horizontal=1;startSize=26;horizontalStack=0;resizeParent=1;resizeParentMax=0;resizeLast=0;collapsible=0;marginBottom=0;whiteSpace=wrap;html=1;fillColor=#ffe6cc;strokeColor=#d79b00;" parent="1" vertex="1">
          <mxGeometry x="525" y="402" width="160" height="34" as="geometry" />
        </mxCell>
        <mxCell id="_MXUExBWjo0OczY5g56T-92" value="" style="line;strokeWidth=1;fillColor=none;align=left;verticalAlign=middle;spacingTop=-1;spacingLeft=3;spacingRight=3;rotatable=0;labelPosition=right;points=[];portConstraint=eastwest;strokeColor=inherit;" parent="_MXUExBWjo0OczY5g56T-90" vertex="1">
          <mxGeometry y="26" width="160" height="8" as="geometry" />
        </mxCell>
        <mxCell id="_MXUExBWjo0OczY5g56T-98" value="NavbarComponentA" style="swimlane;fontStyle=1;align=center;verticalAlign=top;childLayout=stackLayout;horizontal=1;startSize=26;horizontalStack=0;resizeParent=1;resizeParentMax=0;resizeLast=0;collapsible=0;marginBottom=0;whiteSpace=wrap;html=1;fillColor=#ffe6cc;strokeColor=#d79b00;" parent="1" vertex="1">
          <mxGeometry x="525" y="331" width="160" height="34" as="geometry" />
        </mxCell>
        <mxCell id="_MXUExBWjo0OczY5g56T-99" value="" style="line;strokeWidth=1;fillColor=none;align=left;verticalAlign=middle;spacingTop=-1;spacingLeft=3;spacingRight=3;rotatable=0;labelPosition=right;points=[];portConstraint=eastwest;strokeColor=inherit;" parent="_MXUExBWjo0OczY5g56T-98" vertex="1">
          <mxGeometry y="26" width="160" height="8" as="geometry" />
        </mxCell>
        <mxCell id="_MXUExBWjo0OczY5g56T-333" style="edgeStyle=orthogonalEdgeStyle;rounded=0;orthogonalLoop=1;jettySize=auto;html=1;exitX=0.5;exitY=0;exitDx=0;exitDy=0;entryX=1;entryY=0.5;entryDx=0;entryDy=0;endArrow=diamondThin;endFill=1;" parent="1" source="_MXUExBWjo0OczY5g56T-101" target="_MXUExBWjo0OczY5g56T-319" edge="1">
          <mxGeometry relative="1" as="geometry" />
        </mxCell>
        <mxCell id="_MXUExBWjo0OczY5g56T-101" value="&lt;b&gt;Chess&lt;/b&gt;" style="swimlane;fontStyle=0;childLayout=stackLayout;horizontal=1;startSize=26;fillColor=#dae8fc;horizontalStack=0;resizeParent=1;resizeParentMax=0;resizeLast=0;collapsible=0;marginBottom=0;whiteSpace=wrap;html=1;swimlaneLine=1;glass=0;swimlaneHead=1;allowArrows=1;connectable=1;strokeColor=#6c8ebf;" parent="1" vertex="1">
          <mxGeometry x="100" y="624" width="200" height="112" as="geometry">
            <mxRectangle x="300" y="215" width="100" height="30" as="alternateBounds" />
          </mxGeometry>
        </mxCell>
        <mxCell id="_MXUExBWjo0OczY5g56T-102" value="+ readonly engine: ChessEngine" style="text;strokeColor=none;fillColor=none;align=left;verticalAlign=top;spacingLeft=4;spacingRight=4;overflow=hidden;rotatable=0;points=[[0,0.5],[1,0.5]];portConstraint=eastwest;whiteSpace=wrap;html=1;" parent="_MXUExBWjo0OczY5g56T-101" vertex="1">
          <mxGeometry y="26" width="200" height="26" as="geometry" />
        </mxCell>
        <mxCell id="_MXUExBWjo0OczY5g56T-103" value="+ readonly board: ChessBoard" style="text;strokeColor=none;fillColor=none;align=left;verticalAlign=top;spacingLeft=4;spacingRight=4;overflow=hidden;rotatable=0;points=[[0,0.5],[1,0.5]];portConstraint=eastwest;whiteSpace=wrap;html=1;" parent="_MXUExBWjo0OczY5g56T-101" vertex="1">
          <mxGeometry y="52" width="200" height="26" as="geometry" />
        </mxCell>
        <mxCell id="_MXUExBWjo0OczY5g56T-220" value="+ bot: Bot" style="text;strokeColor=none;fillColor=none;align=left;verticalAlign=top;spacingLeft=4;spacingRight=4;overflow=hidden;rotatable=0;points=[[0,0.5],[1,0.5]];portConstraint=eastwest;whiteSpace=wrap;html=1;" parent="_MXUExBWjo0OczY5g56T-101" vertex="1">
          <mxGeometry y="78" width="200" height="26" as="geometry" />
        </mxCell>
        <mxCell id="_MXUExBWjo0OczY5g56T-105" value="" style="line;strokeWidth=1;fillColor=none;align=left;verticalAlign=middle;spacingTop=-1;spacingLeft=3;spacingRight=3;rotatable=0;labelPosition=right;points=[];portConstraint=eastwest;strokeColor=inherit;" parent="_MXUExBWjo0OczY5g56T-101" vertex="1">
          <mxGeometry y="104" width="200" height="8" as="geometry" />
        </mxCell>
        <mxCell id="_MXUExBWjo0OczY5g56T-287" style="edgeStyle=orthogonalEdgeStyle;rounded=0;orthogonalLoop=1;jettySize=auto;html=1;exitX=0.5;exitY=0;exitDx=0;exitDy=0;entryX=0.5;entryY=1;entryDx=0;entryDy=0;endArrow=diamondThin;endFill=1;" parent="1" source="_MXUExBWjo0OczY5g56T-110" target="_MXUExBWjo0OczY5g56T-101" edge="1">
          <mxGeometry relative="1" as="geometry" />
        </mxCell>
        <mxCell id="_MXUExBWjo0OczY5g56T-110" value="&lt;b&gt;ChessBoard&lt;/b&gt;" style="swimlane;fontStyle=0;childLayout=stackLayout;horizontal=1;startSize=26;fillColor=#dae8fc;horizontalStack=0;resizeParent=1;resizeParentMax=0;resizeLast=0;collapsible=0;marginBottom=0;whiteSpace=wrap;html=1;swimlaneLine=1;glass=0;swimlaneHead=1;allowArrows=1;connectable=1;strokeColor=#6c8ebf;" parent="1" vertex="1">
          <mxGeometry x="100" y="880" width="200" height="34" as="geometry">
            <mxRectangle x="300" y="215" width="100" height="30" as="alternateBounds" />
          </mxGeometry>
        </mxCell>
        <mxCell id="_MXUExBWjo0OczY5g56T-113" value="" style="line;strokeWidth=1;fillColor=none;align=left;verticalAlign=middle;spacingTop=-1;spacingLeft=3;spacingRight=3;rotatable=0;labelPosition=right;points=[];portConstraint=eastwest;strokeColor=inherit;" parent="_MXUExBWjo0OczY5g56T-110" vertex="1">
          <mxGeometry y="26" width="200" height="8" as="geometry" />
        </mxCell>
        <mxCell id="_MXUExBWjo0OczY5g56T-208" value="Services" style="swimlane;fillColor=#f5f5f5;fontColor=#333333;strokeColor=#666666;" parent="1" vertex="1">
          <mxGeometry x="1230" y="110" width="200" height="200" as="geometry" />
        </mxCell>
        <mxCell id="_MXUExBWjo0OczY5g56T-373" value="&lt;div&gt;&lt;br&gt;&lt;/div&gt;&lt;div&gt;&lt;b&gt;Logger&lt;/b&gt;&lt;br&gt;&lt;/div&gt;" style="shape=module;align=left;spacingLeft=20;align=center;verticalAlign=top;whiteSpace=wrap;html=1;fillColor=#dae8fc;strokeColor=#6c8ebf;" parent="_MXUExBWjo0OczY5g56T-208" vertex="1">
          <mxGeometry x="50" y="40" width="100" height="50" as="geometry" />
        </mxCell>
        <mxCell id="_MXUExBWjo0OczY5g56T-374" value="&lt;div&gt;&lt;br&gt;&lt;/div&gt;&lt;div&gt;&lt;b&gt;Store&lt;/b&gt;&lt;br&gt;&lt;/div&gt;" style="shape=module;align=left;spacingLeft=20;align=center;verticalAlign=top;whiteSpace=wrap;html=1;fillColor=#dae8fc;strokeColor=#6c8ebf;" parent="_MXUExBWjo0OczY5g56T-208" vertex="1">
          <mxGeometry x="50" y="115" width="100" height="50" as="geometry" />
        </mxCell>
        <mxCell id="_MXUExBWjo0OczY5g56T-213" value="Global" style="swimlane;fillColor=#f5f5f5;fontColor=#333333;strokeColor=#666666;" parent="1" vertex="1">
          <mxGeometry x="1230" y="328" width="200" height="150" as="geometry" />
        </mxCell>
        <mxCell id="_MXUExBWjo0OczY5g56T-216" value="&lt;div&gt;&lt;b&gt;«static»&lt;/b&gt;&lt;/div&gt;&lt;div&gt;&lt;b&gt;Page&lt;/b&gt;&lt;/div&gt;" style="html=1;whiteSpace=wrap;fillColor=#dae8fc;strokeColor=#6c8ebf;" parent="_MXUExBWjo0OczY5g56T-213" vertex="1">
          <mxGeometry x="45" y="56" width="110" height="50" as="geometry" />
        </mxCell>
        <mxCell id="_MXUExBWjo0OczY5g56T-332" style="edgeStyle=orthogonalEdgeStyle;rounded=0;orthogonalLoop=1;jettySize=auto;html=1;exitX=1;exitY=0.5;exitDx=0;exitDy=0;endArrow=diamond;endFill=0;" parent="1" source="_MXUExBWjo0OczY5g56T-218" target="_MXUExBWjo0OczY5g56T-101" edge="1">
          <mxGeometry relative="1" as="geometry">
            <Array as="points">
              <mxPoint x="140" y="801" />
            </Array>
          </mxGeometry>
        </mxCell>
        <mxCell id="_MXUExBWjo0OczY5g56T-218" value="&lt;b&gt;Bot&lt;/b&gt;" style="swimlane;fontStyle=0;childLayout=stackLayout;horizontal=1;startSize=26;fillColor=#dae8fc;horizontalStack=0;resizeParent=1;resizeParentMax=0;resizeLast=0;collapsible=0;marginBottom=0;whiteSpace=wrap;html=1;swimlaneLine=1;glass=0;swimlaneHead=1;allowArrows=1;connectable=1;strokeColor=#6c8ebf;" parent="1" vertex="1">
          <mxGeometry x="-70" y="768" width="140" height="86" as="geometry">
            <mxRectangle x="300" y="215" width="100" height="30" as="alternateBounds" />
          </mxGeometry>
        </mxCell>
        <mxCell id="_MXUExBWjo0OczY5g56T-454" value="- color: Color" style="text;strokeColor=none;fillColor=none;align=left;verticalAlign=top;spacingLeft=4;spacingRight=4;overflow=hidden;rotatable=0;points=[[0,0.5],[1,0.5]];portConstraint=eastwest;whiteSpace=wrap;html=1;" parent="_MXUExBWjo0OczY5g56T-218" vertex="1">
          <mxGeometry y="26" width="140" height="26" as="geometry" />
        </mxCell>
        <mxCell id="_MXUExBWjo0OczY5g56T-455" value="- difficulty: BotDifficulty" style="text;strokeColor=none;fillColor=none;align=left;verticalAlign=top;spacingLeft=4;spacingRight=4;overflow=hidden;rotatable=0;points=[[0,0.5],[1,0.5]];portConstraint=eastwest;whiteSpace=wrap;html=1;" parent="_MXUExBWjo0OczY5g56T-218" vertex="1">
          <mxGeometry y="52" width="140" height="26" as="geometry" />
        </mxCell>
        <mxCell id="_MXUExBWjo0OczY5g56T-219" value="" style="line;strokeWidth=1;fillColor=none;align=left;verticalAlign=middle;spacingTop=-1;spacingLeft=3;spacingRight=3;rotatable=0;labelPosition=right;points=[];portConstraint=eastwest;strokeColor=inherit;" parent="_MXUExBWjo0OczY5g56T-218" vertex="1">
          <mxGeometry y="78" width="140" height="8" as="geometry" />
        </mxCell>
        <mxCell id="_MXUExBWjo0OczY5g56T-457" style="edgeStyle=orthogonalEdgeStyle;rounded=0;orthogonalLoop=1;jettySize=auto;html=1;exitX=0.5;exitY=1;exitDx=0;exitDy=0;exitPerimeter=0;entryX=0.5;entryY=0;entryDx=0;entryDy=0;dashed=1;endArrow=diamondThin;endFill=1;" parent="1" source="_MXUExBWjo0OczY5g56T-231" target="_MXUExBWjo0OczY5g56T-218" edge="1">
          <mxGeometry relative="1" as="geometry" />
        </mxCell>
        <mxCell id="_MXUExBWjo0OczY5g56T-231" value="Stockfish" style="shape=folder;fontStyle=1;spacingTop=10;tabWidth=40;tabHeight=14;tabPosition=left;html=1;whiteSpace=wrap;fillColor=#e1d5e7;strokeColor=#9673a6;" parent="1" vertex="1">
          <mxGeometry x="-35" y="670" width="70" height="50" as="geometry" />
        </mxCell>
        <mxCell id="_MXUExBWjo0OczY5g56T-314" value="&lt;b&gt;ChessPlatform&lt;/b&gt;" style="swimlane;fontStyle=1;align=center;verticalAlign=top;childLayout=stackLayout;horizontal=1;startSize=26;horizontalStack=0;resizeParent=1;resizeParentMax=0;resizeLast=0;collapsible=1;marginBottom=0;whiteSpace=wrap;html=1;fillColor=#dae8fc;strokeColor=#6c8ebf;" parent="1" vertex="1">
          <mxGeometry x="-360" y="460" width="230" height="164" as="geometry" />
        </mxCell>
        <mxCell id="_MXUExBWjo0OczY5g56T-315" value="+ readonly chess: Chess" style="text;strokeColor=none;fillColor=none;align=left;verticalAlign=top;spacingLeft=4;spacingRight=4;overflow=hidden;rotatable=0;points=[[0,0.5],[1,0.5]];portConstraint=eastwest;whiteSpace=wrap;html=1;" parent="_MXUExBWjo0OczY5g56T-314" vertex="1">
          <mxGeometry y="26" width="230" height="26" as="geometry" />
        </mxCell>
        <mxCell id="_MXUExBWjo0OczY5g56T-318" value="+ readonly platform: Platform" style="text;strokeColor=none;fillColor=none;align=left;verticalAlign=top;spacingLeft=4;spacingRight=4;overflow=hidden;rotatable=0;points=[[0,0.5],[1,0.5]];portConstraint=eastwest;whiteSpace=wrap;html=1;" parent="_MXUExBWjo0OczY5g56T-314" vertex="1">
          <mxGeometry y="52" width="230" height="26" as="geometry" />
        </mxCell>
        <mxCell id="_MXUExBWjo0OczY5g56T-316" value="" style="line;strokeWidth=1;fillColor=none;align=left;verticalAlign=middle;spacingTop=-1;spacingLeft=3;spacingRight=3;rotatable=0;labelPosition=right;points=[];portConstraint=eastwest;strokeColor=inherit;" parent="_MXUExBWjo0OczY5g56T-314" vertex="1">
          <mxGeometry y="78" width="230" height="8" as="geometry" />
        </mxCell>
        <mxCell id="_MXUExBWjo0OczY5g56T-317" value="+ createLobby(): void" style="text;strokeColor=none;fillColor=none;align=left;verticalAlign=top;spacingLeft=4;spacingRight=4;overflow=hidden;rotatable=0;points=[[0,0.5],[1,0.5]];portConstraint=eastwest;whiteSpace=wrap;html=1;" parent="_MXUExBWjo0OczY5g56T-314" vertex="1">
          <mxGeometry y="86" width="230" height="26" as="geometry" />
        </mxCell>
        <mxCell id="_MXUExBWjo0OczY5g56T-319" value="+ joinLobby(): void" style="text;strokeColor=none;fillColor=none;align=left;verticalAlign=top;spacingLeft=4;spacingRight=4;overflow=hidden;rotatable=0;points=[[0,0.5],[1,0.5]];portConstraint=eastwest;whiteSpace=wrap;html=1;" parent="_MXUExBWjo0OczY5g56T-314" vertex="1">
          <mxGeometry y="112" width="230" height="26" as="geometry" />
        </mxCell>
        <mxCell id="_MXUExBWjo0OczY5g56T-320" value="+ createAndHandleWebSocket(): void" style="text;strokeColor=none;fillColor=none;align=left;verticalAlign=top;spacingLeft=4;spacingRight=4;overflow=hidden;rotatable=0;points=[[0,0.5],[1,0.5]];portConstraint=eastwest;whiteSpace=wrap;html=1;" parent="_MXUExBWjo0OczY5g56T-314" vertex="1">
          <mxGeometry y="138" width="230" height="26" as="geometry" />
        </mxCell>
        <mxCell id="_MXUExBWjo0OczY5g56T-336" style="edgeStyle=orthogonalEdgeStyle;rounded=0;orthogonalLoop=1;jettySize=auto;html=1;exitX=1;exitY=0.5;exitDx=0;exitDy=0;entryX=0.5;entryY=0;entryDx=0;entryDy=0;endArrow=block;endFill=0;" parent="1" source="_MXUExBWjo0OczY5g56T-62" target="_MXUExBWjo0OczY5g56T-67" edge="1">
          <mxGeometry relative="1" as="geometry" />
        </mxCell>
        <mxCell id="_MXUExBWjo0OczY5g56T-339" style="edgeStyle=orthogonalEdgeStyle;rounded=0;orthogonalLoop=1;jettySize=auto;html=1;entryX=1.009;entryY=0.075;entryDx=0;entryDy=0;entryPerimeter=0;endArrow=diamondThin;endFill=0;" parent="1" source="_MXUExBWjo0OczY5g56T-98" target="_MXUExBWjo0OczY5g56T-35" edge="1">
          <mxGeometry relative="1" as="geometry" />
        </mxCell>
        <mxCell id="_MXUExBWjo0OczY5g56T-341" style="edgeStyle=orthogonalEdgeStyle;rounded=0;orthogonalLoop=1;jettySize=auto;html=1;exitX=0;exitY=0.5;exitDx=0;exitDy=0;entryX=1.005;entryY=-0.111;entryDx=0;entryDy=0;entryPerimeter=0;endArrow=diamondThin;endFill=0;" parent="1" source="_MXUExBWjo0OczY5g56T-46" target="_MXUExBWjo0OczY5g56T-322" edge="1">
          <mxGeometry relative="1" as="geometry" />
        </mxCell>
        <mxCell id="_MXUExBWjo0OczY5g56T-343" value="0..1" style="text;html=1;align=center;verticalAlign=middle;whiteSpace=wrap;rounded=0;fontStyle=1" parent="1" vertex="1">
          <mxGeometry x="425" y="234" width="60" height="30" as="geometry" />
        </mxCell>
        <mxCell id="_MXUExBWjo0OczY5g56T-345" value="1" style="text;html=1;align=center;verticalAlign=middle;whiteSpace=wrap;rounded=0;fontStyle=1" parent="1" vertex="1">
          <mxGeometry x="347" y="264" width="60" height="30" as="geometry" />
        </mxCell>
        <mxCell id="_MXUExBWjo0OczY5g56T-346" value="0..1" style="text;html=1;align=center;verticalAlign=middle;whiteSpace=wrap;rounded=0;fontStyle=1" parent="1" vertex="1">
          <mxGeometry x="592" y="280" width="60" height="30" as="geometry" />
        </mxCell>
        <mxCell id="_MXUExBWjo0OczY5g56T-347" value="0..*" style="text;html=1;align=center;verticalAlign=middle;whiteSpace=wrap;rounded=0;fontStyle=1" parent="1" vertex="1">
          <mxGeometry x="559" y="306" width="60" height="30" as="geometry" />
        </mxCell>
        <mxCell id="_MXUExBWjo0OczY5g56T-348" value="1" style="text;html=1;align=center;verticalAlign=middle;whiteSpace=wrap;rounded=0;fontStyle=1" parent="1" vertex="1">
          <mxGeometry x="347" y="393" width="60" height="30" as="geometry" />
        </mxCell>
        <mxCell id="_MXUExBWjo0OczY5g56T-349" value="0..*" style="text;html=1;align=center;verticalAlign=middle;whiteSpace=wrap;rounded=0;fontStyle=1" parent="1" vertex="1">
          <mxGeometry x="477" y="394" width="60" height="30" as="geometry" />
        </mxCell>
        <mxCell id="_MXUExBWjo0OczY5g56T-350" value="1" style="text;html=1;align=center;verticalAlign=middle;whiteSpace=wrap;rounded=0;fontStyle=1" parent="1" vertex="1">
          <mxGeometry x="347" y="321" width="60" height="30" as="geometry" />
        </mxCell>
        <mxCell id="_MXUExBWjo0OczY5g56T-351" value="0..*" style="text;html=1;align=center;verticalAlign=middle;whiteSpace=wrap;rounded=0;fontStyle=1" parent="1" vertex="1">
          <mxGeometry x="477" y="322" width="60" height="30" as="geometry" />
        </mxCell>
        <mxCell id="_MXUExBWjo0OczY5g56T-356" value="0..1" style="text;html=1;align=center;verticalAlign=middle;whiteSpace=wrap;rounded=0;fontStyle=1" parent="1" vertex="1">
          <mxGeometry x="91" y="738" width="60" height="30" as="geometry" />
        </mxCell>
        <mxCell id="_MXUExBWjo0OczY5g56T-357" value="1" style="text;html=1;align=center;verticalAlign=middle;whiteSpace=wrap;rounded=0;fontStyle=1" parent="1" vertex="1">
          <mxGeometry x="69" y="803" width="30" height="20" as="geometry" />
        </mxCell>
        <mxCell id="_MXUExBWjo0OczY5g56T-448" value="&lt;div&gt;&lt;b&gt;«static»&lt;/b&gt;&lt;/div&gt;&lt;div&gt;&lt;b&gt;WsCommand&lt;/b&gt;&lt;/div&gt;" style="swimlane;fontStyle=0;childLayout=stackLayout;horizontal=1;startSize=34;fillColor=#dae8fc;horizontalStack=0;resizeParent=1;resizeParentMax=0;resizeLast=0;collapsible=1;marginBottom=0;whiteSpace=wrap;html=1;strokeColor=#6c8ebf;" parent="1" vertex="1">
          <mxGeometry x="-415" y="895" width="340" height="120" as="geometry" />
        </mxCell>
        <mxCell id="_MXUExBWjo0OczY5g56T-449" value="" style="line;strokeWidth=1;fillColor=none;align=left;verticalAlign=middle;spacingTop=-1;spacingLeft=3;spacingRight=3;rotatable=0;labelPosition=right;points=[];portConstraint=eastwest;strokeColor=inherit;" parent="_MXUExBWjo0OczY5g56T-448" vertex="1">
          <mxGeometry y="34" width="340" height="8" as="geometry" />
        </mxCell>
        <mxCell id="_MXUExBWjo0OczY5g56T-451" value="+ connected(wsConnectedData: WsConnectedData): string" style="text;strokeColor=none;fillColor=none;align=left;verticalAlign=top;spacingLeft=4;spacingRight=4;overflow=hidden;rotatable=0;points=[[0,0.5],[1,0.5]];portConstraint=eastwest;whiteSpace=wrap;html=1;" parent="_MXUExBWjo0OczY5g56T-448" vertex="1">
          <mxGeometry y="42" width="340" height="26" as="geometry" />
        </mxCell>
        <mxCell id="_MXUExBWjo0OczY5g56T-452" value="+ created(wsCreatedData: WsCreatedData): string" style="text;strokeColor=none;fillColor=none;align=left;verticalAlign=top;spacingLeft=4;spacingRight=4;overflow=hidden;rotatable=0;points=[[0,0.5],[1,0.5]];portConstraint=eastwest;whiteSpace=wrap;html=1;" parent="_MXUExBWjo0OczY5g56T-448" vertex="1">
          <mxGeometry y="68" width="340" height="26" as="geometry" />
        </mxCell>
        <mxCell id="_MXUExBWjo0OczY5g56T-450" value="+ started(wsStartedData: WsStartedData): string" style="text;strokeColor=none;fillColor=none;align=left;verticalAlign=top;spacingLeft=4;spacingRight=4;overflow=hidden;rotatable=0;points=[[0,0.5],[1,0.5]];portConstraint=eastwest;whiteSpace=wrap;html=1;" parent="_MXUExBWjo0OczY5g56T-448" vertex="1">
          <mxGeometry y="94" width="340" height="26" as="geometry" />
        </mxCell>
        <mxCell id="_MXUExBWjo0OczY5g56T-461" value="" style="edgeStyle=orthogonalEdgeStyle;rounded=0;orthogonalLoop=1;jettySize=auto;html=1;entryX=0.5;entryY=0;entryDx=0;entryDy=0;" parent="1" source="_MXUExBWjo0OczY5g56T-314" target="_MXUExBWjo0OczY5g56T-460" edge="1">
          <mxGeometry relative="1" as="geometry">
            <mxPoint x="-245" y="624" as="sourcePoint" />
            <mxPoint x="-220" y="893" as="targetPoint" />
          </mxGeometry>
        </mxCell>
        <mxCell id="_MXUExBWjo0OczY5g56T-462" style="edgeStyle=orthogonalEdgeStyle;rounded=0;orthogonalLoop=1;jettySize=auto;html=1;entryX=0.5;entryY=0;entryDx=0;entryDy=0;endArrow=diamondThin;endFill=1;" parent="1" source="_MXUExBWjo0OczY5g56T-460" target="_MXUExBWjo0OczY5g56T-448" edge="1">
          <mxGeometry relative="1" as="geometry" />
        </mxCell>
        <mxCell id="_MXUExBWjo0OczY5g56T-460" value="uses" style="text;html=1;align=center;verticalAlign=middle;whiteSpace=wrap;rounded=0;fontStyle=1" parent="1" vertex="1">
          <mxGeometry x="-275" y="738" width="60" height="30" as="geometry" />
        </mxCell>
        <mxCell id="AD4Y-aIfq_lwZnMAFdwP-1" value="Client" style="swimlane;flipV=0;fillColor=#f5f5f5;strokeColor=#666666;fontColor=#333333;" parent="1" vertex="1">
          <mxGeometry x="-461" y="56" width="1930" height="1524" as="geometry" />
        </mxCell>
        <mxCell id="_MXUExBWjo0OczY5g56T-435" value="Does not includes, every property, methods, parameters, types" style="text;align=center;fontStyle=1;verticalAlign=middle;spacingLeft=3;spacingRight=3;strokeColor=none;rotatable=0;points=[[0,0.5],[1,0.5]];portConstraint=eastwest;html=1;" parent="AD4Y-aIfq_lwZnMAFdwP-1" vertex="1">
          <mxGeometry x="812" y="32" width="310" height="26" as="geometry" />
        </mxCell>
        <mxCell id="BXiwza9rmccjP0i7mmLZ-5" style="edgeStyle=orthogonalEdgeStyle;rounded=0;orthogonalLoop=1;jettySize=auto;html=1;exitX=1;exitY=0.5;exitDx=0;exitDy=0;entryX=0;entryY=0.5;entryDx=0;entryDy=0;" parent="AD4Y-aIfq_lwZnMAFdwP-1" source="_MXUExBWjo0OczY5g56T-250" target="_MXUExBWjo0OczY5g56T-381" edge="1">
          <mxGeometry relative="1" as="geometry" />
        </mxCell>
        <mxCell id="BXiwza9rmccjP0i7mmLZ-58" style="edgeStyle=orthogonalEdgeStyle;rounded=0;orthogonalLoop=1;jettySize=auto;html=1;exitX=1;exitY=0.5;exitDx=0;exitDy=0;" parent="AD4Y-aIfq_lwZnMAFdwP-1" source="_MXUExBWjo0OczY5g56T-381" target="BXiwza9rmccjP0i7mmLZ-34" edge="1">
          <mxGeometry relative="1" as="geometry" />
        </mxCell>
        <mxCell id="_MXUExBWjo0OczY5g56T-381" value="uses" style="text;html=1;align=center;verticalAlign=middle;whiteSpace=wrap;rounded=0;fontStyle=1" parent="AD4Y-aIfq_lwZnMAFdwP-1" vertex="1">
          <mxGeometry x="1062" y="1201.5" width="50" height="30" as="geometry" />
        </mxCell>
        <mxCell id="BXiwza9rmccjP0i7mmLZ-50" style="edgeStyle=orthogonalEdgeStyle;rounded=0;orthogonalLoop=1;jettySize=auto;html=1;exitX=0.5;exitY=0;exitDx=0;exitDy=0;endArrow=diamondThin;endFill=1;" parent="AD4Y-aIfq_lwZnMAFdwP-1" source="_MXUExBWjo0OczY5g56T-114" edge="1">
          <mxGeometry relative="1" as="geometry">
            <mxPoint x="730" y="684" as="targetPoint" />
          </mxGeometry>
        </mxCell>
        <mxCell id="BXiwza9rmccjP0i7mmLZ-57" style="edgeStyle=orthogonalEdgeStyle;rounded=0;orthogonalLoop=1;jettySize=auto;html=1;exitX=0.5;exitY=1;exitDx=0;exitDy=0;entryX=0.5;entryY=0;entryDx=0;entryDy=0;" parent="AD4Y-aIfq_lwZnMAFdwP-1" source="_MXUExBWjo0OczY5g56T-114" target="_MXUExBWjo0OczY5g56T-381" edge="1">
          <mxGeometry relative="1" as="geometry" />
        </mxCell>
        <mxCell id="_MXUExBWjo0OczY5g56T-114" value="&lt;b&gt;ChessEngine&lt;/b&gt;" style="swimlane;fontStyle=0;childLayout=stackLayout;horizontal=1;startSize=26;fillColor=#dae8fc;horizontalStack=0;resizeParent=1;resizeParentMax=0;resizeLast=0;collapsible=0;marginBottom=0;whiteSpace=wrap;html=1;swimlaneLine=1;glass=0;swimlaneHead=1;allowArrows=1;connectable=1;strokeColor=#6c8ebf;" parent="AD4Y-aIfq_lwZnMAFdwP-1" vertex="1">
          <mxGeometry x="970" y="824" width="235" height="86" as="geometry">
            <mxRectangle x="300" y="215" width="100" height="30" as="alternateBounds" />
          </mxGeometry>
        </mxCell>
        <mxCell id="_MXUExBWjo0OczY5g56T-196" value="- readonly moveEngine: MoveEngine" style="text;strokeColor=none;fillColor=none;align=left;verticalAlign=top;spacingLeft=4;spacingRight=4;overflow=hidden;rotatable=0;points=[[0,0.5],[1,0.5]];portConstraint=eastwest;whiteSpace=wrap;html=1;" parent="_MXUExBWjo0OczY5g56T-114" vertex="1">
          <mxGeometry y="26" width="235" height="26" as="geometry" />
        </mxCell>
        <mxCell id="BXiwza9rmccjP0i7mmLZ-4" value="- readonly boardManager: BoardManager" style="text;strokeColor=none;fillColor=none;align=left;verticalAlign=top;spacingLeft=4;spacingRight=4;overflow=hidden;rotatable=0;points=[[0,0.5],[1,0.5]];portConstraint=eastwest;whiteSpace=wrap;html=1;" parent="_MXUExBWjo0OczY5g56T-114" vertex="1">
          <mxGeometry y="52" width="235" height="26" as="geometry" />
        </mxCell>
        <mxCell id="_MXUExBWjo0OczY5g56T-117" value="" style="line;strokeWidth=1;fillColor=none;align=left;verticalAlign=middle;spacingTop=-1;spacingLeft=3;spacingRight=3;rotatable=0;labelPosition=right;points=[];portConstraint=eastwest;strokeColor=inherit;" parent="_MXUExBWjo0OczY5g56T-114" vertex="1">
          <mxGeometry y="78" width="235" height="8" as="geometry" />
        </mxCell>
        <mxCell id="_MXUExBWjo0OczY5g56T-392" style="edgeStyle=orthogonalEdgeStyle;rounded=0;orthogonalLoop=1;jettySize=auto;html=1;exitX=0.5;exitY=0;exitDx=0;exitDy=0;endArrow=diamondThin;endFill=1;" parent="AD4Y-aIfq_lwZnMAFdwP-1" source="_MXUExBWjo0OczY5g56T-190" target="_MXUExBWjo0OczY5g56T-114" edge="1">
          <mxGeometry relative="1" as="geometry">
            <Array as="points">
              <mxPoint x="719" y="944" />
              <mxPoint x="1020" y="944" />
            </Array>
          </mxGeometry>
        </mxCell>
        <mxCell id="BXiwza9rmccjP0i7mmLZ-49" style="edgeStyle=orthogonalEdgeStyle;rounded=0;orthogonalLoop=1;jettySize=auto;html=1;exitX=0.5;exitY=0;exitDx=0;exitDy=0;" parent="AD4Y-aIfq_lwZnMAFdwP-1" source="BXiwza9rmccjP0i7mmLZ-25" target="_MXUExBWjo0OczY5g56T-114" edge="1">
          <mxGeometry relative="1" as="geometry">
            <Array as="points">
              <mxPoint x="1363" y="944" />
              <mxPoint x="1140" y="944" />
            </Array>
          </mxGeometry>
        </mxCell>
        <mxCell id="_MXUExBWjo0OczY5g56T-250" value="Move" style="swimlane;fillColor=#f5f5f5;fontColor=#333333;strokeColor=#666666;" parent="AD4Y-aIfq_lwZnMAFdwP-1" vertex="1">
          <mxGeometry x="424" y="978" width="590" height="477" as="geometry" />
        </mxCell>
        <mxCell id="_MXUExBWjo0OczY5g56T-376" style="edgeStyle=orthogonalEdgeStyle;rounded=0;orthogonalLoop=1;jettySize=auto;html=1;exitX=0.25;exitY=1;exitDx=0;exitDy=0;entryX=0.5;entryY=0;entryDx=0;entryDy=0;" parent="_MXUExBWjo0OczY5g56T-250" source="_MXUExBWjo0OczY5g56T-190" target="_MXUExBWjo0OczY5g56T-242" edge="1">
          <mxGeometry relative="1" as="geometry" />
        </mxCell>
        <mxCell id="_MXUExBWjo0OczY5g56T-190" value="&lt;b&gt;MoveEngine&lt;/b&gt;" style="swimlane;fontStyle=0;childLayout=stackLayout;horizontal=1;startSize=26;fillColor=#dae8fc;horizontalStack=0;resizeParent=1;resizeParentMax=0;resizeLast=0;collapsible=1;marginBottom=0;whiteSpace=wrap;html=1;strokeColor=#6c8ebf;" parent="_MXUExBWjo0OczY5g56T-250" vertex="1">
          <mxGeometry x="175" y="86" width="240" height="86" as="geometry" />
        </mxCell>
        <mxCell id="_MXUExBWjo0OczY5g56T-248" value="- readonly moveExtender: MoveExtender" style="text;strokeColor=none;fillColor=none;align=left;verticalAlign=top;spacingLeft=4;spacingRight=4;overflow=hidden;rotatable=0;points=[[0,0.5],[1,0.5]];portConstraint=eastwest;whiteSpace=wrap;html=1;" parent="_MXUExBWjo0OczY5g56T-190" vertex="1">
          <mxGeometry y="26" width="240" height="26" as="geometry" />
        </mxCell>
        <mxCell id="_MXUExBWjo0OczY5g56T-249" value="- readonly moveFilterer: MoveFilterer" style="text;strokeColor=none;fillColor=none;align=left;verticalAlign=top;spacingLeft=4;spacingRight=4;overflow=hidden;rotatable=0;points=[[0,0.5],[1,0.5]];portConstraint=eastwest;whiteSpace=wrap;html=1;" parent="_MXUExBWjo0OczY5g56T-190" vertex="1">
          <mxGeometry y="52" width="240" height="26" as="geometry" />
        </mxCell>
        <mxCell id="_MXUExBWjo0OczY5g56T-227" value="" style="line;strokeWidth=1;fillColor=none;align=left;verticalAlign=middle;spacingTop=-1;spacingLeft=3;spacingRight=3;rotatable=0;labelPosition=right;points=[];portConstraint=eastwest;strokeColor=inherit;" parent="_MXUExBWjo0OczY5g56T-190" vertex="1">
          <mxGeometry y="78" width="240" height="8" as="geometry" />
        </mxCell>
        <mxCell id="_MXUExBWjo0OczY5g56T-235" value="Core" style="swimlane;fillColor=#f5f5f5;fontColor=#333333;strokeColor=#666666;" parent="_MXUExBWjo0OczY5g56T-250" vertex="1">
          <mxGeometry x="345" y="218.5" width="200" height="200" as="geometry" />
        </mxCell>
        <mxCell id="_MXUExBWjo0OczY5g56T-238" value="&lt;b&gt;MoveExtender&lt;/b&gt;" style="swimlane;fontStyle=0;childLayout=stackLayout;horizontal=1;startSize=26;fillColor=#dae8fc;horizontalStack=0;resizeParent=1;resizeParentMax=0;resizeLast=0;collapsible=1;marginBottom=0;whiteSpace=wrap;html=1;strokeColor=#6c8ebf;" parent="_MXUExBWjo0OczY5g56T-235" vertex="1">
          <mxGeometry x="30" y="62" width="140" height="34" as="geometry" />
        </mxCell>
        <mxCell id="_MXUExBWjo0OczY5g56T-239" value="" style="line;strokeWidth=1;fillColor=none;align=left;verticalAlign=middle;spacingTop=-1;spacingLeft=3;spacingRight=3;rotatable=0;labelPosition=right;points=[];portConstraint=eastwest;strokeColor=inherit;" parent="_MXUExBWjo0OczY5g56T-238" vertex="1">
          <mxGeometry y="26" width="140" height="8" as="geometry" />
        </mxCell>
        <mxCell id="_MXUExBWjo0OczY5g56T-236" value="&lt;b&gt;MoveFilterer&lt;/b&gt;" style="swimlane;fontStyle=0;childLayout=stackLayout;horizontal=1;startSize=26;fillColor=#dae8fc;horizontalStack=0;resizeParent=1;resizeParentMax=0;resizeLast=0;collapsible=1;marginBottom=0;whiteSpace=wrap;html=1;strokeColor=#6c8ebf;" parent="_MXUExBWjo0OczY5g56T-235" vertex="1">
          <mxGeometry x="30" y="130" width="140" height="34" as="geometry" />
        </mxCell>
        <mxCell id="_MXUExBWjo0OczY5g56T-237" value="" style="line;strokeWidth=1;fillColor=none;align=left;verticalAlign=middle;spacingTop=-1;spacingLeft=3;spacingRight=3;rotatable=0;labelPosition=right;points=[];portConstraint=eastwest;strokeColor=inherit;" parent="_MXUExBWjo0OczY5g56T-236" vertex="1">
          <mxGeometry y="26" width="140" height="8" as="geometry" />
        </mxCell>
        <mxCell id="_MXUExBWjo0OczY5g56T-242" value="Calculator" style="swimlane;fillColor=#f5f5f5;fontColor=#333333;strokeColor=#666666;" parent="_MXUExBWjo0OczY5g56T-250" vertex="1">
          <mxGeometry x="50" y="218.5" width="200" height="200" as="geometry" />
        </mxCell>
        <mxCell id="_MXUExBWjo0OczY5g56T-243" value="&lt;div&gt;&lt;b&gt;«static»&lt;/b&gt;&lt;/div&gt;&lt;div&gt;&lt;b&gt;RouteCalculator&lt;/b&gt;&lt;/div&gt;" style="swimlane;fontStyle=0;childLayout=stackLayout;horizontal=1;startSize=34;fillColor=#dae8fc;horizontalStack=0;resizeParent=1;resizeParentMax=0;resizeLast=0;collapsible=1;marginBottom=0;whiteSpace=wrap;html=1;strokeColor=#6c8ebf;" parent="_MXUExBWjo0OczY5g56T-242" vertex="1">
          <mxGeometry x="30" y="62" width="140" height="42" as="geometry" />
        </mxCell>
        <mxCell id="_MXUExBWjo0OczY5g56T-244" value="" style="line;strokeWidth=1;fillColor=none;align=left;verticalAlign=middle;spacingTop=-1;spacingLeft=3;spacingRight=3;rotatable=0;labelPosition=right;points=[];portConstraint=eastwest;strokeColor=inherit;" parent="_MXUExBWjo0OczY5g56T-243" vertex="1">
          <mxGeometry y="34" width="140" height="8" as="geometry" />
        </mxCell>
        <mxCell id="_MXUExBWjo0OczY5g56T-245" value="&lt;div&gt;&lt;b&gt;«static»&lt;/b&gt;&lt;/div&gt;&lt;div&gt;&lt;b&gt;DirectionCalculator&lt;/b&gt;&lt;/div&gt;" style="swimlane;fontStyle=0;childLayout=stackLayout;horizontal=1;startSize=34;fillColor=#dae8fc;horizontalStack=0;resizeParent=1;resizeParentMax=0;resizeLast=0;collapsible=1;marginBottom=0;whiteSpace=wrap;html=1;strokeColor=#6c8ebf;" parent="_MXUExBWjo0OczY5g56T-242" vertex="1">
          <mxGeometry x="30" y="130" width="140" height="42" as="geometry" />
        </mxCell>
        <mxCell id="_MXUExBWjo0OczY5g56T-246" value="" style="line;strokeWidth=1;fillColor=none;align=left;verticalAlign=middle;spacingTop=-1;spacingLeft=3;spacingRight=3;rotatable=0;labelPosition=right;points=[];portConstraint=eastwest;strokeColor=inherit;" parent="_MXUExBWjo0OczY5g56T-245" vertex="1">
          <mxGeometry y="34" width="140" height="8" as="geometry" />
        </mxCell>
        <mxCell id="_MXUExBWjo0OczY5g56T-240" style="edgeStyle=orthogonalEdgeStyle;rounded=0;orthogonalLoop=1;jettySize=auto;html=1;exitX=0.5;exitY=0;exitDx=0;exitDy=0;entryX=0.793;entryY=1;entryDx=0;entryDy=0;entryPerimeter=0;endArrow=diamondThin;endFill=1;" parent="_MXUExBWjo0OczY5g56T-250" source="_MXUExBWjo0OczY5g56T-235" target="_MXUExBWjo0OczY5g56T-227" edge="1">
          <mxGeometry relative="1" as="geometry" />
        </mxCell>
        <mxCell id="_MXUExBWjo0OczY5g56T-377" value="uses" style="text;html=1;align=center;verticalAlign=middle;whiteSpace=wrap;rounded=0;fontStyle=1" parent="_MXUExBWjo0OczY5g56T-250" vertex="1">
          <mxGeometry x="175" y="156" width="60" height="30" as="geometry" />
        </mxCell>
        <mxCell id="BXiwza9rmccjP0i7mmLZ-7" value="Board" style="swimlane;fillColor=#f5f5f5;fontColor=#333333;strokeColor=#666666;" parent="AD4Y-aIfq_lwZnMAFdwP-1" vertex="1">
          <mxGeometry x="1180" y="978" width="700" height="477" as="geometry" />
        </mxCell>
        <mxCell id="BXiwza9rmccjP0i7mmLZ-25" value="BoardManager" style="swimlane;fontStyle=1;align=center;verticalAlign=top;childLayout=stackLayout;horizontal=1;startSize=30;horizontalStack=0;resizeParent=1;resizeParentMax=0;resizeLast=0;collapsible=0;marginBottom=0;whiteSpace=wrap;html=1;fillColor=#dae8fc;strokeColor=#6c8ebf;" parent="BXiwza9rmccjP0i7mmLZ-7" vertex="1">
          <mxGeometry x="68" y="86" width="230" height="116" as="geometry" />
        </mxCell>
        <mxCell id="BXiwza9rmccjP0i7mmLZ-26" value="" style="line;strokeWidth=1;fillColor=none;align=left;verticalAlign=middle;spacingTop=-1;spacingLeft=3;spacingRight=3;rotatable=0;labelPosition=right;points=[];portConstraint=eastwest;strokeColor=inherit;" parent="BXiwza9rmccjP0i7mmLZ-25" vertex="1">
          <mxGeometry y="30" width="230" height="8" as="geometry" />
        </mxCell>
        <mxCell id="BXiwza9rmccjP0i7mmLZ-27" value="# createBoard(): void" style="text;strokeColor=none;fillColor=none;align=left;verticalAlign=top;spacingLeft=4;spacingRight=4;overflow=hidden;rotatable=0;points=[[0,0.5],[1,0.5]];portConstraint=eastwest;whiteSpace=wrap;html=1;" parent="BXiwza9rmccjP0i7mmLZ-25" vertex="1">
          <mxGeometry y="38" width="230" height="26" as="geometry" />
        </mxCell>
        <mxCell id="BXiwza9rmccjP0i7mmLZ-28" value="# createPiece(piece: PieceModel): void" style="text;strokeColor=none;fillColor=none;align=left;verticalAlign=top;spacingLeft=4;spacingRight=4;overflow=hidden;rotatable=0;points=[[0,0.5],[1,0.5]];portConstraint=eastwest;whiteSpace=wrap;html=1;" parent="BXiwza9rmccjP0i7mmLZ-25" vertex="1">
          <mxGeometry y="64" width="230" height="26" as="geometry" />
        </mxCell>
        <mxCell id="BXiwza9rmccjP0i7mmLZ-29" value="# setScore(): void" style="text;strokeColor=none;fillColor=none;align=left;verticalAlign=top;spacingLeft=4;spacingRight=4;overflow=hidden;rotatable=0;points=[[0,0.5],[1,0.5]];portConstraint=eastwest;whiteSpace=wrap;html=1;" parent="BXiwza9rmccjP0i7mmLZ-25" vertex="1">
          <mxGeometry y="90" width="230" height="26" as="geometry" />
        </mxCell>
        <mxCell id="BXiwza9rmccjP0i7mmLZ-30" value="PieceModel" style="swimlane;fontStyle=1;align=center;verticalAlign=top;childLayout=stackLayout;horizontal=1;startSize=26;horizontalStack=0;resizeParent=1;resizeParentMax=0;resizeLast=0;collapsible=0;marginBottom=0;whiteSpace=wrap;html=1;fillColor=#dae8fc;strokeColor=#6c8ebf;" parent="BXiwza9rmccjP0i7mmLZ-7" vertex="1">
          <mxGeometry x="338" y="222.5" width="190" height="86" as="geometry" />
        </mxCell>
        <mxCell id="BXiwza9rmccjP0i7mmLZ-31" value="- color: Color" style="text;strokeColor=none;fillColor=none;align=left;verticalAlign=top;spacingLeft=4;spacingRight=4;overflow=hidden;rotatable=0;points=[[0,0.5],[1,0.5]];portConstraint=eastwest;whiteSpace=wrap;html=1;" parent="BXiwza9rmccjP0i7mmLZ-30" vertex="1">
          <mxGeometry y="26" width="190" height="26" as="geometry" />
        </mxCell>
        <mxCell id="BXiwza9rmccjP0i7mmLZ-32" value="- type: PieceType" style="text;strokeColor=none;fillColor=none;align=left;verticalAlign=top;spacingLeft=4;spacingRight=4;overflow=hidden;rotatable=0;points=[[0,0.5],[1,0.5]];portConstraint=eastwest;whiteSpace=wrap;html=1;" parent="BXiwza9rmccjP0i7mmLZ-30" vertex="1">
          <mxGeometry y="52" width="190" height="26" as="geometry" />
        </mxCell>
        <mxCell id="BXiwza9rmccjP0i7mmLZ-33" value="" style="line;strokeWidth=1;fillColor=none;align=left;verticalAlign=middle;spacingTop=-1;spacingLeft=3;spacingRight=3;rotatable=0;labelPosition=right;points=[];portConstraint=eastwest;strokeColor=inherit;" parent="BXiwza9rmccjP0i7mmLZ-30" vertex="1">
          <mxGeometry y="78" width="190" height="8" as="geometry" />
        </mxCell>
        <mxCell id="BXiwza9rmccjP0i7mmLZ-34" value="&lt;div&gt;«static»&lt;/div&gt;&lt;div&gt;BoardQuerier&lt;/div&gt;" style="swimlane;fontStyle=1;align=center;verticalAlign=top;childLayout=stackLayout;horizontal=1;startSize=40;horizontalStack=0;resizeParent=1;resizeParentMax=0;resizeLast=0;collapsible=0;marginBottom=0;whiteSpace=wrap;html=1;fillColor=#dae8fc;strokeColor=#6c8ebf;" parent="BXiwza9rmccjP0i7mmLZ-7" vertex="1">
          <mxGeometry x="70" y="317.5" width="230" height="126" as="geometry" />
        </mxCell>
        <mxCell id="BXiwza9rmccjP0i7mmLZ-35" value="" style="line;strokeWidth=1;fillColor=none;align=left;verticalAlign=middle;spacingTop=-1;spacingLeft=3;spacingRight=3;rotatable=0;labelPosition=right;points=[];portConstraint=eastwest;strokeColor=inherit;" parent="BXiwza9rmccjP0i7mmLZ-34" vertex="1">
          <mxGeometry y="40" width="230" height="8" as="geometry" />
        </mxCell>
        <mxCell id="BXiwza9rmccjP0i7mmLZ-36" value="+ getBoard(): JsonNotation" style="text;strokeColor=none;fillColor=none;align=left;verticalAlign=top;spacingLeft=4;spacingRight=4;overflow=hidden;rotatable=0;points=[[0,0.5],[1,0.5]];portConstraint=eastwest;whiteSpace=wrap;html=1;" parent="BXiwza9rmccjP0i7mmLZ-34" vertex="1">
          <mxGeometry y="48" width="230" height="26" as="geometry" />
        </mxCell>
        <mxCell id="BXiwza9rmccjP0i7mmLZ-37" value="+ getPieceOnSquare(): PieceModel" style="text;strokeColor=none;fillColor=none;align=left;verticalAlign=top;spacingLeft=4;spacingRight=4;overflow=hidden;rotatable=0;points=[[0,0.5],[1,0.5]];portConstraint=eastwest;whiteSpace=wrap;html=1;" parent="BXiwza9rmccjP0i7mmLZ-34" vertex="1">
          <mxGeometry y="74" width="230" height="26" as="geometry" />
        </mxCell>
        <mxCell id="BXiwza9rmccjP0i7mmLZ-38" value="+ getScores(): Scores" style="text;strokeColor=none;fillColor=none;align=left;verticalAlign=top;spacingLeft=4;spacingRight=4;overflow=hidden;rotatable=0;points=[[0,0.5],[1,0.5]];portConstraint=eastwest;whiteSpace=wrap;html=1;" parent="BXiwza9rmccjP0i7mmLZ-34" vertex="1">
          <mxGeometry y="100" width="230" height="26" as="geometry" />
        </mxCell>
        <mxCell id="BXiwza9rmccjP0i7mmLZ-39" value="Board" style="swimlane;fontStyle=1;align=center;verticalAlign=top;childLayout=stackLayout;horizontal=1;startSize=26;horizontalStack=0;resizeParent=1;resizeParentMax=0;resizeLast=0;collapsible=0;marginBottom=0;whiteSpace=wrap;html=1;fillColor=#dae8fc;strokeColor=#6c8ebf;" parent="BXiwza9rmccjP0i7mmLZ-7" vertex="1">
          <mxGeometry x="458" y="84" width="190" height="112" as="geometry" />
        </mxCell>
        <mxCell id="BXiwza9rmccjP0i7mmLZ-40" value="# currentBoard: JsonNotation" style="text;strokeColor=none;fillColor=none;align=left;verticalAlign=top;spacingLeft=4;spacingRight=4;overflow=hidden;rotatable=0;points=[[0,0.5],[1,0.5]];portConstraint=eastwest;whiteSpace=wrap;html=1;" parent="BXiwza9rmccjP0i7mmLZ-39" vertex="1">
          <mxGeometry y="26" width="190" height="26" as="geometry" />
        </mxCell>
        <mxCell id="BXiwza9rmccjP0i7mmLZ-41" value="# currentTurn: Color " style="text;strokeColor=none;fillColor=none;align=left;verticalAlign=top;spacingLeft=4;spacingRight=4;overflow=hidden;rotatable=0;points=[[0,0.5],[1,0.5]];portConstraint=eastwest;whiteSpace=wrap;html=1;" parent="BXiwza9rmccjP0i7mmLZ-39" vertex="1">
          <mxGeometry y="52" width="190" height="26" as="geometry" />
        </mxCell>
        <mxCell id="BXiwza9rmccjP0i7mmLZ-42" value="# currentScores: Scores" style="text;strokeColor=none;fillColor=none;align=left;verticalAlign=top;spacingLeft=4;spacingRight=4;overflow=hidden;rotatable=0;points=[[0,0.5],[1,0.5]];portConstraint=eastwest;whiteSpace=wrap;html=1;" parent="BXiwza9rmccjP0i7mmLZ-39" vertex="1">
          <mxGeometry y="78" width="190" height="26" as="geometry" />
        </mxCell>
        <mxCell id="BXiwza9rmccjP0i7mmLZ-43" value="" style="line;strokeWidth=1;fillColor=none;align=left;verticalAlign=middle;spacingTop=-1;spacingLeft=3;spacingRight=3;rotatable=0;labelPosition=right;points=[];portConstraint=eastwest;strokeColor=inherit;" parent="BXiwza9rmccjP0i7mmLZ-39" vertex="1">
          <mxGeometry y="104" width="190" height="8" as="geometry" />
        </mxCell>
        <mxCell id="BXiwza9rmccjP0i7mmLZ-44" style="edgeStyle=orthogonalEdgeStyle;rounded=0;orthogonalLoop=1;jettySize=auto;html=1;exitX=1;exitY=0.5;exitDx=0;exitDy=0;endArrow=block;endFill=0;" parent="BXiwza9rmccjP0i7mmLZ-7" source="BXiwza9rmccjP0i7mmLZ-27" target="BXiwza9rmccjP0i7mmLZ-39" edge="1">
          <mxGeometry relative="1" as="geometry">
            <Array as="points">
              <mxPoint x="298" y="146" />
            </Array>
          </mxGeometry>
        </mxCell>
        <mxCell id="BXiwza9rmccjP0i7mmLZ-45" style="edgeStyle=orthogonalEdgeStyle;rounded=0;orthogonalLoop=1;jettySize=auto;html=1;exitX=1;exitY=0.5;exitDx=0;exitDy=0;endArrow=block;endFill=0;" parent="BXiwza9rmccjP0i7mmLZ-7" source="BXiwza9rmccjP0i7mmLZ-37" target="BXiwza9rmccjP0i7mmLZ-39" edge="1">
          <mxGeometry relative="1" as="geometry">
            <Array as="points">
              <mxPoint x="598" y="412.5" />
            </Array>
          </mxGeometry>
        </mxCell>
        <mxCell id="BXiwza9rmccjP0i7mmLZ-46" style="edgeStyle=orthogonalEdgeStyle;rounded=0;orthogonalLoop=1;jettySize=auto;html=1;exitX=0;exitY=0.5;exitDx=0;exitDy=0;entryX=0.748;entryY=1;entryDx=0;entryDy=0;entryPerimeter=0;endArrow=diamond;endFill=0;" parent="BXiwza9rmccjP0i7mmLZ-7" source="BXiwza9rmccjP0i7mmLZ-31" target="BXiwza9rmccjP0i7mmLZ-29" edge="1">
          <mxGeometry relative="1" as="geometry" />
        </mxCell>
        <mxCell id="BXiwza9rmccjP0i7mmLZ-47" value="1" style="text;html=1;align=center;verticalAlign=middle;whiteSpace=wrap;rounded=0;fontStyle=1" parent="BXiwza9rmccjP0i7mmLZ-7" vertex="1">
          <mxGeometry x="225" y="199.5" width="60" height="30" as="geometry" />
        </mxCell>
        <mxCell id="BXiwza9rmccjP0i7mmLZ-48" value="0..*" style="text;html=1;align=center;verticalAlign=middle;whiteSpace=wrap;rounded=0;fontStyle=1" parent="BXiwza9rmccjP0i7mmLZ-7" vertex="1">
          <mxGeometry x="288" y="235.5" width="60" height="30" as="geometry" />
        </mxCell>
      </root>
    </mxGraphModel>
  </diagram>
  <diagram id="M1NavNbeNRovBbBYFCA1" name="Server-Side-Architecture">
    <mxGraphModel dx="3187" dy="773" grid="1" gridSize="10" guides="1" tooltips="1" connect="1" arrows="1" fold="1" page="0" pageScale="1" pageWidth="850" pageHeight="1100" math="0" shadow="0">
      <root>
        <mxCell id="0" />
        <mxCell id="1" parent="0" />
        <mxCell id="5Y4opw4SE6idXGV93st0-2" value="Manager" style="swimlane;fillColor=#f5f5f5;fontColor=#333333;strokeColor=#666666;" parent="1" vertex="1">
          <mxGeometry x="-1280" y="711" width="240" height="370" as="geometry" />
        </mxCell>
        <mxCell id="5Y4opw4SE6idXGV93st0-3" value="&lt;div&gt;&lt;b&gt;«static»&lt;/b&gt;&lt;/div&gt;&lt;div&gt;&lt;b&gt;LobbyManager&lt;/b&gt;&lt;/div&gt;" style="swimlane;fontStyle=0;childLayout=stackLayout;horizontal=1;startSize=34;fillColor=#dae8fc;horizontalStack=0;resizeParent=1;resizeParentMax=0;resizeLast=0;collapsible=1;marginBottom=0;whiteSpace=wrap;html=1;strokeColor=#6c8ebf;" parent="5Y4opw4SE6idXGV93st0-2" vertex="1">
          <mxGeometry x="50" y="62" width="140" height="120" as="geometry" />
        </mxCell>
        <mxCell id="5Y4opw4SE6idXGV93st0-4" value="- lobbies: object" style="text;strokeColor=none;fillColor=none;align=left;verticalAlign=top;spacingLeft=4;spacingRight=4;overflow=hidden;rotatable=0;points=[[0,0.5],[1,0.5]];portConstraint=eastwest;whiteSpace=wrap;html=1;" parent="5Y4opw4SE6idXGV93st0-3" vertex="1">
          <mxGeometry y="34" width="140" height="26" as="geometry" />
        </mxCell>
        <mxCell id="5Y4opw4SE6idXGV93st0-5" value="" style="line;strokeWidth=1;fillColor=none;align=left;verticalAlign=middle;spacingTop=-1;spacingLeft=3;spacingRight=3;rotatable=0;labelPosition=right;points=[];portConstraint=eastwest;strokeColor=inherit;" parent="5Y4opw4SE6idXGV93st0-3" vertex="1">
          <mxGeometry y="60" width="140" height="8" as="geometry" />
        </mxCell>
        <mxCell id="5Y4opw4SE6idXGV93st0-6" value="+ createLobby(): void" style="text;strokeColor=none;fillColor=none;align=left;verticalAlign=top;spacingLeft=4;spacingRight=4;overflow=hidden;rotatable=0;points=[[0,0.5],[1,0.5]];portConstraint=eastwest;whiteSpace=wrap;html=1;" parent="5Y4opw4SE6idXGV93st0-3" vertex="1">
          <mxGeometry y="68" width="140" height="26" as="geometry" />
        </mxCell>
        <mxCell id="5Y4opw4SE6idXGV93st0-7" value="+ removeLobby(): void" style="text;strokeColor=none;fillColor=none;align=left;verticalAlign=top;spacingLeft=4;spacingRight=4;overflow=hidden;rotatable=0;points=[[0,0.5],[1,0.5]];portConstraint=eastwest;whiteSpace=wrap;html=1;" parent="5Y4opw4SE6idXGV93st0-3" vertex="1">
          <mxGeometry y="94" width="140" height="26" as="geometry" />
        </mxCell>
        <mxCell id="5Y4opw4SE6idXGV93st0-8" value="&lt;div&gt;&lt;b&gt;«static»&lt;/b&gt;&lt;/div&gt;&lt;div&gt;&lt;b&gt;SocketManager&lt;/b&gt;&lt;/div&gt;" style="swimlane;fontStyle=0;childLayout=stackLayout;horizontal=1;startSize=34;fillColor=#dae8fc;horizontalStack=0;resizeParent=1;resizeParentMax=0;resizeLast=0;collapsible=1;marginBottom=0;whiteSpace=wrap;html=1;strokeColor=#6c8ebf;" parent="5Y4opw4SE6idXGV93st0-2" vertex="1">
          <mxGeometry x="50" y="210" width="140" height="120" as="geometry" />
        </mxCell>
        <mxCell id="5Y4opw4SE6idXGV93st0-9" value="- sockets: object" style="text;strokeColor=none;fillColor=none;align=left;verticalAlign=top;spacingLeft=4;spacingRight=4;overflow=hidden;rotatable=0;points=[[0,0.5],[1,0.5]];portConstraint=eastwest;whiteSpace=wrap;html=1;" parent="5Y4opw4SE6idXGV93st0-8" vertex="1">
          <mxGeometry y="34" width="140" height="26" as="geometry" />
        </mxCell>
        <mxCell id="5Y4opw4SE6idXGV93st0-10" value="" style="line;strokeWidth=1;fillColor=none;align=left;verticalAlign=middle;spacingTop=-1;spacingLeft=3;spacingRight=3;rotatable=0;labelPosition=right;points=[];portConstraint=eastwest;strokeColor=inherit;" parent="5Y4opw4SE6idXGV93st0-8" vertex="1">
          <mxGeometry y="60" width="140" height="8" as="geometry" />
        </mxCell>
        <mxCell id="5Y4opw4SE6idXGV93st0-11" value="+ addSocket(): void" style="text;strokeColor=none;fillColor=none;align=left;verticalAlign=top;spacingLeft=4;spacingRight=4;overflow=hidden;rotatable=0;points=[[0,0.5],[1,0.5]];portConstraint=eastwest;whiteSpace=wrap;html=1;" parent="5Y4opw4SE6idXGV93st0-8" vertex="1">
          <mxGeometry y="68" width="140" height="26" as="geometry" />
        </mxCell>
        <mxCell id="5Y4opw4SE6idXGV93st0-12" value="+ getSocket(): void" style="text;strokeColor=none;fillColor=none;align=left;verticalAlign=top;spacingLeft=4;spacingRight=4;overflow=hidden;rotatable=0;points=[[0,0.5],[1,0.5]];portConstraint=eastwest;whiteSpace=wrap;html=1;" parent="5Y4opw4SE6idXGV93st0-8" vertex="1">
          <mxGeometry y="94" width="140" height="26" as="geometry" />
        </mxCell>
        <mxCell id="5Y4opw4SE6idXGV93st0-13" value="1" style="text;html=1;align=center;verticalAlign=middle;whiteSpace=wrap;rounded=0;fontStyle=1" parent="5Y4opw4SE6idXGV93st0-2" vertex="1">
          <mxGeometry x="190" y="108" width="28" height="12" as="geometry" />
        </mxCell>
        <mxCell id="5Y4opw4SE6idXGV93st0-14" value="&lt;b&gt;Lobby&lt;/b&gt;" style="swimlane;fontStyle=0;childLayout=stackLayout;horizontal=1;startSize=26;fillColor=#dae8fc;horizontalStack=0;resizeParent=1;resizeParentMax=0;resizeLast=0;collapsible=1;marginBottom=0;whiteSpace=wrap;html=1;strokeColor=#6c8ebf;" parent="1" vertex="1">
          <mxGeometry x="-923" y="768" width="230" height="190" as="geometry" />
        </mxCell>
        <mxCell id="5Y4opw4SE6idXGV93st0-15" value="- readonly chessEngine: ChessEngine" style="text;strokeColor=none;fillColor=none;align=left;verticalAlign=top;spacingLeft=4;spacingRight=4;overflow=hidden;rotatable=0;points=[[0,0.5],[1,0.5]];portConstraint=eastwest;whiteSpace=wrap;html=1;" parent="5Y4opw4SE6idXGV93st0-14" vertex="1">
          <mxGeometry y="26" width="230" height="26" as="geometry" />
        </mxCell>
        <mxCell id="5Y4opw4SE6idXGV93st0-16" value="- whitePlayer: Player" style="text;strokeColor=none;fillColor=none;align=left;verticalAlign=top;spacingLeft=4;spacingRight=4;overflow=hidden;rotatable=0;points=[[0,0.5],[1,0.5]];portConstraint=eastwest;whiteSpace=wrap;html=1;" parent="5Y4opw4SE6idXGV93st0-14" vertex="1">
          <mxGeometry y="52" width="230" height="26" as="geometry" />
        </mxCell>
        <mxCell id="5Y4opw4SE6idXGV93st0-17" value="- blackPlayer: Player" style="text;strokeColor=none;fillColor=none;align=left;verticalAlign=top;spacingLeft=4;spacingRight=4;overflow=hidden;rotatable=0;points=[[0,0.5],[1,0.5]];portConstraint=eastwest;whiteSpace=wrap;html=1;" parent="5Y4opw4SE6idXGV93st0-14" vertex="1">
          <mxGeometry y="78" width="230" height="26" as="geometry" />
        </mxCell>
        <mxCell id="5Y4opw4SE6idXGV93st0-18" value="- board: JsonNotation" style="text;strokeColor=none;fillColor=none;align=left;verticalAlign=top;spacingLeft=4;spacingRight=4;overflow=hidden;rotatable=0;points=[[0,0.5],[1,0.5]];portConstraint=eastwest;whiteSpace=wrap;html=1;" parent="5Y4opw4SE6idXGV93st0-14" vertex="1">
          <mxGeometry y="104" width="230" height="26" as="geometry" />
        </mxCell>
        <mxCell id="5Y4opw4SE6idXGV93st0-19" value="" style="line;strokeWidth=1;fillColor=none;align=left;verticalAlign=middle;spacingTop=-1;spacingLeft=3;spacingRight=3;rotatable=0;labelPosition=right;points=[];portConstraint=eastwest;strokeColor=inherit;" parent="5Y4opw4SE6idXGV93st0-14" vertex="1">
          <mxGeometry y="130" width="230" height="8" as="geometry" />
        </mxCell>
        <mxCell id="5Y4opw4SE6idXGV93st0-20" value="+ isBothPlayerOnline(): boolean" style="text;strokeColor=none;fillColor=none;align=left;verticalAlign=top;spacingLeft=4;spacingRight=4;overflow=hidden;rotatable=0;points=[[0,0.5],[1,0.5]];portConstraint=eastwest;whiteSpace=wrap;html=1;" parent="5Y4opw4SE6idXGV93st0-14" vertex="1">
          <mxGeometry y="138" width="230" height="26" as="geometry" />
        </mxCell>
        <mxCell id="5Y4opw4SE6idXGV93st0-21" value="+ isGameStarted(): boolean" style="text;strokeColor=none;fillColor=none;align=left;verticalAlign=top;spacingLeft=4;spacingRight=4;overflow=hidden;rotatable=0;points=[[0,0.5],[1,0.5]];portConstraint=eastwest;whiteSpace=wrap;html=1;" parent="5Y4opw4SE6idXGV93st0-14" vertex="1">
          <mxGeometry y="164" width="230" height="26" as="geometry" />
        </mxCell>
        <mxCell id="5Y4opw4SE6idXGV93st0-22" value="0..*" style="text;html=1;align=center;verticalAlign=middle;whiteSpace=wrap;rounded=0;fontStyle=1" parent="1" vertex="1">
          <mxGeometry x="-960" y="819" width="37" height="11" as="geometry" />
        </mxCell>
        <mxCell id="5Y4opw4SE6idXGV93st0-23" style="edgeStyle=orthogonalEdgeStyle;rounded=0;orthogonalLoop=1;jettySize=auto;html=1;exitX=0;exitY=0.5;exitDx=0;exitDy=0;endArrow=diamondThin;endFill=0;" parent="1" source="5Y4opw4SE6idXGV93st0-16" target="5Y4opw4SE6idXGV93st0-3" edge="1">
          <mxGeometry relative="1" as="geometry" />
        </mxCell>
        <mxCell id="5Y4opw4SE6idXGV93st0-28" value="WsCommand" style="shape=folder;fontStyle=1;spacingTop=10;tabWidth=40;tabHeight=14;tabPosition=left;html=1;whiteSpace=wrap;fillColor=#e1d5e7;strokeColor=#9673a6;" parent="1" vertex="1">
          <mxGeometry x="-1495" y="936" width="100" height="54" as="geometry" />
        </mxCell>
        <mxCell id="5Y4opw4SE6idXGV93st0-29" value=" Copy of client-side" style="text;align=center;fontStyle=1;verticalAlign=middle;spacingLeft=3;spacingRight=3;strokeColor=none;rotatable=0;points=[[0,0.5],[1,0.5]];portConstraint=eastwest;html=1;" parent="1" vertex="1">
          <mxGeometry x="-1515" y="996" width="140" height="26" as="geometry" />
        </mxCell>
        <mxCell id="5Y4opw4SE6idXGV93st0-30" value="&lt;div&gt;&lt;div&gt;&lt;b&gt;«serve»&lt;/b&gt;&lt;/div&gt;&lt;/div&gt;&lt;div&gt;&lt;b&gt;Main&lt;br&gt;&lt;/b&gt;&lt;/div&gt;" style="html=1;whiteSpace=wrap;" parent="1" vertex="1">
          <mxGeometry x="-1500" y="737" width="110" height="50" as="geometry" />
        </mxCell>
        <mxCell id="5Y4opw4SE6idXGV93st0-31" value="" style="edgeStyle=orthogonalEdgeStyle;rounded=0;orthogonalLoop=1;jettySize=auto;html=1;exitX=0.5;exitY=1;exitDx=0;exitDy=0;" parent="1" source="5Y4opw4SE6idXGV93st0-30" target="5Y4opw4SE6idXGV93st0-33" edge="1">
          <mxGeometry relative="1" as="geometry">
            <mxPoint x="-1425" y="841" as="sourcePoint" />
            <mxPoint x="-1280" y="896" as="targetPoint" />
          </mxGeometry>
        </mxCell>
        <mxCell id="5Y4opw4SE6idXGV93st0-32" style="edgeStyle=orthogonalEdgeStyle;rounded=0;orthogonalLoop=1;jettySize=auto;html=1;" parent="1" source="5Y4opw4SE6idXGV93st0-33" target="5Y4opw4SE6idXGV93st0-28" edge="1">
          <mxGeometry relative="1" as="geometry" />
        </mxCell>
        <mxCell id="5Y4opw4SE6idXGV93st0-33" value="uses" style="text;html=1;align=center;verticalAlign=middle;whiteSpace=wrap;rounded=0;fontStyle=1" parent="1" vertex="1">
          <mxGeometry x="-1475" y="840" width="60" height="30" as="geometry" />
        </mxCell>
        <mxCell id="5Y4opw4SE6idXGV93st0-34" value="" style="edgeStyle=orthogonalEdgeStyle;rounded=0;orthogonalLoop=1;jettySize=auto;html=1;exitX=1;exitY=0.5;exitDx=0;exitDy=0;" parent="1" source="5Y4opw4SE6idXGV93st0-30" target="5Y4opw4SE6idXGV93st0-36" edge="1">
          <mxGeometry relative="1" as="geometry">
            <mxPoint x="-1390" y="762" as="sourcePoint" />
            <mxPoint x="-1280" y="896" as="targetPoint" />
          </mxGeometry>
        </mxCell>
        <mxCell id="5Y4opw4SE6idXGV93st0-35" style="edgeStyle=orthogonalEdgeStyle;rounded=0;orthogonalLoop=1;jettySize=auto;html=1;entryX=0;entryY=0.5;entryDx=0;entryDy=0;" parent="1" source="5Y4opw4SE6idXGV93st0-36" target="5Y4opw4SE6idXGV93st0-2" edge="1">
          <mxGeometry relative="1" as="geometry">
            <Array as="points">
              <mxPoint x="-1360" y="896" />
            </Array>
          </mxGeometry>
        </mxCell>
        <mxCell id="5Y4opw4SE6idXGV93st0-36" value="uses" style="text;html=1;align=center;verticalAlign=middle;whiteSpace=wrap;rounded=0;fontStyle=1" parent="1" vertex="1">
          <mxGeometry x="-1390" y="815" width="60" height="30" as="geometry" />
        </mxCell>
        <mxCell id="8Jtzqwzvo8Po81lvtEC8-1" value="Server" style="swimlane;fillColor=#f5f5f5;fontColor=#333333;strokeColor=#666666;" parent="1" vertex="1">
          <mxGeometry x="-1570" y="615" width="1190" height="525" as="geometry" />
        </mxCell>
        <mxCell id="1l1LkgnF_0Q1GskT1wF1-1" value="Does not includes, every property, methods, parameters, types" style="text;align=center;fontStyle=1;verticalAlign=middle;spacingLeft=3;spacingRight=3;strokeColor=none;rotatable=0;points=[[0,0.5],[1,0.5]];portConstraint=eastwest;html=1;" parent="8Jtzqwzvo8Po81lvtEC8-1" vertex="1">
          <mxGeometry x="440" y="28" width="310" height="26" as="geometry" />
        </mxCell>
        <mxCell id="5Y4opw4SE6idXGV93st0-25" value="ChessEngine" style="shape=folder;fontStyle=1;spacingTop=10;tabWidth=40;tabHeight=14;tabPosition=left;html=1;whiteSpace=wrap;fillColor=#e1d5e7;strokeColor=#9673a6;" parent="8Jtzqwzvo8Po81lvtEC8-1" vertex="1">
          <mxGeometry x="940" y="215" width="100" height="54" as="geometry" />
        </mxCell>
        <mxCell id="5Y4opw4SE6idXGV93st0-26" value=" Copy of client-side" style="text;align=center;fontStyle=1;verticalAlign=middle;spacingLeft=3;spacingRight=3;strokeColor=none;rotatable=0;points=[[0,0.5],[1,0.5]];portConstraint=eastwest;html=1;" parent="8Jtzqwzvo8Po81lvtEC8-1" vertex="1">
          <mxGeometry x="920" y="275" width="140" height="26" as="geometry" />
        </mxCell>
        <mxCell id="n_r1wNcIvKLe8a8rRlzq-2" style="edgeStyle=orthogonalEdgeStyle;rounded=0;orthogonalLoop=1;jettySize=auto;html=1;exitX=0;exitY=0;exitDx=20;exitDy=0;exitPerimeter=0;dashed=1;" edge="1" parent="1" source="5Y4opw4SE6idXGV93st0-25" target="5Y4opw4SE6idXGV93st0-15">
          <mxGeometry relative="1" as="geometry" />
        </mxCell>
      </root>
    </mxGraphModel>
  </diagram>
  <diagram id="FvZQYMmgwNGmDlUsXkkz" name="Preparing-Online-Game">
    <mxGraphModel dx="1828" dy="1056" grid="1" gridSize="10" guides="1" tooltips="1" connect="1" arrows="1" fold="1" page="0" pageScale="1" pageWidth="850" pageHeight="1100" math="0" shadow="0">
      <root>
        <mxCell id="0" />
        <mxCell id="1" parent="0" />
        <mxCell id="VoOwwNvGhTUJnP2ygREm-1" value="Preparing Online Game" style="swimlane;fillColor=#f5f5f5;fontColor=#333333;strokeColor=#666666;" parent="1" vertex="1">
          <mxGeometry x="-180" y="160" width="1320" height="1280" as="geometry" />
        </mxCell>
        <mxCell id="SQZfuiDrpWzAuhCZ8JPH-2" value="&lt;div style=&quot;font-size: 11px;&quot;&gt;&lt;font style=&quot;font-size: 11px;&quot;&gt;Starting&lt;/font&gt;&lt;/div&gt;&lt;div style=&quot;font-size: 11px;&quot;&gt;&lt;font style=&quot;font-size: 11px;&quot;&gt;Game&lt;br&gt;&lt;/font&gt;&lt;/div&gt;" style="shape=umlFrame;whiteSpace=wrap;html=1;pointerEvents=0;width=70;height=40;fillColor=#dae8fc;strokeColor=#6c8ebf;" parent="VoOwwNvGhTUJnP2ygREm-1" vertex="1">
          <mxGeometry x="380" y="1110" width="850" height="150" as="geometry" />
        </mxCell>
        <mxCell id="10I4ZSgIgwgKnLLY6c6R-1" value="&lt;div&gt;Joining&lt;/div&gt;&lt;div&gt;Lobby&lt;br&gt;&lt;/div&gt;" style="shape=umlFrame;whiteSpace=wrap;html=1;pointerEvents=0;width=70;height=40;fontSize=11;fillColor=#dae8fc;strokeColor=#6c8ebf;" parent="VoOwwNvGhTUJnP2ygREm-1" vertex="1">
          <mxGeometry x="678" y="502" width="551" height="588" as="geometry" />
        </mxCell>
        <mxCell id="Fq_EoxrMgqxmE4XepLXG-1" value="&lt;div style=&quot;font-size: 11px;&quot;&gt;&lt;font style=&quot;font-size: 11px;&quot;&gt;Lobby&lt;/font&gt;&lt;/div&gt;&lt;div style=&quot;font-size: 11px;&quot;&gt;&lt;font style=&quot;font-size: 11px;&quot;&gt;Creation&lt;br style=&quot;font-size: 11px;&quot;&gt;&lt;/font&gt;&lt;/div&gt;" style="shape=umlFrame;whiteSpace=wrap;html=1;pointerEvents=0;width=70;height=40;fontSize=11;fillColor=#dae8fc;strokeColor=#6c8ebf;" parent="VoOwwNvGhTUJnP2ygREm-1" vertex="1">
          <mxGeometry x="378" y="192" width="551" height="280" as="geometry" />
        </mxCell>
        <mxCell id="B7PM7uXUwFSMBt94DYG4-41" value="Fail" style="shape=umlFrame;whiteSpace=wrap;html=1;pointerEvents=0;width=49;height=27;fillColor=#f8cecc;strokeColor=#b85450;" parent="VoOwwNvGhTUJnP2ygREm-1" vertex="1">
          <mxGeometry x="708" y="575" width="403" height="110" as="geometry" />
        </mxCell>
        <mxCell id="9R9m39N7jolDh7Jgoft9-12" value="&lt;div&gt;&lt;b&gt;«serve»&lt;/b&gt;&lt;/div&gt;&lt;div&gt;&lt;b&gt;Main&lt;/b&gt;&lt;br&gt;&lt;/div&gt;" style="shape=umlLifeline;perimeter=lifelinePerimeter;whiteSpace=wrap;html=1;container=1;dropTarget=0;collapsible=0;recursiveResize=0;outlineConnect=0;portConstraint=eastwest;newEdgeStyle={&quot;curved&quot;:0,&quot;rounded&quot;:0};" parent="VoOwwNvGhTUJnP2ygREm-1" vertex="1">
          <mxGeometry x="752" y="112" width="100" height="1128" as="geometry" />
        </mxCell>
        <mxCell id="B7PM7uXUwFSMBt94DYG4-53" value="GET - Check Lobby ID Request" style="html=1;verticalAlign=bottom;endArrow=block;curved=0;rounded=0;entryX=1;entryY=0;entryDx=0;entryDy=5;exitX=0;exitY=0;exitDx=0;exitDy=5;exitPerimeter=0;" parent="9R9m39N7jolDh7Jgoft9-12" edge="1">
          <mxGeometry x="-0.0021" relative="1" as="geometry">
            <mxPoint x="319" y="675" as="sourcePoint" />
            <mxPoint x="55.00000000000023" y="675" as="targetPoint" />
            <mxPoint as="offset" />
          </mxGeometry>
        </mxCell>
        <mxCell id="B7PM7uXUwFSMBt94DYG4-60" value="" style="html=1;points=[[0,0,0,0,5],[0,1,0,0,-5],[1,0,0,0,5],[1,1,0,0,-5]];perimeter=orthogonalPerimeter;outlineConnect=0;targetShapes=umlLifeline;portConstraint=eastwest;newEdgeStyle={&quot;curved&quot;:0,&quot;rounded&quot;:0};fillColor=#fff2cc;strokeColor=#d6b656;" parent="9R9m39N7jolDh7Jgoft9-12" vertex="1">
          <mxGeometry x="45" y="445" width="10" height="138" as="geometry" />
        </mxCell>
        <mxCell id="B7PM7uXUwFSMBt94DYG4-2" value="&lt;b&gt;Player 1 / Lobby Creator &lt;/b&gt;" style="text;html=1;align=center;verticalAlign=middle;whiteSpace=wrap;rounded=0;" parent="VoOwwNvGhTUJnP2ygREm-1" vertex="1">
          <mxGeometry x="442.5" y="81" width="143" height="30" as="geometry" />
        </mxCell>
        <mxCell id="B7PM7uXUwFSMBt94DYG4-5" value="&lt;b&gt;Player 2 / Invited&lt;br&gt;&lt;/b&gt;" style="text;html=1;align=center;verticalAlign=middle;whiteSpace=wrap;rounded=0;" parent="VoOwwNvGhTUJnP2ygREm-1" vertex="1">
          <mxGeometry x="1021" y="80" width="110" height="30" as="geometry" />
        </mxCell>
        <mxCell id="B7PM7uXUwFSMBt94DYG4-8" value="WebSocket Msg - WsCommand.created" style="html=1;verticalAlign=bottom;endArrow=open;dashed=1;endSize=8;curved=0;rounded=0;exitX=0;exitY=1;exitDx=0;exitDy=-5;entryX=1;entryY=1;entryDx=0;entryDy=-5;entryPerimeter=0;" parent="VoOwwNvGhTUJnP2ygREm-1" edge="1">
          <mxGeometry x="0.0036" relative="1" as="geometry">
            <mxPoint x="518" y="373.0000000000001" as="targetPoint" />
            <mxPoint x="797.0000000000002" y="373.0000000000001" as="sourcePoint" />
            <mxPoint as="offset" />
          </mxGeometry>
        </mxCell>
        <mxCell id="9R9m39N7jolDh7Jgoft9-31" value="Server" style="text;html=1;align=center;verticalAlign=middle;whiteSpace=wrap;rounded=0;fontStyle=1" parent="VoOwwNvGhTUJnP2ygREm-1" vertex="1">
          <mxGeometry x="772" y="80" width="60" height="30" as="geometry" />
        </mxCell>
        <mxCell id="B7PM7uXUwFSMBt94DYG4-16" value="WebSocket Conn Init -&amp;nbsp; JoinLobbyReqParams" style="html=1;verticalAlign=bottom;endArrow=block;curved=0;rounded=0;entryX=1;entryY=0;entryDx=0;entryDy=5;exitX=0;exitY=0;exitDx=0;exitDy=5;exitPerimeter=0;" parent="VoOwwNvGhTUJnP2ygREm-1" edge="1">
          <mxGeometry relative="1" as="geometry">
            <mxPoint x="1071" y="949" as="sourcePoint" />
            <mxPoint x="807.0000000000002" y="949" as="targetPoint" />
          </mxGeometry>
        </mxCell>
        <mxCell id="B7PM7uXUwFSMBt94DYG4-24" value="WebSocket Msg - WsCommand.connected" style="html=1;verticalAlign=bottom;endArrow=open;dashed=1;endSize=8;curved=0;rounded=0;exitX=1;exitY=1;exitDx=0;exitDy=-5;" parent="VoOwwNvGhTUJnP2ygREm-1" edge="1">
          <mxGeometry x="-0.0038" relative="1" as="geometry">
            <mxPoint x="1072.5" y="1021.5799999999999" as="targetPoint" />
            <mxPoint x="809" y="1021.58" as="sourcePoint" />
            <mxPoint as="offset" />
          </mxGeometry>
        </mxCell>
        <mxCell id="B7PM7uXUwFSMBt94DYG4-25" value="WebSocket Msg - WsCommand.started" style="html=1;verticalAlign=bottom;endArrow=open;dashed=1;endSize=8;curved=0;rounded=0;exitX=1;exitY=1;exitDx=0;exitDy=-5;exitPerimeter=0;" parent="VoOwwNvGhTUJnP2ygREm-1" edge="1">
          <mxGeometry relative="1" as="geometry">
            <mxPoint x="1072" y="1146" as="targetPoint" />
            <mxPoint x="807.0000000000002" y="1146" as="sourcePoint" />
          </mxGeometry>
        </mxCell>
        <mxCell id="B7PM7uXUwFSMBt94DYG4-31" value="WebSocket Msg - WsCommand.started" style="html=1;verticalAlign=bottom;endArrow=open;dashed=1;endSize=8;curved=0;rounded=0;exitX=0;exitY=1;exitDx=0;exitDy=-5;" parent="VoOwwNvGhTUJnP2ygREm-1" edge="1">
          <mxGeometry x="-0.0073" y="-1" relative="1" as="geometry">
            <mxPoint x="522" y="1145" as="targetPoint" />
            <mxPoint x="796.0000000000002" y="1146" as="sourcePoint" />
            <mxPoint as="offset" />
          </mxGeometry>
        </mxCell>
        <mxCell id="B7PM7uXUwFSMBt94DYG4-39" value="GET - Check Lobby ID Request" style="html=1;verticalAlign=bottom;endArrow=block;curved=0;rounded=0;entryX=1;entryY=0;entryDx=0;entryDy=5;exitX=0;exitY=0;exitDx=0;exitDy=5;exitPerimeter=0;" parent="VoOwwNvGhTUJnP2ygREm-1" edge="1">
          <mxGeometry x="-0.0025" relative="1" as="geometry">
            <mxPoint x="1071" y="600" as="sourcePoint" />
            <mxPoint x="807.0000000000002" y="600" as="targetPoint" />
            <mxPoint as="offset" />
          </mxGeometry>
        </mxCell>
        <mxCell id="B7PM7uXUwFSMBt94DYG4-4" value="" style="shape=umlLifeline;perimeter=lifelinePerimeter;whiteSpace=wrap;html=1;container=1;dropTarget=0;collapsible=0;recursiveResize=0;outlineConnect=0;portConstraint=eastwest;newEdgeStyle={&quot;curved&quot;:0,&quot;rounded&quot;:0};participant=umlActor;size=61;" parent="VoOwwNvGhTUJnP2ygREm-1" vertex="1">
          <mxGeometry x="1061" y="112" width="30" height="1128" as="geometry" />
        </mxCell>
        <mxCell id="B7PM7uXUwFSMBt94DYG4-40" value="returns ERR_CODE - ERR_MSG" style="html=1;verticalAlign=bottom;endArrow=open;dashed=1;endSize=8;curved=0;rounded=0;exitX=1;exitY=1;exitDx=0;exitDy=-5;" parent="VoOwwNvGhTUJnP2ygREm-1" edge="1">
          <mxGeometry x="-0.0002" relative="1" as="geometry">
            <mxPoint x="1071.5" y="663.5799999999999" as="targetPoint" />
            <mxPoint x="808" y="663.58" as="sourcePoint" />
            <mxPoint as="offset" />
          </mxGeometry>
        </mxCell>
        <mxCell id="Kblct2xQ41fXU0lMPGd_-1" value="Does not includes, every property, methods, parameters, types or operations" style="text;align=center;fontStyle=1;verticalAlign=middle;spacingLeft=3;spacingRight=3;strokeColor=none;rotatable=0;points=[[0,0.5],[1,0.5]];portConstraint=eastwest;html=1;" parent="VoOwwNvGhTUJnP2ygREm-1" vertex="1">
          <mxGeometry x="480" y="29" width="360" height="26" as="geometry" />
        </mxCell>
        <mxCell id="Kblct2xQ41fXU0lMPGd_-11" value="&lt;p style=&quot;margin:0px;margin-top:4px;text-align:center;&quot;&gt;&lt;i&gt;&amp;lt;&amp;lt;Interface&amp;gt;&amp;gt;&lt;/i&gt;&lt;br&gt;&lt;b&gt;CreateLobbyReqParams&lt;/b&gt;&lt;/p&gt;&lt;hr size=&quot;1&quot; style=&quot;border-style:solid;&quot;&gt;&lt;p style=&quot;margin:0px;margin-left:4px;&quot;&gt;+ name: string&lt;br&gt;+ board: string&lt;/p&gt;&lt;p style=&quot;margin:0px;margin-left:4px;&quot;&gt;+ remaining: string&lt;/p&gt;&lt;p style=&quot;margin:0px;margin-left:4px;&quot;&gt;+ increment: string&lt;br&gt;&lt;/p&gt;&lt;hr size=&quot;1&quot; style=&quot;border-style:solid;&quot;&gt;" style="verticalAlign=top;align=left;overflow=fill;html=1;whiteSpace=wrap;" parent="VoOwwNvGhTUJnP2ygREm-1" vertex="1">
          <mxGeometry x="71" y="103" width="200" height="120" as="geometry" />
        </mxCell>
        <mxCell id="Kblct2xQ41fXU0lMPGd_-4" value="&lt;p style=&quot;margin:0px;margin-top:4px;text-align:center;&quot;&gt;&lt;i&gt;&amp;lt;&amp;lt;Interface&amp;gt;&amp;gt;&lt;/i&gt;&lt;br&gt;&lt;b&gt;WsCreatedData&lt;/b&gt;&lt;/p&gt;&lt;hr size=&quot;1&quot; style=&quot;border-style:solid;&quot;&gt;&lt;p style=&quot;margin:0px;margin-left:4px;&quot;&gt;+ name: string&lt;br&gt;+ board: string&lt;/p&gt;&lt;p style=&quot;margin:0px;margin-left:4px;&quot;&gt;+ remaining: string&lt;/p&gt;&lt;p style=&quot;margin:0px;margin-left:4px;&quot;&gt;+ increment: string&lt;br&gt;&lt;/p&gt;&lt;hr size=&quot;1&quot; style=&quot;border-style:solid;&quot;&gt;" style="verticalAlign=top;align=left;overflow=fill;html=1;whiteSpace=wrap;" parent="VoOwwNvGhTUJnP2ygREm-1" vertex="1">
          <mxGeometry x="71" y="243" width="200" height="120" as="geometry" />
        </mxCell>
        <mxCell id="Kblct2xQ41fXU0lMPGd_-6" value="&lt;p style=&quot;margin:0px;margin-top:4px;text-align:center;&quot;&gt;&lt;i&gt;&amp;lt;&amp;lt;Interface&amp;gt;&amp;gt;&lt;/i&gt;&lt;br&gt;&lt;b&gt;WsConnectedData&lt;/b&gt;&lt;/p&gt;&lt;hr size=&quot;1&quot; style=&quot;border-style:solid;&quot;&gt;&lt;p style=&quot;margin:0px;margin-left:4px;&quot;&gt;+ lobbyId: string&lt;br&gt;+ player: Player&lt;br&gt;&lt;/p&gt;&lt;hr size=&quot;1&quot; style=&quot;border-style:solid;&quot;&gt;" style="verticalAlign=top;align=left;overflow=fill;html=1;whiteSpace=wrap;" parent="VoOwwNvGhTUJnP2ygREm-1" vertex="1">
          <mxGeometry x="71" y="383" width="200" height="90" as="geometry" />
        </mxCell>
        <mxCell id="Kblct2xQ41fXU0lMPGd_-8" value="&lt;p style=&quot;margin:0px;margin-top:4px;text-align:center;&quot;&gt;&lt;i&gt;&amp;lt;&amp;lt;Interface&amp;gt;&amp;gt;&lt;/i&gt;&lt;br&gt;&lt;b&gt;Player&lt;/b&gt;&lt;/p&gt;&lt;hr size=&quot;1&quot; style=&quot;border-style:solid;&quot;&gt;&lt;p style=&quot;margin:0px;margin-left:4px;&quot;&gt;+ id: string&lt;br&gt;+ name: string&lt;/p&gt;&lt;p style=&quot;margin:0px;margin-left:4px;&quot;&gt;+ isOnline: boolean&lt;/p&gt;&lt;p style=&quot;margin:0px;margin-left:4px;&quot;&gt;+ token: string&lt;br&gt;&lt;/p&gt;&lt;hr size=&quot;1&quot; style=&quot;border-style:solid;&quot;&gt;" style="verticalAlign=top;align=left;overflow=fill;html=1;whiteSpace=wrap;" parent="VoOwwNvGhTUJnP2ygREm-1" vertex="1">
          <mxGeometry x="71" y="494" width="200" height="120" as="geometry" />
        </mxCell>
        <mxCell id="Kblct2xQ41fXU0lMPGd_-10" value="&lt;p style=&quot;margin:0px;margin-top:4px;text-align:center;&quot;&gt;&lt;i&gt;&amp;lt;&amp;lt;Interface&amp;gt;&amp;gt;&lt;/i&gt;&lt;br&gt;&lt;b&gt;WsStartedData&lt;/b&gt;&lt;/p&gt;&lt;hr size=&quot;1&quot; style=&quot;border-style:solid;&quot;&gt;&lt;p style=&quot;margin:0px;margin-left:4px;&quot;&gt;+ whitePlayer: PlayerWithoutToken&lt;br&gt;+ blackPlayer. PlayerWithoutToken&lt;br&gt;&lt;/p&gt;&lt;hr size=&quot;1&quot; style=&quot;border-style:solid;&quot;&gt;" style="verticalAlign=top;align=left;overflow=fill;html=1;whiteSpace=wrap;" parent="VoOwwNvGhTUJnP2ygREm-1" vertex="1">
          <mxGeometry x="71" y="747" width="200" height="90" as="geometry" />
        </mxCell>
        <mxCell id="Kblct2xQ41fXU0lMPGd_-3" value="&lt;p style=&quot;margin:0px;margin-top:4px;text-align:center;&quot;&gt;&lt;i&gt;&amp;lt;&amp;lt;Interface&amp;gt;&amp;gt;&lt;/i&gt;&lt;br&gt;&lt;b&gt;JoinLobbyReqParams&lt;/b&gt;&lt;/p&gt;&lt;hr size=&quot;1&quot; style=&quot;border-style:solid;&quot;&gt;&lt;p style=&quot;margin:0px;margin-left:4px;&quot;&gt;+ name: string&lt;br&gt;+ lobbyId: string&lt;/p&gt;&lt;hr size=&quot;1&quot; style=&quot;border-style:solid;&quot;&gt;" style="verticalAlign=top;align=left;overflow=fill;html=1;whiteSpace=wrap;" parent="VoOwwNvGhTUJnP2ygREm-1" vertex="1">
          <mxGeometry x="71" y="635" width="200" height="90" as="geometry" />
        </mxCell>
        <mxCell id="Kblct2xQ41fXU0lMPGd_-20" value="&lt;div&gt;Creates Game&lt;/div&gt;&lt;div&gt;with Incoming&amp;nbsp;&lt;/div&gt;&lt;div&gt;Data&lt;br&gt;&lt;/div&gt;&lt;div&gt;&lt;br&gt;&lt;/div&gt;" style="html=1;align=left;spacingLeft=2;endArrow=block;rounded=0;edgeStyle=orthogonalEdgeStyle;curved=0;rounded=0;" parent="VoOwwNvGhTUJnP2ygREm-1" edge="1">
          <mxGeometry x="0.251" relative="1" as="geometry">
            <mxPoint x="1081" y="1159" as="sourcePoint" />
            <Array as="points">
              <mxPoint x="1104" y="1159" />
              <mxPoint x="1104" y="1196" />
            </Array>
            <mxPoint x="1081" y="1195.9655172413793" as="targetPoint" />
            <mxPoint as="offset" />
          </mxGeometry>
        </mxCell>
        <mxCell id="98qFC2FLe_2VTELEXKE3-2" value="&lt;div&gt;Handles&lt;/div&gt;&lt;div&gt;Incoming&lt;br&gt;&lt;/div&gt;&lt;div&gt;Data&lt;br&gt;&lt;/div&gt;" style="html=1;align=left;spacingLeft=2;endArrow=block;rounded=0;edgeStyle=orthogonalEdgeStyle;curved=0;rounded=0;" parent="VoOwwNvGhTUJnP2ygREm-1" edge="1">
          <mxGeometry x="0.0063" relative="1" as="geometry">
            <mxPoint x="1082" y="1033" as="sourcePoint" />
            <Array as="points">
              <mxPoint x="1104" y="1033" />
              <mxPoint x="1104" y="1072" />
              <mxPoint x="1082" y="1072" />
            </Array>
            <mxPoint x="1082" y="1072" as="targetPoint" />
            <mxPoint as="offset" />
          </mxGeometry>
        </mxCell>
        <mxCell id="Fq_EoxrMgqxmE4XepLXG-16" value="WebSocket Conn Init - CreateLobbyReqParams" style="html=1;verticalAlign=bottom;endArrow=block;curved=0;rounded=0;exitX=1;exitY=0;exitDx=0;exitDy=5;exitPerimeter=0;" parent="VoOwwNvGhTUJnP2ygREm-1" edge="1">
          <mxGeometry relative="1" as="geometry">
            <mxPoint x="518" y="300" as="sourcePoint" />
            <mxPoint x="796.9999999999998" y="300" as="targetPoint" />
          </mxGeometry>
        </mxCell>
        <mxCell id="Fq_EoxrMgqxmE4XepLXG-18" value="&lt;div&gt;Handles&lt;/div&gt;&lt;div&gt;Lobby&lt;/div&gt;&lt;div&gt;Creating&lt;/div&gt;" style="html=1;align=left;spacingLeft=2;endArrow=block;rounded=0;edgeStyle=orthogonalEdgeStyle;curved=0;rounded=0;" parent="VoOwwNvGhTUJnP2ygREm-1" edge="1">
          <mxGeometry x="0.1181" y="4" relative="1" as="geometry">
            <mxPoint x="807" y="310" as="sourcePoint" />
            <Array as="points">
              <mxPoint x="834" y="310" />
              <mxPoint x="834" y="360" />
              <mxPoint x="808" y="360" />
            </Array>
            <mxPoint x="808" y="360" as="targetPoint" />
            <mxPoint as="offset" />
          </mxGeometry>
        </mxCell>
        <mxCell id="Fq_EoxrMgqxmE4XepLXG-19" value="" style="html=1;points=[[0,0,0,0,5],[0,1,0,0,-5],[1,0,0,0,5],[1,1,0,0,-5]];perimeter=orthogonalPerimeter;outlineConnect=0;targetShapes=umlLifeline;portConstraint=eastwest;newEdgeStyle={&quot;curved&quot;:0,&quot;rounded&quot;:0};fillColor=#fff2cc;strokeColor=#d6b656;" parent="VoOwwNvGhTUJnP2ygREm-1" vertex="1">
          <mxGeometry x="797" y="282" width="10" height="118" as="geometry" />
        </mxCell>
        <mxCell id="B7PM7uXUwFSMBt94DYG4-1" value="" style="shape=umlLifeline;perimeter=lifelinePerimeter;whiteSpace=wrap;html=1;container=1;dropTarget=0;collapsible=0;recursiveResize=0;outlineConnect=0;portConstraint=eastwest;newEdgeStyle={&quot;curved&quot;:0,&quot;rounded&quot;:0};participant=umlActor;size=61;" parent="VoOwwNvGhTUJnP2ygREm-1" vertex="1">
          <mxGeometry x="498" y="112" width="30" height="1128" as="geometry" />
        </mxCell>
        <mxCell id="B7PM7uXUwFSMBt94DYG4-9" value="" style="html=1;points=[[0,0,0,0,5],[0,1,0,0,-5],[1,0,0,0,5],[1,1,0,0,-5]];perimeter=orthogonalPerimeter;outlineConnect=0;targetShapes=umlLifeline;portConstraint=eastwest;newEdgeStyle={&quot;curved&quot;:0,&quot;rounded&quot;:0};fillColor=#fff2cc;strokeColor=#d6b656;" parent="B7PM7uXUwFSMBt94DYG4-1" vertex="1">
          <mxGeometry x="10" y="170" width="10" height="930" as="geometry" />
        </mxCell>
        <mxCell id="B7PM7uXUwFSMBt94DYG4-18" value="" style="html=1;points=[[0,0,0,0,5],[0,1,0,0,-5],[1,0,0,0,5],[1,1,0,0,-5]];perimeter=orthogonalPerimeter;outlineConnect=0;targetShapes=umlLifeline;portConstraint=eastwest;newEdgeStyle={&quot;curved&quot;:0,&quot;rounded&quot;:0};fillColor=#fff2cc;strokeColor=#d6b656;" parent="VoOwwNvGhTUJnP2ygREm-1" vertex="1">
          <mxGeometry x="1071" y="557" width="10" height="137" as="geometry" />
        </mxCell>
        <mxCell id="10I4ZSgIgwgKnLLY6c6R-2" value="&lt;div&gt;Enters Lobby&amp;nbsp;&lt;/div&gt;&lt;div&gt;URL&lt;br&gt;&lt;/div&gt;" style="html=1;align=left;spacingLeft=2;endArrow=block;rounded=0;edgeStyle=orthogonalEdgeStyle;curved=0;rounded=0;" parent="VoOwwNvGhTUJnP2ygREm-1" edge="1">
          <mxGeometry x="0.0048" relative="1" as="geometry">
            <mxPoint x="1076" y="720" as="sourcePoint" />
            <Array as="points">
              <mxPoint x="1076" y="720" />
              <mxPoint x="1107" y="720" />
              <mxPoint x="1107" y="753" />
            </Array>
            <mxPoint x="1080.97" y="752.5000000000001" as="targetPoint" />
            <mxPoint as="offset" />
          </mxGeometry>
        </mxCell>
        <mxCell id="10I4ZSgIgwgKnLLY6c6R-3" value="" style="html=1;align=left;spacingLeft=2;endArrow=block;rounded=0;edgeStyle=orthogonalEdgeStyle;curved=0;rounded=0;" parent="VoOwwNvGhTUJnP2ygREm-1" edge="1">
          <mxGeometry x="0.1068" y="4" relative="1" as="geometry">
            <mxPoint x="795" y="611" as="sourcePoint" />
            <Array as="points">
              <mxPoint x="768" y="611" />
              <mxPoint x="768" y="651" />
            </Array>
            <mxPoint x="788" y="651" as="targetPoint" />
            <mxPoint as="offset" />
          </mxGeometry>
        </mxCell>
        <mxCell id="10I4ZSgIgwgKnLLY6c6R-6" value="&lt;div&gt;Checks&lt;/div&gt;&lt;div&gt;Lobby&amp;nbsp;&lt;/div&gt;&lt;div&gt;ID&lt;br&gt;&lt;/div&gt;" style="text;html=1;align=center;verticalAlign=middle;whiteSpace=wrap;rounded=0;fontSize=11;" parent="VoOwwNvGhTUJnP2ygREm-1" vertex="1">
          <mxGeometry x="715" y="616" width="60" height="30" as="geometry" />
        </mxCell>
        <mxCell id="10I4ZSgIgwgKnLLY6c6R-8" value="&lt;div&gt;Enters Lobby&amp;nbsp;&lt;/div&gt;&lt;div&gt;URL&lt;br&gt;&lt;/div&gt;" style="html=1;align=left;spacingLeft=2;endArrow=block;rounded=0;edgeStyle=orthogonalEdgeStyle;curved=0;rounded=0;" parent="VoOwwNvGhTUJnP2ygREm-1" source="B7PM7uXUwFSMBt94DYG4-4" edge="1">
          <mxGeometry x="0.0058" relative="1" as="geometry">
            <mxPoint x="1076" y="522" as="sourcePoint" />
            <Array as="points">
              <mxPoint x="1107" y="530" />
              <mxPoint x="1107" y="564" />
            </Array>
            <mxPoint x="1080.97" y="563.5000000000001" as="targetPoint" />
            <mxPoint as="offset" />
          </mxGeometry>
        </mxCell>
        <mxCell id="Kblct2xQ41fXU0lMPGd_-2" value="" style="html=1;points=[[0,0,0,0,5],[0,1,0,0,-5],[1,0,0,0,5],[1,1,0,0,-5]];perimeter=orthogonalPerimeter;outlineConnect=0;targetShapes=umlLifeline;portConstraint=eastwest;newEdgeStyle={&quot;curved&quot;:0,&quot;rounded&quot;:0};fillColor=#fff2cc;strokeColor=#d6b656;" parent="VoOwwNvGhTUJnP2ygREm-1" vertex="1">
          <mxGeometry x="797" y="932" width="10" height="278" as="geometry" />
        </mxCell>
        <mxCell id="10I4ZSgIgwgKnLLY6c6R-17" value="&lt;div&gt;Enters&lt;/div&gt;&lt;div&gt;Player&lt;/div&gt;&lt;div&gt;Name&lt;/div&gt;" style="html=1;align=left;spacingLeft=2;endArrow=block;rounded=0;edgeStyle=orthogonalEdgeStyle;curved=0;rounded=0;" parent="VoOwwNvGhTUJnP2ygREm-1" edge="1">
          <mxGeometry x="0.0048" relative="1" as="geometry">
            <mxPoint x="1080" y="910" as="sourcePoint" />
            <Array as="points">
              <mxPoint x="1077" y="910" />
              <mxPoint x="1108" y="910" />
              <mxPoint x="1108" y="941" />
            </Array>
            <mxPoint x="1082" y="940.5" as="targetPoint" />
            <mxPoint as="offset" />
          </mxGeometry>
        </mxCell>
        <mxCell id="10I4ZSgIgwgKnLLY6c6R-18" value="" style="html=1;points=[[0,0,0,0,5],[0,1,0,0,-5],[1,0,0,0,5],[1,1,0,0,-5]];perimeter=orthogonalPerimeter;outlineConnect=0;targetShapes=umlLifeline;portConstraint=eastwest;newEdgeStyle={&quot;curved&quot;:0,&quot;rounded&quot;:0};fillColor=#fff2cc;strokeColor=#d6b656;" parent="VoOwwNvGhTUJnP2ygREm-1" vertex="1">
          <mxGeometry x="1071" y="932" width="10" height="278" as="geometry" />
        </mxCell>
        <mxCell id="10I4ZSgIgwgKnLLY6c6R-19" value="" style="html=1;align=left;spacingLeft=2;endArrow=block;rounded=0;edgeStyle=orthogonalEdgeStyle;curved=0;rounded=0;" parent="VoOwwNvGhTUJnP2ygREm-1" edge="1">
          <mxGeometry x="0.1068" y="4" relative="1" as="geometry">
            <mxPoint x="797" y="962" as="sourcePoint" />
            <Array as="points">
              <mxPoint x="770" y="962" />
              <mxPoint x="770" y="1002" />
            </Array>
            <mxPoint x="790" y="1002" as="targetPoint" />
            <mxPoint as="offset" />
          </mxGeometry>
        </mxCell>
        <mxCell id="10I4ZSgIgwgKnLLY6c6R-20" value="&lt;div&gt;Handles&lt;/div&gt;&lt;div&gt;Lobby&lt;/div&gt;&lt;div&gt;Joining&lt;br&gt;&lt;/div&gt;" style="text;html=1;align=center;verticalAlign=middle;whiteSpace=wrap;rounded=0;fontSize=11;" parent="VoOwwNvGhTUJnP2ygREm-1" vertex="1">
          <mxGeometry x="712" y="966" width="60" height="30" as="geometry" />
        </mxCell>
        <mxCell id="10I4ZSgIgwgKnLLY6c6R-25" value="" style="html=1;align=left;spacingLeft=2;endArrow=block;rounded=0;edgeStyle=orthogonalEdgeStyle;curved=0;rounded=0;" parent="VoOwwNvGhTUJnP2ygREm-1" edge="1">
          <mxGeometry x="0.1068" y="4" relative="1" as="geometry">
            <mxPoint x="507" y="1159" as="sourcePoint" />
            <Array as="points">
              <mxPoint x="480" y="1159" />
              <mxPoint x="480" y="1199" />
            </Array>
            <mxPoint x="500" y="1199" as="targetPoint" />
            <mxPoint as="offset" />
          </mxGeometry>
        </mxCell>
        <mxCell id="10I4ZSgIgwgKnLLY6c6R-26" value="&lt;div align=&quot;center&quot;&gt;Creates Game&lt;/div&gt;&lt;div align=&quot;center&quot;&gt;with Incoming&amp;nbsp;&lt;/div&gt;&lt;div align=&quot;center&quot;&gt;Data&lt;br&gt;&lt;/div&gt;&lt;div align=&quot;center&quot;&gt;&lt;br&gt;&lt;br&gt;&lt;/div&gt;" style="text;html=1;align=center;verticalAlign=middle;whiteSpace=wrap;rounded=0;fontSize=11;" parent="VoOwwNvGhTUJnP2ygREm-1" vertex="1">
          <mxGeometry x="395" y="1183" width="84" height="31" as="geometry" />
        </mxCell>
        <mxCell id="10I4ZSgIgwgKnLLY6c6R-29" value="" style="html=1;align=left;spacingLeft=2;endArrow=block;rounded=0;edgeStyle=orthogonalEdgeStyle;curved=0;rounded=0;" parent="VoOwwNvGhTUJnP2ygREm-1" edge="1">
          <mxGeometry x="0.1068" y="4" relative="1" as="geometry">
            <mxPoint x="506" y="392" as="sourcePoint" />
            <Array as="points">
              <mxPoint x="479" y="392" />
              <mxPoint x="479" y="452" />
            </Array>
            <mxPoint x="508" y="452" as="targetPoint" />
            <mxPoint as="offset" />
          </mxGeometry>
        </mxCell>
        <mxCell id="10I4ZSgIgwgKnLLY6c6R-30" value="&lt;div align=&quot;center&quot;&gt;Shows Created&amp;nbsp;&lt;/div&gt;&lt;div align=&quot;center&quot;&gt;Lobby ID&lt;br&gt;&lt;/div&gt;&lt;div align=&quot;center&quot;&gt;and Handle&lt;/div&gt;&lt;div align=&quot;center&quot;&gt;Incoming Data&lt;br&gt;&lt;/div&gt;" style="text;html=1;align=center;verticalAlign=middle;whiteSpace=wrap;rounded=0;fontSize=11;" parent="VoOwwNvGhTUJnP2ygREm-1" vertex="1">
          <mxGeometry x="394" y="409" width="84" height="31" as="geometry" />
        </mxCell>
        <mxCell id="10I4ZSgIgwgKnLLY6c6R-31" value="" style="html=1;align=left;spacingLeft=2;endArrow=block;rounded=0;edgeStyle=orthogonalEdgeStyle;curved=0;rounded=0;" parent="VoOwwNvGhTUJnP2ygREm-1" edge="1">
          <mxGeometry x="0.1068" y="4" relative="1" as="geometry">
            <mxPoint x="512" y="252" as="sourcePoint" />
            <Array as="points">
              <mxPoint x="479" y="252" />
              <mxPoint x="479" y="292" />
            </Array>
            <mxPoint x="508" y="292" as="targetPoint" />
            <mxPoint as="offset" />
          </mxGeometry>
        </mxCell>
        <mxCell id="10I4ZSgIgwgKnLLY6c6R-32" value="&lt;div&gt;Creates&amp;nbsp;&lt;/div&gt;&lt;div&gt;a Lobby&lt;br&gt;&lt;/div&gt;&lt;div&gt;&lt;br&gt;&lt;/div&gt;" style="text;html=1;align=center;verticalAlign=middle;whiteSpace=wrap;rounded=0;fontSize=11;" parent="VoOwwNvGhTUJnP2ygREm-1" vertex="1">
          <mxGeometry x="416" y="261.5" width="74" height="30.5" as="geometry" />
        </mxCell>
        <mxCell id="10I4ZSgIgwgKnLLY6c6R-9" value="Success" style="shape=umlFrame;whiteSpace=wrap;html=1;pointerEvents=0;width=60;height=30;fillColor=#d5e8d4;strokeColor=#82b366;" parent="VoOwwNvGhTUJnP2ygREm-1" vertex="1">
          <mxGeometry x="710" y="762" width="403" height="110" as="geometry" />
        </mxCell>
        <mxCell id="10I4ZSgIgwgKnLLY6c6R-13" value="" style="html=1;points=[[0,0,0,0,5],[0,1,0,0,-5],[1,0,0,0,5],[1,1,0,0,-5]];perimeter=orthogonalPerimeter;outlineConnect=0;targetShapes=umlLifeline;portConstraint=eastwest;newEdgeStyle={&quot;curved&quot;:0,&quot;rounded&quot;:0};fillColor=#fff2cc;strokeColor=#d6b656;" parent="VoOwwNvGhTUJnP2ygREm-1" vertex="1">
          <mxGeometry x="1071" y="747.5" width="10" height="137" as="geometry" />
        </mxCell>
        <mxCell id="10I4ZSgIgwgKnLLY6c6R-12" value="returns 200 Lobby found" style="html=1;verticalAlign=bottom;endArrow=open;dashed=1;endSize=8;curved=0;rounded=0;exitX=1;exitY=1;exitDx=0;exitDy=-5;" parent="VoOwwNvGhTUJnP2ygREm-1" edge="1">
          <mxGeometry relative="1" as="geometry">
            <mxPoint x="1071" y="850.5799999999999" as="targetPoint" />
            <mxPoint x="807.5" y="850.58" as="sourcePoint" />
          </mxGeometry>
        </mxCell>
        <mxCell id="10I4ZSgIgwgKnLLY6c6R-10" value="" style="html=1;points=[[0,0,0,0,5],[0,1,0,0,-5],[1,0,0,0,5],[1,1,0,0,-5]];perimeter=orthogonalPerimeter;outlineConnect=0;targetShapes=umlLifeline;portConstraint=eastwest;newEdgeStyle={&quot;curved&quot;:0,&quot;rounded&quot;:0};fillColor=#fff2cc;strokeColor=#d6b656;" parent="1" vertex="1">
          <mxGeometry x="617" y="904" width="10" height="140" as="geometry" />
        </mxCell>
        <mxCell id="10I4ZSgIgwgKnLLY6c6R-14" value="&lt;div&gt;Checks&lt;/div&gt;&lt;div&gt;Lobby&amp;nbsp;&lt;/div&gt;&lt;div&gt;ID&lt;br&gt;&lt;/div&gt;" style="text;html=1;align=center;verticalAlign=middle;whiteSpace=wrap;rounded=0;fontSize=11;" parent="1" vertex="1">
          <mxGeometry x="535" y="966" width="60" height="30" as="geometry" />
        </mxCell>
        <mxCell id="10I4ZSgIgwgKnLLY6c6R-16" value="" style="html=1;align=left;spacingLeft=2;endArrow=block;rounded=0;edgeStyle=orthogonalEdgeStyle;curved=0;rounded=0;" parent="1" edge="1">
          <mxGeometry x="0.1068" y="4" relative="1" as="geometry">
            <mxPoint x="617" y="960.98" as="sourcePoint" />
            <Array as="points">
              <mxPoint x="590" y="960.98" />
              <mxPoint x="590" y="1000.98" />
            </Array>
            <mxPoint x="610" y="1000.98" as="targetPoint" />
            <mxPoint as="offset" />
          </mxGeometry>
        </mxCell>
        <mxCell id="10I4ZSgIgwgKnLLY6c6R-21" value="" style="html=1;align=left;spacingLeft=2;endArrow=block;rounded=0;edgeStyle=orthogonalEdgeStyle;curved=0;rounded=0;" parent="1" edge="1">
          <mxGeometry x="0.1068" y="4" relative="1" as="geometry">
            <mxPoint x="615" y="1193" as="sourcePoint" />
            <Array as="points">
              <mxPoint x="588" y="1193" />
              <mxPoint x="588" y="1233" />
            </Array>
            <mxPoint x="608" y="1233" as="targetPoint" />
            <mxPoint as="offset" />
          </mxGeometry>
        </mxCell>
        <mxCell id="10I4ZSgIgwgKnLLY6c6R-22" value="&lt;div&gt;Creates&lt;/div&gt;&lt;div&gt;Game&lt;/div&gt;&lt;div&gt;on Lobby&lt;br&gt;&lt;/div&gt;" style="text;html=1;align=center;verticalAlign=middle;whiteSpace=wrap;rounded=0;fontSize=11;" parent="1" vertex="1">
          <mxGeometry x="530" y="1197" width="60" height="30" as="geometry" />
        </mxCell>
      </root>
    </mxGraphModel>
  </diagram>
  <diagram id="60WxVy3qZOZl6_IBt5BO" name="Playing-Online-Game">
    <mxGraphModel dx="1987" dy="1173" grid="1" gridSize="10" guides="1" tooltips="1" connect="1" arrows="1" fold="1" page="0" pageScale="1" pageWidth="850" pageHeight="1100" math="0" shadow="0">
      <root>
        <mxCell id="0" />
        <mxCell id="1" parent="0" />
        <mxCell id="8gD0zJ5MJaZhwJnVWQyT-1" value="Playing Online Game" style="swimlane;" parent="1" vertex="1">
          <mxGeometry x="-160" y="130" width="1200" height="2110" as="geometry" />
        </mxCell>
        <mxCell id="zNXm47KKZmkOaIkFy_To-4" value="Accept" style="shape=umlFrame;whiteSpace=wrap;html=1;pointerEvents=0;width=64;height=30;fontSize=11;fillColor=#d5e8d4;strokeColor=#82b366;" parent="8gD0zJ5MJaZhwJnVWQyT-1" vertex="1">
          <mxGeometry x="340" y="1426" width="795" height="220" as="geometry" />
        </mxCell>
        <mxCell id="HC0XpfASCF0sQ5mTGvOr-10" value="Decline" style="shape=umlFrame;whiteSpace=wrap;html=1;pointerEvents=0;width=64;height=30;fontSize=11;fillColor=#f8cecc;strokeColor=#b85450;" parent="8gD0zJ5MJaZhwJnVWQyT-1" vertex="1">
          <mxGeometry x="340" y="1231" width="795" height="180" as="geometry" />
        </mxCell>
        <mxCell id="emCWlJG8-qAFg6BPahUF-2" value="Cancel" style="shape=umlFrame;whiteSpace=wrap;html=1;pointerEvents=0;width=64;height=30;fontSize=11;fillColor=#f8cecc;strokeColor=#b85450;" parent="8gD0zJ5MJaZhwJnVWQyT-1" vertex="1">
          <mxGeometry x="340" y="1036" width="795" height="180" as="geometry" />
        </mxCell>
        <mxCell id="KN5aKI3FfxGeP6XqG7Jq-1" value="WebSocket Msg - WsCommand.error" style="html=1;verticalAlign=bottom;endArrow=open;dashed=1;endSize=8;curved=0;rounded=0;exitX=0;exitY=1;exitDx=0;exitDy=-5;entryX=1;entryY=1;entryDx=0;entryDy=-5;entryPerimeter=0;" parent="8gD0zJ5MJaZhwJnVWQyT-1" edge="1">
          <mxGeometry x="0.0036" relative="1" as="geometry">
            <mxPoint x="464.5" y="455.0000000000001" as="targetPoint" />
            <mxPoint x="743.5000000000002" y="455.0000000000001" as="sourcePoint" />
            <mxPoint as="offset" />
          </mxGeometry>
        </mxCell>
        <mxCell id="8gD0zJ5MJaZhwJnVWQyT-3" value="" style="shape=umlLifeline;perimeter=lifelinePerimeter;whiteSpace=wrap;html=1;container=1;dropTarget=0;collapsible=0;recursiveResize=0;outlineConnect=0;portConstraint=eastwest;newEdgeStyle={&quot;curved&quot;:0,&quot;rounded&quot;:0};participant=umlActor;size=61;" parent="8gD0zJ5MJaZhwJnVWQyT-1" vertex="1">
          <mxGeometry x="442.5" y="112" width="30" height="1878" as="geometry" />
        </mxCell>
        <mxCell id="bhzaWgVcMWjI3X87n0z7-5" value="" style="html=1;points=[[0,0,0,0,5],[0,1,0,0,-5],[1,0,0,0,5],[1,1,0,0,-5]];perimeter=orthogonalPerimeter;outlineConnect=0;targetShapes=umlLifeline;portConstraint=eastwest;newEdgeStyle={&quot;curved&quot;:0,&quot;rounded&quot;:0};fillColor=#fff2cc;strokeColor=#d6b656;" parent="8gD0zJ5MJaZhwJnVWQyT-3" vertex="1">
          <mxGeometry x="10" y="829" width="10" height="687" as="geometry" />
        </mxCell>
        <mxCell id="JaEbMZ_sN_cA4zG7KS4b-2" value="" style="html=1;points=[[0,0,0,0,5],[0,1,0,0,-5],[1,0,0,0,5],[1,1,0,0,-5]];perimeter=orthogonalPerimeter;outlineConnect=0;targetShapes=umlLifeline;portConstraint=eastwest;newEdgeStyle={&quot;curved&quot;:0,&quot;rounded&quot;:0};fillColor=#fff2cc;strokeColor=#d6b656;" parent="8gD0zJ5MJaZhwJnVWQyT-3" vertex="1">
          <mxGeometry x="10" y="88" width="10" height="44" as="geometry" />
        </mxCell>
        <mxCell id="8gD0zJ5MJaZhwJnVWQyT-5" value="&lt;div&gt;&lt;b&gt;«serve»&lt;/b&gt;&lt;/div&gt;&lt;div&gt;&lt;b&gt;Main&lt;/b&gt;&lt;br&gt;&lt;/div&gt;" style="shape=umlLifeline;perimeter=lifelinePerimeter;whiteSpace=wrap;html=1;container=1;dropTarget=0;collapsible=0;recursiveResize=0;outlineConnect=0;portConstraint=eastwest;newEdgeStyle={&quot;curved&quot;:0,&quot;rounded&quot;:0};" parent="8gD0zJ5MJaZhwJnVWQyT-1" vertex="1">
          <mxGeometry x="696.5" y="110" width="100" height="1880" as="geometry" />
        </mxCell>
        <mxCell id="8gD0zJ5MJaZhwJnVWQyT-12" value="&lt;b&gt;Player 1 / White Player &lt;/b&gt;" style="text;html=1;align=center;verticalAlign=middle;whiteSpace=wrap;rounded=0;" parent="8gD0zJ5MJaZhwJnVWQyT-1" vertex="1">
          <mxGeometry x="388.5" y="80" width="140.5" height="30" as="geometry" />
        </mxCell>
        <mxCell id="8gD0zJ5MJaZhwJnVWQyT-13" value="&lt;b&gt;Player 2 / Black Player&lt;br&gt;&lt;/b&gt;" style="text;html=1;align=center;verticalAlign=middle;whiteSpace=wrap;rounded=0;" parent="8gD0zJ5MJaZhwJnVWQyT-1" vertex="1">
          <mxGeometry x="954" y="82" width="133" height="30" as="geometry" />
        </mxCell>
        <mxCell id="8gD0zJ5MJaZhwJnVWQyT-16" value="Server" style="text;html=1;align=center;verticalAlign=middle;whiteSpace=wrap;rounded=0;fontStyle=1" parent="8gD0zJ5MJaZhwJnVWQyT-1" vertex="1">
          <mxGeometry x="716.5" y="82" width="60" height="30" as="geometry" />
        </mxCell>
        <mxCell id="8gD0zJ5MJaZhwJnVWQyT-25" value="" style="shape=umlLifeline;perimeter=lifelinePerimeter;whiteSpace=wrap;html=1;container=1;dropTarget=0;collapsible=0;recursiveResize=0;outlineConnect=0;portConstraint=eastwest;newEdgeStyle={&quot;curved&quot;:0,&quot;rounded&quot;:0};participant=umlActor;size=61;" parent="8gD0zJ5MJaZhwJnVWQyT-1" vertex="1">
          <mxGeometry x="1005.5" y="112" width="30" height="1878" as="geometry" />
        </mxCell>
        <mxCell id="8gD0zJ5MJaZhwJnVWQyT-28" value="" style="html=1;points=[[0,0,0,0,5],[0,1,0,0,-5],[1,0,0,0,5],[1,1,0,0,-5]];perimeter=orthogonalPerimeter;outlineConnect=0;targetShapes=umlLifeline;portConstraint=eastwest;newEdgeStyle={&quot;curved&quot;:0,&quot;rounded&quot;:0};fillColor=#fff2cc;strokeColor=#d6b656;" parent="8gD0zJ5MJaZhwJnVWQyT-25" vertex="1">
          <mxGeometry x="10" y="534" width="10" height="162" as="geometry" />
        </mxCell>
        <mxCell id="p9AGo9bbudkZ_8akebkO-4" value="" style="html=1;points=[[0,0,0,0,5],[0,1,0,0,-5],[1,0,0,0,5],[1,1,0,0,-5]];perimeter=orthogonalPerimeter;outlineConnect=0;targetShapes=umlLifeline;portConstraint=eastwest;newEdgeStyle={&quot;curved&quot;:0,&quot;rounded&quot;:0};fillColor=#fff2cc;strokeColor=#d6b656;" parent="8gD0zJ5MJaZhwJnVWQyT-25" vertex="1">
          <mxGeometry x="10" y="906" width="10" height="530" as="geometry" />
        </mxCell>
        <mxCell id="JaEbMZ_sN_cA4zG7KS4b-3" value="" style="html=1;points=[[0,0,0,0,5],[0,1,0,0,-5],[1,0,0,0,5],[1,1,0,0,-5]];perimeter=orthogonalPerimeter;outlineConnect=0;targetShapes=umlLifeline;portConstraint=eastwest;newEdgeStyle={&quot;curved&quot;:0,&quot;rounded&quot;:0};fillColor=#fff2cc;strokeColor=#d6b656;" parent="8gD0zJ5MJaZhwJnVWQyT-25" vertex="1">
          <mxGeometry x="10" y="88" width="10" height="44" as="geometry" />
        </mxCell>
        <mxCell id="8gD0zJ5MJaZhwJnVWQyT-29" value="Does not includes, every property, methods, parameters, types or operations" style="text;align=center;fontStyle=1;verticalAlign=middle;spacingLeft=3;spacingRight=3;strokeColor=none;rotatable=0;points=[[0,0.5],[1,0.5]];portConstraint=eastwest;html=1;" parent="8gD0zJ5MJaZhwJnVWQyT-1" vertex="1">
          <mxGeometry x="420" y="29" width="360" height="26" as="geometry" />
        </mxCell>
        <mxCell id="VLa-yBOBADQdS73CZlG1-1" value="WebSocket Msg - WsCommand.moved" style="html=1;verticalAlign=bottom;endArrow=block;curved=0;rounded=0;exitX=1;exitY=0;exitDx=0;exitDy=5;exitPerimeter=0;" parent="8gD0zJ5MJaZhwJnVWQyT-1" edge="1">
          <mxGeometry relative="1" as="geometry">
            <mxPoint x="462.5" y="407" as="sourcePoint" />
            <mxPoint x="741.4999999999998" y="407" as="targetPoint" />
          </mxGeometry>
        </mxCell>
        <mxCell id="AJWlDd8eX_6nKeBgU4SI-1" value="&lt;div&gt;Play&lt;/div&gt;&lt;div&gt;Move&lt;br&gt;&lt;/div&gt;" style="shape=umlFrame;whiteSpace=wrap;html=1;pointerEvents=0;width=70;height=40;fontSize=11;fillColor=#dae8fc;strokeColor=#6c8ebf;" parent="8gD0zJ5MJaZhwJnVWQyT-1" vertex="1">
          <mxGeometry x="310" y="266" width="850" height="590" as="geometry" />
        </mxCell>
        <mxCell id="nTQA-AwmTxhuQEClqxKc-1" value="" style="html=1;align=left;spacingLeft=2;endArrow=block;rounded=0;edgeStyle=orthogonalEdgeStyle;curved=0;rounded=0;" parent="8gD0zJ5MJaZhwJnVWQyT-1" edge="1">
          <mxGeometry x="0.1068" y="4" relative="1" as="geometry">
            <mxPoint x="457" y="324" as="sourcePoint" />
            <Array as="points">
              <mxPoint x="424" y="324" />
              <mxPoint x="424" y="364" />
            </Array>
            <mxPoint x="453" y="364" as="targetPoint" />
            <mxPoint as="offset" />
          </mxGeometry>
        </mxCell>
        <mxCell id="8gD0zJ5MJaZhwJnVWQyT-11" value="" style="html=1;points=[[0,0,0,0,5],[0,1,0,0,-5],[1,0,0,0,5],[1,1,0,0,-5]];perimeter=orthogonalPerimeter;outlineConnect=0;targetShapes=umlLifeline;portConstraint=eastwest;newEdgeStyle={&quot;curved&quot;:0,&quot;rounded&quot;:0};fillColor=#fff2cc;strokeColor=#d6b656;" parent="8gD0zJ5MJaZhwJnVWQyT-1" vertex="1">
          <mxGeometry x="741.5" y="386" width="10" height="90" as="geometry" />
        </mxCell>
        <mxCell id="Vdig6Z573Y_iZCRpWZTU-1" value="&lt;div&gt;Handles&lt;/div&gt;Move" style="html=1;align=left;spacingLeft=2;endArrow=block;rounded=0;edgeStyle=orthogonalEdgeStyle;curved=0;rounded=0;" parent="8gD0zJ5MJaZhwJnVWQyT-1" edge="1">
          <mxGeometry x="0.092" relative="1" as="geometry">
            <mxPoint x="751.5" y="415" as="sourcePoint" />
            <Array as="points">
              <mxPoint x="778" y="415" />
              <mxPoint x="778" y="443" />
              <mxPoint x="752" y="443" />
            </Array>
            <mxPoint x="750" y="443" as="targetPoint" />
            <mxPoint as="offset" />
          </mxGeometry>
        </mxCell>
        <mxCell id="ODQG4ICn8yBUdWm7in7q-1" value="Fail" style="shape=umlFrame;whiteSpace=wrap;html=1;pointerEvents=0;width=49;height=27;fontSize=11;fillColor=#f8cecc;strokeColor=#b85450;" parent="8gD0zJ5MJaZhwJnVWQyT-1" vertex="1">
          <mxGeometry x="366" y="376" width="485" height="110" as="geometry" />
        </mxCell>
        <mxCell id="lDoVuxBGT3sOa8Z6km1W-5" value="&lt;div&gt;Makes&lt;/div&gt;&lt;div&gt;a Move&lt;br&gt;&lt;/div&gt;" style="text;html=1;align=center;verticalAlign=middle;whiteSpace=wrap;rounded=0;fontSize=11;" parent="8gD0zJ5MJaZhwJnVWQyT-1" vertex="1">
          <mxGeometry x="368" y="328" width="59" height="31" as="geometry" />
        </mxCell>
        <mxCell id="8gD0zJ5MJaZhwJnVWQyT-4" value="" style="html=1;points=[[0,0,0,0,5],[0,1,0,0,-5],[1,0,0,0,5],[1,1,0,0,-5]];perimeter=orthogonalPerimeter;outlineConnect=0;targetShapes=umlLifeline;portConstraint=eastwest;newEdgeStyle={&quot;curved&quot;:0,&quot;rounded&quot;:0};fillColor=#fff2cc;strokeColor=#d6b656;" parent="8gD0zJ5MJaZhwJnVWQyT-1" vertex="1">
          <mxGeometry x="452.5" y="354" width="10" height="122" as="geometry" />
        </mxCell>
        <mxCell id="Yi7-Kp4Rc9WaveixJUum-2" value="WebSocket Msg - WsCommand.moved" style="html=1;verticalAlign=bottom;endArrow=block;curved=0;rounded=0;exitX=1;exitY=0;exitDx=0;exitDy=5;exitPerimeter=0;" parent="8gD0zJ5MJaZhwJnVWQyT-1" edge="1">
          <mxGeometry relative="1" as="geometry">
            <mxPoint x="462.5" y="595" as="sourcePoint" />
            <mxPoint x="741.4999999999998" y="595" as="targetPoint" />
          </mxGeometry>
        </mxCell>
        <mxCell id="Yi7-Kp4Rc9WaveixJUum-3" value="" style="html=1;align=left;spacingLeft=2;endArrow=block;rounded=0;edgeStyle=orthogonalEdgeStyle;curved=0;rounded=0;" parent="8gD0zJ5MJaZhwJnVWQyT-1" edge="1">
          <mxGeometry x="0.1068" y="4" relative="1" as="geometry">
            <mxPoint x="457" y="514" as="sourcePoint" />
            <Array as="points">
              <mxPoint x="424" y="514" />
              <mxPoint x="424" y="554" />
            </Array>
            <mxPoint x="453" y="554" as="targetPoint" />
            <mxPoint as="offset" />
          </mxGeometry>
        </mxCell>
        <mxCell id="Yi7-Kp4Rc9WaveixJUum-4" value="" style="html=1;points=[[0,0,0,0,5],[0,1,0,0,-5],[1,0,0,0,5],[1,1,0,0,-5]];perimeter=orthogonalPerimeter;outlineConnect=0;targetShapes=umlLifeline;portConstraint=eastwest;newEdgeStyle={&quot;curved&quot;:0,&quot;rounded&quot;:0};fillColor=#fff2cc;strokeColor=#d6b656;" parent="8gD0zJ5MJaZhwJnVWQyT-1" vertex="1">
          <mxGeometry x="741.5" y="576" width="10" height="90" as="geometry" />
        </mxCell>
        <mxCell id="Yi7-Kp4Rc9WaveixJUum-5" value="&lt;div&gt;Handles&lt;/div&gt;Move" style="html=1;align=left;spacingLeft=2;endArrow=block;rounded=0;edgeStyle=orthogonalEdgeStyle;curved=0;rounded=0;" parent="8gD0zJ5MJaZhwJnVWQyT-1" edge="1">
          <mxGeometry x="0.092" relative="1" as="geometry">
            <mxPoint x="751.5" y="603" as="sourcePoint" />
            <Array as="points">
              <mxPoint x="778" y="603" />
              <mxPoint x="778" y="631" />
              <mxPoint x="752" y="631" />
            </Array>
            <mxPoint x="750" y="631" as="targetPoint" />
            <mxPoint as="offset" />
          </mxGeometry>
        </mxCell>
        <mxCell id="Yi7-Kp4Rc9WaveixJUum-6" value="Success" style="shape=umlFrame;whiteSpace=wrap;html=1;pointerEvents=0;width=64;height=30;fontSize=11;fillColor=#d5e8d4;strokeColor=#82b366;" parent="8gD0zJ5MJaZhwJnVWQyT-1" vertex="1">
          <mxGeometry x="366" y="566" width="485" height="110" as="geometry" />
        </mxCell>
        <mxCell id="Yi7-Kp4Rc9WaveixJUum-7" value="&lt;div&gt;Makes&lt;/div&gt;&lt;div&gt;a Move&lt;br&gt;&lt;/div&gt;" style="text;html=1;align=center;verticalAlign=middle;whiteSpace=wrap;rounded=0;fontSize=11;" parent="8gD0zJ5MJaZhwJnVWQyT-1" vertex="1">
          <mxGeometry x="368" y="518" width="59" height="31" as="geometry" />
        </mxCell>
        <mxCell id="Yi7-Kp4Rc9WaveixJUum-8" value="" style="html=1;points=[[0,0,0,0,5],[0,1,0,0,-5],[1,0,0,0,5],[1,1,0,0,-5]];perimeter=orthogonalPerimeter;outlineConnect=0;targetShapes=umlLifeline;portConstraint=eastwest;newEdgeStyle={&quot;curved&quot;:0,&quot;rounded&quot;:0};fillColor=#fff2cc;strokeColor=#d6b656;" parent="8gD0zJ5MJaZhwJnVWQyT-1" vertex="1">
          <mxGeometry x="452.5" y="544" width="10" height="122" as="geometry" />
        </mxCell>
        <mxCell id="I4ZeYCnuzV1yjJRYJYXF-1" value="WebSocket Msg - WsCommand.moved" style="html=1;verticalAlign=bottom;endArrow=open;dashed=1;endSize=8;curved=0;rounded=0;exitX=1;exitY=1;exitDx=0;exitDy=-5;" parent="8gD0zJ5MJaZhwJnVWQyT-1" edge="1">
          <mxGeometry x="-0.0048" relative="1" as="geometry">
            <mxPoint x="1016.5" y="658.9999999999999" as="targetPoint" />
            <mxPoint x="753" y="659" as="sourcePoint" />
            <mxPoint as="offset" />
          </mxGeometry>
        </mxCell>
        <mxCell id="I4ZeYCnuzV1yjJRYJYXF-2" value="&lt;div&gt;Plays&lt;/div&gt;&lt;div&gt;Move&lt;br&gt;&lt;/div&gt;" style="html=1;align=left;spacingLeft=2;endArrow=block;rounded=0;edgeStyle=orthogonalEdgeStyle;curved=0;rounded=0;" parent="8gD0zJ5MJaZhwJnVWQyT-1" edge="1">
          <mxGeometry x="0.092" relative="1" as="geometry">
            <mxPoint x="1024.54" y="676" as="sourcePoint" />
            <Array as="points">
              <mxPoint x="1051.04" y="676" />
              <mxPoint x="1051.04" y="704" />
              <mxPoint x="1025.04" y="704" />
            </Array>
            <mxPoint x="1023.04" y="704" as="targetPoint" />
            <mxPoint as="offset" />
          </mxGeometry>
        </mxCell>
        <mxCell id="wHOI2rQPH_dBNI3sS8p8-1" value="And goes on ..." style="text;html=1;align=center;verticalAlign=middle;whiteSpace=wrap;rounded=0;labelBackgroundColor=none;fillColor=#f5f5f5;strokeColor=#666666;fontColor=#333333;" parent="8gD0zJ5MJaZhwJnVWQyT-1" vertex="1">
          <mxGeometry x="851" y="766" width="150" height="30" as="geometry" />
        </mxCell>
        <mxCell id="wHOI2rQPH_dBNI3sS8p8-2" value="&lt;div&gt;Makes&lt;/div&gt;&lt;div&gt;a Move&lt;br&gt;&lt;/div&gt;" style="html=1;align=left;spacingLeft=2;endArrow=block;rounded=0;edgeStyle=orthogonalEdgeStyle;curved=0;rounded=0;" parent="8gD0zJ5MJaZhwJnVWQyT-1" edge="1">
          <mxGeometry x="0.1271" relative="1" as="geometry">
            <mxPoint x="1026.5" y="746" as="sourcePoint" />
            <Array as="points">
              <mxPoint x="1053" y="746" />
              <mxPoint x="1053" y="774" />
              <mxPoint x="1027" y="774" />
            </Array>
            <mxPoint x="1025" y="774" as="targetPoint" />
            <mxPoint as="offset" />
          </mxGeometry>
        </mxCell>
        <mxCell id="bhzaWgVcMWjI3X87n0z7-3" value="" style="html=1;align=left;spacingLeft=2;endArrow=block;rounded=0;edgeStyle=orthogonalEdgeStyle;curved=0;rounded=0;" parent="8gD0zJ5MJaZhwJnVWQyT-1" edge="1">
          <mxGeometry x="0.1068" y="4" relative="1" as="geometry">
            <mxPoint x="457" y="906" as="sourcePoint" />
            <Array as="points">
              <mxPoint x="424" y="906" />
              <mxPoint x="424" y="946" />
            </Array>
            <mxPoint x="453" y="946" as="targetPoint" />
            <mxPoint as="offset" />
          </mxGeometry>
        </mxCell>
        <mxCell id="bhzaWgVcMWjI3X87n0z7-4" value="&lt;div&gt;Offers &lt;br&gt;&lt;/div&gt;Undo" style="text;html=1;align=center;verticalAlign=middle;whiteSpace=wrap;rounded=0;fontSize=11;" parent="8gD0zJ5MJaZhwJnVWQyT-1" vertex="1">
          <mxGeometry x="368" y="910" width="59" height="31" as="geometry" />
        </mxCell>
        <mxCell id="p9AGo9bbudkZ_8akebkO-2" value="WebSocket Msg - WsCommand.undoOffered" style="html=1;verticalAlign=bottom;endArrow=block;curved=0;rounded=0;exitX=1;exitY=0;exitDx=0;exitDy=5;exitPerimeter=0;" parent="8gD0zJ5MJaZhwJnVWQyT-1" edge="1">
          <mxGeometry relative="1" as="geometry">
            <mxPoint x="462.5" y="954" as="sourcePoint" />
            <mxPoint x="741.4999999999998" y="954" as="targetPoint" />
          </mxGeometry>
        </mxCell>
        <mxCell id="p9AGo9bbudkZ_8akebkO-3" value="&lt;div&gt;Checks Offer,&amp;nbsp;&lt;/div&gt;&lt;div&gt;Starts Offer&amp;nbsp;&lt;/div&gt;&lt;div&gt;Cooldown&lt;br&gt;&lt;/div&gt;" style="html=1;align=left;spacingLeft=2;endArrow=block;rounded=0;edgeStyle=orthogonalEdgeStyle;curved=0;rounded=0;" parent="8gD0zJ5MJaZhwJnVWQyT-1" edge="1">
          <mxGeometry x="0.0972" relative="1" as="geometry">
            <mxPoint x="752.54" y="961" as="sourcePoint" />
            <Array as="points">
              <mxPoint x="779.04" y="961" />
              <mxPoint x="779.04" y="989" />
              <mxPoint x="753.04" y="989" />
            </Array>
            <mxPoint x="751.04" y="989" as="targetPoint" />
            <mxPoint as="offset" />
          </mxGeometry>
        </mxCell>
        <mxCell id="p9AGo9bbudkZ_8akebkO-5" value="WebSocket Msg - WsCommand.undoOffered" style="html=1;verticalAlign=bottom;endArrow=open;dashed=1;endSize=8;curved=0;rounded=0;exitX=1;exitY=1;exitDx=0;exitDy=-5;" parent="8gD0zJ5MJaZhwJnVWQyT-1" edge="1">
          <mxGeometry x="-0.0034" relative="1" as="geometry">
            <mxPoint x="1015" y="1023" as="targetPoint" />
            <mxPoint x="751.5" y="1023" as="sourcePoint" />
            <mxPoint as="offset" />
          </mxGeometry>
        </mxCell>
        <mxCell id="HC0XpfASCF0sQ5mTGvOr-1" value="" style="html=1;align=left;spacingLeft=2;endArrow=block;rounded=0;edgeStyle=orthogonalEdgeStyle;curved=0;rounded=0;" parent="8gD0zJ5MJaZhwJnVWQyT-1" edge="1">
          <mxGeometry x="0.1068" y="4" relative="1" as="geometry">
            <mxPoint x="452.5" y="1080" as="sourcePoint" />
            <Array as="points">
              <mxPoint x="420" y="1080" />
              <mxPoint x="420" y="1106" />
              <mxPoint x="449" y="1106" />
            </Array>
            <mxPoint x="449" y="1106" as="targetPoint" />
            <mxPoint as="offset" />
          </mxGeometry>
        </mxCell>
        <mxCell id="HC0XpfASCF0sQ5mTGvOr-2" value="&lt;div&gt;Cancels&lt;/div&gt;&lt;div&gt;the Offer&lt;br&gt;&lt;/div&gt;" style="text;html=1;align=center;verticalAlign=middle;whiteSpace=wrap;rounded=0;fontSize=11;" parent="8gD0zJ5MJaZhwJnVWQyT-1" vertex="1">
          <mxGeometry x="363.5" y="1079" width="59" height="31" as="geometry" />
        </mxCell>
        <mxCell id="HC0XpfASCF0sQ5mTGvOr-4" value="WebSocket Msg - WsCommand.offerCanceled" style="html=1;verticalAlign=bottom;endArrow=block;curved=0;rounded=0;exitX=1;exitY=0;exitDx=0;exitDy=5;exitPerimeter=0;" parent="8gD0zJ5MJaZhwJnVWQyT-1" edge="1">
          <mxGeometry x="0.0036" relative="1" as="geometry">
            <mxPoint x="461.5" y="1127" as="sourcePoint" />
            <mxPoint x="740.4999999999998" y="1127" as="targetPoint" />
            <mxPoint as="offset" />
          </mxGeometry>
        </mxCell>
        <mxCell id="HC0XpfASCF0sQ5mTGvOr-6" value="&lt;div&gt;Clears Offer&amp;nbsp;&lt;/div&gt;&lt;div&gt;and Cooldown&lt;br&gt;&lt;/div&gt;" style="html=1;align=left;spacingLeft=2;endArrow=block;rounded=0;edgeStyle=orthogonalEdgeStyle;curved=0;rounded=0;" parent="8gD0zJ5MJaZhwJnVWQyT-1" edge="1">
          <mxGeometry x="0.092" relative="1" as="geometry">
            <mxPoint x="753.54" y="1136" as="sourcePoint" />
            <Array as="points">
              <mxPoint x="780.04" y="1136" />
              <mxPoint x="780.04" y="1164" />
              <mxPoint x="754.04" y="1164" />
            </Array>
            <mxPoint x="752.04" y="1164" as="targetPoint" />
            <mxPoint as="offset" />
          </mxGeometry>
        </mxCell>
        <mxCell id="HC0XpfASCF0sQ5mTGvOr-7" value="WebSocket Msg - WsCommand.offerCanceled" style="html=1;verticalAlign=bottom;endArrow=open;dashed=1;endSize=8;curved=0;rounded=0;exitX=1;exitY=1;exitDx=0;exitDy=-5;" parent="8gD0zJ5MJaZhwJnVWQyT-1" edge="1">
          <mxGeometry x="-0.0034" relative="1" as="geometry">
            <mxPoint x="1015" y="1199" as="targetPoint" />
            <mxPoint x="751.5" y="1199" as="sourcePoint" />
            <mxPoint as="offset" />
          </mxGeometry>
        </mxCell>
        <mxCell id="HC0XpfASCF0sQ5mTGvOr-11" value="&lt;div&gt;Declines&lt;/div&gt;&lt;div&gt;Offer&lt;br&gt;&lt;/div&gt;" style="html=1;align=left;spacingLeft=2;endArrow=block;rounded=0;edgeStyle=orthogonalEdgeStyle;curved=0;rounded=0;" parent="8gD0zJ5MJaZhwJnVWQyT-1" edge="1">
          <mxGeometry x="0.0972" relative="1" as="geometry">
            <mxPoint x="1026.5" y="1246.05" as="sourcePoint" />
            <Array as="points">
              <mxPoint x="1053" y="1246.05" />
              <mxPoint x="1053" y="1274.05" />
              <mxPoint x="1027" y="1274.05" />
            </Array>
            <mxPoint x="1025" y="1274.05" as="targetPoint" />
            <mxPoint as="offset" />
          </mxGeometry>
        </mxCell>
        <mxCell id="k74nLwuuPOiQjtjh8blr-1" value="WebSocket Msg - WsCommand.offerDeclined" style="html=1;verticalAlign=bottom;endArrow=block;curved=0;rounded=0;entryX=1;entryY=0;entryDx=0;entryDy=5;exitX=0;exitY=0;exitDx=0;exitDy=5;exitPerimeter=0;" parent="8gD0zJ5MJaZhwJnVWQyT-1" edge="1">
          <mxGeometry x="-0.0021" relative="1" as="geometry">
            <mxPoint x="1015.5" y="1292" as="sourcePoint" />
            <mxPoint x="751.5000000000002" y="1292" as="targetPoint" />
            <mxPoint as="offset" />
          </mxGeometry>
        </mxCell>
        <mxCell id="zNXm47KKZmkOaIkFy_To-1" value="" style="html=1;align=left;spacingLeft=2;endArrow=block;rounded=0;edgeStyle=orthogonalEdgeStyle;curved=0;rounded=0;" parent="8gD0zJ5MJaZhwJnVWQyT-1" edge="1">
          <mxGeometry x="0.1068" y="4" relative="1" as="geometry">
            <mxPoint x="741.5" y="1302" as="sourcePoint" />
            <Array as="points">
              <mxPoint x="709" y="1302" />
              <mxPoint x="709" y="1328" />
              <mxPoint x="738" y="1328" />
            </Array>
            <mxPoint x="738" y="1328" as="targetPoint" />
            <mxPoint as="offset" />
          </mxGeometry>
        </mxCell>
        <mxCell id="zNXm47KKZmkOaIkFy_To-2" value="&lt;div&gt;Clears Offer and Cooldown&lt;br&gt;&lt;/div&gt;" style="text;html=1;align=center;verticalAlign=middle;whiteSpace=wrap;rounded=0;fontSize=11;" parent="8gD0zJ5MJaZhwJnVWQyT-1" vertex="1">
          <mxGeometry x="652.5" y="1300" width="59" height="31" as="geometry" />
        </mxCell>
        <mxCell id="zNXm47KKZmkOaIkFy_To-3" value="WebSocket Msg - WsCommand.offerDeclined" style="html=1;verticalAlign=bottom;endArrow=open;dashed=1;endSize=8;curved=0;rounded=0;exitX=0;exitY=1;exitDx=0;exitDy=-5;entryX=1;entryY=1;entryDx=0;entryDy=-5;entryPerimeter=0;" parent="8gD0zJ5MJaZhwJnVWQyT-1" edge="1">
          <mxGeometry x="0.0036" relative="1" as="geometry">
            <mxPoint x="460.5" y="1363" as="targetPoint" />
            <mxPoint x="739.5000000000002" y="1363" as="sourcePoint" />
            <mxPoint as="offset" />
          </mxGeometry>
        </mxCell>
        <mxCell id="zNXm47KKZmkOaIkFy_To-5" value="&lt;div&gt;Accepts&lt;/div&gt;&lt;div&gt;Offer&lt;br&gt;&lt;/div&gt;" style="html=1;align=left;spacingLeft=2;endArrow=block;rounded=0;edgeStyle=orthogonalEdgeStyle;curved=0;rounded=0;" parent="8gD0zJ5MJaZhwJnVWQyT-1" edge="1">
          <mxGeometry x="0.0972" relative="1" as="geometry">
            <mxPoint x="1025.5" y="1439.05" as="sourcePoint" />
            <Array as="points">
              <mxPoint x="1052" y="1439.05" />
              <mxPoint x="1052" y="1467.05" />
              <mxPoint x="1026" y="1467.05" />
            </Array>
            <mxPoint x="1024" y="1467.05" as="targetPoint" />
            <mxPoint as="offset" />
          </mxGeometry>
        </mxCell>
        <mxCell id="zNXm47KKZmkOaIkFy_To-6" value="WebSocket Msg - WsCommand.undoAccepted" style="html=1;verticalAlign=bottom;endArrow=block;curved=0;rounded=0;entryX=1;entryY=0;entryDx=0;entryDy=5;exitX=0;exitY=0;exitDx=0;exitDy=5;exitPerimeter=0;" parent="8gD0zJ5MJaZhwJnVWQyT-1" edge="1">
          <mxGeometry x="-0.0021" relative="1" as="geometry">
            <mxPoint x="1015.5" y="1486" as="sourcePoint" />
            <mxPoint x="751.5000000000002" y="1486" as="targetPoint" />
            <mxPoint as="offset" />
          </mxGeometry>
        </mxCell>
        <mxCell id="zNXm47KKZmkOaIkFy_To-10" value="" style="html=1;align=left;spacingLeft=2;endArrow=block;rounded=0;edgeStyle=orthogonalEdgeStyle;curved=0;rounded=0;" parent="8gD0zJ5MJaZhwJnVWQyT-1" edge="1">
          <mxGeometry x="0.1068" y="4" relative="1" as="geometry">
            <mxPoint x="741.5" y="1495.5" as="sourcePoint" />
            <Array as="points">
              <mxPoint x="709" y="1496" />
              <mxPoint x="709" y="1536" />
              <mxPoint x="738" y="1536" />
            </Array>
            <mxPoint x="738" y="1536" as="targetPoint" />
            <mxPoint as="offset" />
          </mxGeometry>
        </mxCell>
        <mxCell id="zNXm47KKZmkOaIkFy_To-11" value="&lt;div&gt;Undo Move on Engine,&lt;/div&gt;&lt;div&gt;Clears Offer and Cooldown&lt;/div&gt;" style="text;html=1;align=center;verticalAlign=middle;whiteSpace=wrap;rounded=0;fontSize=11;" parent="8gD0zJ5MJaZhwJnVWQyT-1" vertex="1">
          <mxGeometry x="647.5" y="1500.5" width="59" height="31" as="geometry" />
        </mxCell>
        <mxCell id="We8XIiCY7t0F33VNIHFe-2" value="WebSocket Msg - WsCommand.undoAccepted" style="html=1;verticalAlign=bottom;endArrow=open;dashed=1;endSize=8;curved=0;rounded=0;exitX=0;exitY=1;exitDx=0;exitDy=-5;entryX=1;entryY=1;entryDx=0;entryDy=-5;entryPerimeter=0;" parent="8gD0zJ5MJaZhwJnVWQyT-1" edge="1">
          <mxGeometry x="0.0036" relative="1" as="geometry">
            <mxPoint x="461.5" y="1576" as="targetPoint" />
            <mxPoint x="740.5000000000002" y="1576" as="sourcePoint" />
            <mxPoint as="offset" />
          </mxGeometry>
        </mxCell>
        <mxCell id="We8XIiCY7t0F33VNIHFe-4" value="" style="html=1;align=left;spacingLeft=2;endArrow=block;rounded=0;edgeStyle=orthogonalEdgeStyle;curved=0;rounded=0;" parent="8gD0zJ5MJaZhwJnVWQyT-1" edge="1">
          <mxGeometry x="0.1068" y="4" relative="1" as="geometry">
            <mxPoint x="452.5" y="1582" as="sourcePoint" />
            <Array as="points">
              <mxPoint x="420" y="1582" />
              <mxPoint x="420" y="1626" />
              <mxPoint x="449" y="1626" />
            </Array>
            <mxPoint x="449" y="1626" as="targetPoint" />
            <mxPoint as="offset" />
          </mxGeometry>
        </mxCell>
        <mxCell id="We8XIiCY7t0F33VNIHFe-5" value="&lt;div&gt;Undo Move&lt;br&gt;&lt;/div&gt;&amp;nbsp;with Incoming Data" style="text;html=1;align=center;verticalAlign=middle;whiteSpace=wrap;rounded=0;fontSize=11;" parent="8gD0zJ5MJaZhwJnVWQyT-1" vertex="1">
          <mxGeometry x="357.5" y="1590" width="59" height="31" as="geometry" />
        </mxCell>
        <mxCell id="WaaN7NDQw3E7y6FlTPSZ-1" value="&lt;div&gt;Undo Move&lt;/div&gt;&lt;div&gt;with Incoming&lt;/div&gt;&lt;div&gt;Data&lt;br&gt;&lt;/div&gt;" style="html=1;align=left;spacingLeft=2;endArrow=block;rounded=0;edgeStyle=orthogonalEdgeStyle;curved=0;rounded=0;" parent="8gD0zJ5MJaZhwJnVWQyT-1" edge="1">
          <mxGeometry x="0.0972" relative="1" as="geometry">
            <mxPoint x="1025.5" y="1500.55" as="sourcePoint" />
            <Array as="points">
              <mxPoint x="1052" y="1500.55" />
              <mxPoint x="1052" y="1528.55" />
              <mxPoint x="1026" y="1528.55" />
            </Array>
            <mxPoint x="1024" y="1528.55" as="targetPoint" />
            <mxPoint as="offset" />
          </mxGeometry>
        </mxCell>
        <mxCell id="WaaN7NDQw3E7y6FlTPSZ-2" value="Offering" style="shape=umlFrame;whiteSpace=wrap;html=1;pointerEvents=0;width=70;height=30;fillColor=#dae8fc;strokeColor=#6c8ebf;" parent="8gD0zJ5MJaZhwJnVWQyT-1" vertex="1">
          <mxGeometry x="310" y="876" width="850" height="800" as="geometry" />
        </mxCell>
        <mxCell id="Qc4yjWYKXld9QJXoUerD-3" value="WebSocket Msg - WsCommand.moved" style="html=1;verticalAlign=bottom;endArrow=block;curved=0;rounded=0;exitX=1;exitY=0;exitDx=0;exitDy=5;exitPerimeter=0;" parent="8gD0zJ5MJaZhwJnVWQyT-1" edge="1">
          <mxGeometry relative="1" as="geometry">
            <mxPoint x="462.5" y="1812" as="sourcePoint" />
            <mxPoint x="741.4999999999998" y="1812" as="targetPoint" />
          </mxGeometry>
        </mxCell>
        <mxCell id="Qc4yjWYKXld9QJXoUerD-4" value="" style="html=1;align=left;spacingLeft=2;endArrow=block;rounded=0;edgeStyle=orthogonalEdgeStyle;curved=0;rounded=0;" parent="8gD0zJ5MJaZhwJnVWQyT-1" edge="1">
          <mxGeometry x="0.1068" y="4" relative="1" as="geometry">
            <mxPoint x="457" y="1746" as="sourcePoint" />
            <Array as="points">
              <mxPoint x="457" y="1746" />
              <mxPoint x="424" y="1746" />
              <mxPoint x="424" y="1802" />
            </Array>
            <mxPoint x="453" y="1802" as="targetPoint" />
            <mxPoint as="offset" />
          </mxGeometry>
        </mxCell>
        <mxCell id="Qc4yjWYKXld9QJXoUerD-5" value="" style="html=1;points=[[0,0,0,0,5],[0,1,0,0,-5],[1,0,0,0,5],[1,1,0,0,-5]];perimeter=orthogonalPerimeter;outlineConnect=0;targetShapes=umlLifeline;portConstraint=eastwest;newEdgeStyle={&quot;curved&quot;:0,&quot;rounded&quot;:0};fillColor=#fff2cc;strokeColor=#d6b656;" parent="8gD0zJ5MJaZhwJnVWQyT-1" vertex="1">
          <mxGeometry x="741.5" y="1803" width="10" height="223" as="geometry" />
        </mxCell>
        <mxCell id="Qc4yjWYKXld9QJXoUerD-8" value="&lt;div&gt;Makes a&lt;/div&gt;&lt;div&gt;Move, Game&lt;/div&gt;&lt;div&gt;Finishes&lt;br&gt;&lt;/div&gt;" style="text;html=1;align=center;verticalAlign=middle;whiteSpace=wrap;rounded=0;fontSize=11;" parent="8gD0zJ5MJaZhwJnVWQyT-1" vertex="1">
          <mxGeometry x="368" y="1763" width="59" height="31" as="geometry" />
        </mxCell>
        <mxCell id="Qc4yjWYKXld9QJXoUerD-9" value="" style="html=1;points=[[0,0,0,0,5],[0,1,0,0,-5],[1,0,0,0,5],[1,1,0,0,-5]];perimeter=orthogonalPerimeter;outlineConnect=0;targetShapes=umlLifeline;portConstraint=eastwest;newEdgeStyle={&quot;curved&quot;:0,&quot;rounded&quot;:0};fillColor=#fff2cc;strokeColor=#d6b656;" parent="8gD0zJ5MJaZhwJnVWQyT-1" vertex="1">
          <mxGeometry x="452.5" y="1794" width="10" height="232" as="geometry" />
        </mxCell>
        <mxCell id="Qc4yjWYKXld9QJXoUerD-10" value="&lt;div&gt;Finishing&lt;/div&gt;&lt;div&gt;Game&lt;br&gt;&lt;/div&gt;" style="shape=umlFrame;whiteSpace=wrap;html=1;pointerEvents=0;width=80;height=42;fillColor=#dae8fc;strokeColor=#6c8ebf;" parent="8gD0zJ5MJaZhwJnVWQyT-1" vertex="1">
          <mxGeometry x="310" y="1694" width="850" height="372" as="geometry" />
        </mxCell>
        <mxCell id="Qc4yjWYKXld9QJXoUerD-11" value="" style="html=1;points=[[0,0,0,0,5],[0,1,0,0,-5],[1,0,0,0,5],[1,1,0,0,-5]];perimeter=orthogonalPerimeter;outlineConnect=0;targetShapes=umlLifeline;portConstraint=eastwest;newEdgeStyle={&quot;curved&quot;:0,&quot;rounded&quot;:0};fillColor=#fff2cc;strokeColor=#d6b656;" parent="8gD0zJ5MJaZhwJnVWQyT-1" vertex="1">
          <mxGeometry x="1015.5" y="1876" width="10" height="150" as="geometry" />
        </mxCell>
        <mxCell id="Qc4yjWYKXld9QJXoUerD-16" value="&lt;div&gt;Handles&lt;/div&gt;&lt;div&gt;Move, Game&lt;/div&gt;&lt;div&gt;Finishes&lt;br&gt;&lt;/div&gt;" style="html=1;align=left;spacingLeft=2;endArrow=block;rounded=0;edgeStyle=orthogonalEdgeStyle;curved=0;rounded=0;" parent="8gD0zJ5MJaZhwJnVWQyT-1" edge="1">
          <mxGeometry x="0.092" relative="1" as="geometry">
            <mxPoint x="752" y="1819.17" as="sourcePoint" />
            <Array as="points">
              <mxPoint x="778.5" y="1819.17" />
              <mxPoint x="778.5" y="1847.17" />
              <mxPoint x="752.5" y="1847.17" />
            </Array>
            <mxPoint x="750.5" y="1847.17" as="targetPoint" />
            <mxPoint as="offset" />
          </mxGeometry>
        </mxCell>
        <mxCell id="Qc4yjWYKXld9QJXoUerD-17" value="WebSocket Msg - WsCommand.moved" style="html=1;verticalAlign=bottom;endArrow=open;dashed=1;endSize=8;curved=0;rounded=0;exitX=1;exitY=1;exitDx=0;exitDy=-5;" parent="8gD0zJ5MJaZhwJnVWQyT-1" edge="1">
          <mxGeometry x="-0.0034" relative="1" as="geometry">
            <mxPoint x="1016" y="1884.17" as="targetPoint" />
            <mxPoint x="752.5" y="1884.17" as="sourcePoint" />
            <mxPoint as="offset" />
          </mxGeometry>
        </mxCell>
        <mxCell id="Qc4yjWYKXld9QJXoUerD-18" value="&lt;div&gt;Plays&lt;/div&gt;&lt;div&gt;Move, &lt;br&gt;&lt;/div&gt;&lt;div&gt;Game&amp;nbsp;&lt;/div&gt;&lt;div&gt;Finishes&lt;br&gt;&lt;/div&gt;" style="html=1;align=left;spacingLeft=2;endArrow=block;rounded=0;edgeStyle=orthogonalEdgeStyle;curved=0;rounded=0;" parent="8gD0zJ5MJaZhwJnVWQyT-1" edge="1">
          <mxGeometry x="0.092" relative="1" as="geometry">
            <mxPoint x="1027" y="1892" as="sourcePoint" />
            <Array as="points">
              <mxPoint x="1054" y="1892" />
              <mxPoint x="1054" y="1935" />
              <mxPoint x="1026" y="1935" />
            </Array>
            <mxPoint x="1026" y="1935" as="targetPoint" />
            <mxPoint as="offset" />
          </mxGeometry>
        </mxCell>
        <mxCell id="Qc4yjWYKXld9QJXoUerD-20" value="WebSocket Msg - WsCommand.finished" style="html=1;verticalAlign=bottom;endArrow=open;dashed=1;endSize=8;curved=0;rounded=0;exitX=1;exitY=1;exitDx=0;exitDy=-5;" parent="8gD0zJ5MJaZhwJnVWQyT-1" edge="1">
          <mxGeometry x="-0.0034" relative="1" as="geometry">
            <mxPoint x="1015.5" y="1956" as="targetPoint" />
            <mxPoint x="752" y="1956" as="sourcePoint" />
            <mxPoint as="offset" />
          </mxGeometry>
        </mxCell>
        <mxCell id="Qc4yjWYKXld9QJXoUerD-21" value="WebSocket Msg - WsCommand.finished" style="html=1;verticalAlign=bottom;endArrow=open;dashed=1;endSize=8;curved=0;rounded=0;exitX=0;exitY=1;exitDx=0;exitDy=-5;entryX=1;entryY=1;entryDx=0;entryDy=-5;entryPerimeter=0;" parent="8gD0zJ5MJaZhwJnVWQyT-1" edge="1">
          <mxGeometry x="0.0036" relative="1" as="geometry">
            <mxPoint x="462.5" y="1956" as="targetPoint" />
            <mxPoint x="741.5000000000002" y="1956" as="sourcePoint" />
            <mxPoint as="offset" />
          </mxGeometry>
        </mxCell>
        <mxCell id="Qc4yjWYKXld9QJXoUerD-22" value="&lt;div&gt;Resync Game&lt;/div&gt;&lt;div&gt;to Incoming Data&lt;/div&gt;&lt;div&gt;if it is Different&lt;br&gt;&lt;/div&gt;" style="html=1;align=left;spacingLeft=2;endArrow=block;rounded=0;edgeStyle=orthogonalEdgeStyle;curved=0;rounded=0;" parent="8gD0zJ5MJaZhwJnVWQyT-1" edge="1">
          <mxGeometry x="0.092" relative="1" as="geometry">
            <mxPoint x="1026.5" y="1966" as="sourcePoint" />
            <Array as="points">
              <mxPoint x="1053.5" y="1966" />
              <mxPoint x="1053.5" y="2009" />
              <mxPoint x="1025.5" y="2009" />
            </Array>
            <mxPoint x="1025.5" y="2009" as="targetPoint" />
            <mxPoint as="offset" />
          </mxGeometry>
        </mxCell>
        <mxCell id="Qc4yjWYKXld9QJXoUerD-25" value="" style="html=1;align=left;spacingLeft=2;endArrow=block;rounded=0;edgeStyle=orthogonalEdgeStyle;curved=0;rounded=0;" parent="8gD0zJ5MJaZhwJnVWQyT-1" edge="1">
          <mxGeometry x="0.1068" y="4" relative="1" as="geometry">
            <mxPoint x="452.5" y="1963" as="sourcePoint" />
            <Array as="points">
              <mxPoint x="452.5" y="1963" />
              <mxPoint x="419.5" y="1963" />
              <mxPoint x="419.5" y="2019" />
            </Array>
            <mxPoint x="448.5" y="2019" as="targetPoint" />
            <mxPoint as="offset" />
          </mxGeometry>
        </mxCell>
        <mxCell id="Qc4yjWYKXld9QJXoUerD-26" value="&lt;div&gt;Resync Game to Incoming Data if it is Different&lt;br&gt;&lt;/div&gt;" style="text;html=1;align=center;verticalAlign=middle;whiteSpace=wrap;rounded=0;fontSize=11;" parent="8gD0zJ5MJaZhwJnVWQyT-1" vertex="1">
          <mxGeometry x="358.5" y="1980" width="59" height="31" as="geometry" />
        </mxCell>
        <mxCell id="JaEbMZ_sN_cA4zG7KS4b-1" value="WebSocket Msg - WsCommand.started" style="html=1;verticalAlign=bottom;endArrow=open;dashed=1;endSize=8;curved=0;rounded=0;exitX=0;exitY=1;exitDx=0;exitDy=-5;entryX=1;entryY=1;entryDx=0;entryDy=-5;entryPerimeter=0;" parent="8gD0zJ5MJaZhwJnVWQyT-1" edge="1">
          <mxGeometry x="0.0036" relative="1" as="geometry">
            <mxPoint x="465" y="220.0000000000001" as="targetPoint" />
            <mxPoint x="744.0000000000002" y="220.0000000000001" as="sourcePoint" />
            <mxPoint as="offset" />
          </mxGeometry>
        </mxCell>
        <mxCell id="JaEbMZ_sN_cA4zG7KS4b-5" value="WebSocket Msg - WsCommand.started" style="html=1;verticalAlign=bottom;endArrow=open;dashed=1;endSize=8;curved=0;rounded=0;exitX=1;exitY=1;exitDx=0;exitDy=-5;" parent="8gD0zJ5MJaZhwJnVWQyT-1" edge="1">
          <mxGeometry x="-0.0048" relative="1" as="geometry">
            <mxPoint x="1012" y="219.9999999999999" as="targetPoint" />
            <mxPoint x="748.5" y="220" as="sourcePoint" />
            <mxPoint as="offset" />
          </mxGeometry>
        </mxCell>
        <mxCell id="p9AGo9bbudkZ_8akebkO-1" value="" style="html=1;points=[[0,0,0,0,5],[0,1,0,0,-5],[1,0,0,0,5],[1,1,0,0,-5]];perimeter=orthogonalPerimeter;outlineConnect=0;targetShapes=umlLifeline;portConstraint=eastwest;newEdgeStyle={&quot;curved&quot;:0,&quot;rounded&quot;:0};fillColor=#fff2cc;strokeColor=#d6b656;" parent="1" vertex="1">
          <mxGeometry x="581.5" y="1078" width="10" height="638" as="geometry" />
        </mxCell>
        <mxCell id="8gD0zJ5MJaZhwJnVWQyT-30" value="&lt;p style=&quot;margin:0px;margin-top:4px;text-align:center;&quot;&gt;&lt;i&gt;&amp;lt;&amp;lt;Interface&amp;gt;&amp;gt;&lt;/i&gt;&lt;br&gt;&lt;b&gt;WsMovedData&lt;/b&gt;&lt;/p&gt;&lt;hr size=&quot;1&quot; style=&quot;border-style:solid;&quot;&gt;&lt;p style=&quot;margin:0px;margin-left:4px;&quot;&gt;+ from: Square&lt;br&gt;+ to: Square&lt;br&gt;&lt;/p&gt;&lt;hr size=&quot;1&quot; style=&quot;border-style:solid;&quot;&gt;" style="verticalAlign=top;align=left;overflow=fill;html=1;whiteSpace=wrap;" parent="1" vertex="1">
          <mxGeometry x="-105" y="370" width="200" height="90" as="geometry" />
        </mxCell>
        <mxCell id="8gD0zJ5MJaZhwJnVWQyT-31" value="&lt;p style=&quot;margin:0px;margin-top:4px;text-align:center;&quot;&gt;&lt;i&gt;&amp;lt;&amp;lt;Interface&amp;gt;&amp;gt;&lt;/i&gt;&lt;br&gt;&lt;b&gt;WsUndoData&lt;/b&gt;&lt;/p&gt;&lt;hr size=&quot;1&quot; style=&quot;border-style:solid;&quot;&gt;&lt;p style=&quot;margin:0px;margin-left:4px;&quot;&gt;+ undoColor: Color&lt;br&gt;+ board: string&lt;/p&gt;&lt;hr size=&quot;1&quot; style=&quot;border-style:solid;&quot;&gt;" style="verticalAlign=top;align=left;overflow=fill;html=1;whiteSpace=wrap;" parent="1" vertex="1">
          <mxGeometry x="-105" y="478" width="200" height="90" as="geometry" />
        </mxCell>
        <mxCell id="8gD0zJ5MJaZhwJnVWQyT-32" value="&lt;p style=&quot;margin:0px;margin-top:4px;text-align:center;&quot;&gt;&lt;i&gt;&amp;lt;&amp;lt;Interface&amp;gt;&amp;gt;&lt;/i&gt;&lt;br&gt;&lt;b&gt;WsFinishedData&lt;/b&gt;&lt;/p&gt;&lt;hr size=&quot;1&quot; style=&quot;border-style:solid;&quot;&gt;&lt;p style=&quot;margin:0px;margin-left:4px;&quot;&gt;+ gameStatus: GameStatus&lt;br&gt;&lt;/p&gt;&lt;hr size=&quot;1&quot; style=&quot;border-style:solid;&quot;&gt;" style="verticalAlign=top;align=left;overflow=fill;html=1;whiteSpace=wrap;" parent="1" vertex="1">
          <mxGeometry x="-105" y="588" width="200" height="80" as="geometry" />
        </mxCell>
        <mxCell id="VAKQhWTYvK-64wE6uE9R-1" value="&lt;p style=&quot;margin:0px;margin-top:4px;text-align:center;&quot;&gt;&lt;i&gt;&amp;lt;&amp;lt;Interface&amp;gt;&amp;gt;&lt;/i&gt;&lt;br&gt;&lt;b&gt;WsStartedData&lt;/b&gt;&lt;/p&gt;&lt;hr size=&quot;1&quot; style=&quot;border-style:solid;&quot;&gt;&lt;p style=&quot;margin:0px;margin-left:4px;&quot;&gt;+ whitePlayer: PlayerWithoutToken&lt;br&gt;+ blackPlayer. PlayerWithoutToken&lt;br&gt;&lt;/p&gt;&lt;hr size=&quot;1&quot; style=&quot;border-style:solid;&quot;&gt;" style="verticalAlign=top;align=left;overflow=fill;html=1;whiteSpace=wrap;" parent="1" vertex="1">
          <mxGeometry x="-105" y="259" width="200" height="90" as="geometry" />
        </mxCell>
      </root>
    </mxGraphModel>
  </diagram>
  <diagram id="XgnJJkR3ACQcnl_-SbYX" name="Disconnection-Reconnection">
    <mxGraphModel dx="1590" dy="880" grid="1" gridSize="10" guides="1" tooltips="1" connect="1" arrows="1" fold="1" page="0" pageScale="1" pageWidth="850" pageHeight="1100" math="0" shadow="0">
      <root>
        <mxCell id="0" />
        <mxCell id="1" parent="0" />
        <mxCell id="_122mgHHi0J5CE1wqA7C-1" value="Disconnection - Reconnection" style="swimlane;" parent="1" vertex="1">
          <mxGeometry x="-80" y="130" width="1190" height="880" as="geometry" />
        </mxCell>
        <mxCell id="_122mgHHi0J5CE1wqA7C-2" value="" style="shape=umlLifeline;perimeter=lifelinePerimeter;whiteSpace=wrap;html=1;container=1;dropTarget=0;collapsible=0;recursiveResize=0;outlineConnect=0;portConstraint=eastwest;newEdgeStyle={&quot;curved&quot;:0,&quot;rounded&quot;:0};participant=umlActor;size=61;" parent="_122mgHHi0J5CE1wqA7C-1" vertex="1">
          <mxGeometry x="400" y="119" width="30" height="721" as="geometry" />
        </mxCell>
        <mxCell id="_122mgHHi0J5CE1wqA7C-4" value="&lt;div&gt;&lt;b&gt;«serve»&lt;/b&gt;&lt;/div&gt;&lt;div&gt;&lt;b&gt;Main&lt;/b&gt;&lt;br&gt;&lt;/div&gt;" style="shape=umlLifeline;perimeter=lifelinePerimeter;whiteSpace=wrap;html=1;container=1;dropTarget=0;collapsible=0;recursiveResize=0;outlineConnect=0;portConstraint=eastwest;newEdgeStyle={&quot;curved&quot;:0,&quot;rounded&quot;:0};" parent="_122mgHHi0J5CE1wqA7C-1" vertex="1">
          <mxGeometry x="654" y="117" width="100" height="723" as="geometry" />
        </mxCell>
        <mxCell id="_122mgHHi0J5CE1wqA7C-9" value="" style="shape=umlLifeline;perimeter=lifelinePerimeter;whiteSpace=wrap;html=1;container=1;dropTarget=0;collapsible=0;recursiveResize=0;outlineConnect=0;portConstraint=eastwest;newEdgeStyle={&quot;curved&quot;:0,&quot;rounded&quot;:0};participant=umlActor;size=61;" parent="_122mgHHi0J5CE1wqA7C-1" vertex="1">
          <mxGeometry x="963" y="119" width="30" height="720" as="geometry" />
        </mxCell>
        <mxCell id="_122mgHHi0J5CE1wqA7C-11" value="Does not includes, every property, methods, parameters, types or operations" style="text;align=center;fontStyle=1;verticalAlign=middle;spacingLeft=3;spacingRight=3;strokeColor=none;rotatable=0;points=[[0,0.5],[1,0.5]];portConstraint=eastwest;html=1;" parent="_122mgHHi0J5CE1wqA7C-1" vertex="1">
          <mxGeometry x="415" y="29" width="360" height="26" as="geometry" />
        </mxCell>
        <mxCell id="_122mgHHi0J5CE1wqA7C-12" value="&lt;p style=&quot;margin:0px;margin-top:4px;text-align:center;&quot;&gt;&lt;i&gt;&amp;lt;&amp;lt;Interface&amp;gt;&amp;gt;&lt;/i&gt;&lt;br&gt;&lt;b&gt;WsDisconnectedData&lt;/b&gt;&lt;/p&gt;&lt;hr size=&quot;1&quot; style=&quot;border-style:solid;&quot;&gt;&lt;p style=&quot;margin:0px;margin-left:4px;&quot;&gt;+ lobbyId: string&lt;br&gt;+ color: Color&lt;br&gt;&lt;/p&gt;&lt;hr size=&quot;1&quot; style=&quot;border-style:solid;&quot;&gt;" style="verticalAlign=top;align=left;overflow=fill;html=1;whiteSpace=wrap;" parent="_122mgHHi0J5CE1wqA7C-1" vertex="1">
          <mxGeometry x="42" y="180" width="200" height="90" as="geometry" />
        </mxCell>
        <mxCell id="_122mgHHi0J5CE1wqA7C-17" value="&lt;p style=&quot;margin:0px;margin-top:4px;text-align:center;&quot;&gt;&lt;i&gt;&amp;lt;&amp;lt;Interface&amp;gt;&amp;gt;&lt;/i&gt;&lt;br&gt;&lt;b&gt;ReconnectLobbyReqParams&lt;/b&gt;&lt;/p&gt;&lt;hr size=&quot;1&quot; style=&quot;border-style:solid;&quot;&gt;&lt;p style=&quot;margin:0px;margin-left:4px;&quot;&gt;+ lobbyId: string&lt;br&gt;+ token: string&lt;/p&gt;&lt;hr size=&quot;1&quot; style=&quot;border-style:solid;&quot;&gt;" style="verticalAlign=top;align=left;overflow=fill;html=1;whiteSpace=wrap;" parent="_122mgHHi0J5CE1wqA7C-1" vertex="1">
          <mxGeometry x="42" y="287" width="200" height="90" as="geometry" />
        </mxCell>
        <mxCell id="Qd5D4EsR8PzMqpPYjZ-T-1" value="" style="html=1;points=[[0,0,0,0,5],[0,1,0,0,-5],[1,0,0,0,5],[1,1,0,0,-5]];perimeter=orthogonalPerimeter;outlineConnect=0;targetShapes=umlLifeline;portConstraint=eastwest;newEdgeStyle={&quot;curved&quot;:0,&quot;rounded&quot;:0};fillColor=#fff2cc;strokeColor=#d6b656;" parent="_122mgHHi0J5CE1wqA7C-1" vertex="1">
          <mxGeometry x="410" y="200" width="10" height="44" as="geometry" />
        </mxCell>
        <mxCell id="Qd5D4EsR8PzMqpPYjZ-T-2" value="&lt;b&gt;Player 1 / White Player &lt;/b&gt;" style="text;html=1;align=center;verticalAlign=middle;whiteSpace=wrap;rounded=0;" parent="_122mgHHi0J5CE1wqA7C-1" vertex="1">
          <mxGeometry x="346" y="80" width="140.5" height="30" as="geometry" />
        </mxCell>
        <mxCell id="Qd5D4EsR8PzMqpPYjZ-T-3" value="&lt;b&gt;Player 2 / Black Player&lt;br&gt;&lt;/b&gt;" style="text;html=1;align=center;verticalAlign=middle;whiteSpace=wrap;rounded=0;" parent="_122mgHHi0J5CE1wqA7C-1" vertex="1">
          <mxGeometry x="911.5" y="82" width="133" height="30" as="geometry" />
        </mxCell>
        <mxCell id="Qd5D4EsR8PzMqpPYjZ-T-4" value="Server" style="text;html=1;align=center;verticalAlign=middle;whiteSpace=wrap;rounded=0;fontStyle=1" parent="_122mgHHi0J5CE1wqA7C-1" vertex="1">
          <mxGeometry x="674" y="82" width="60" height="30" as="geometry" />
        </mxCell>
        <mxCell id="Qd5D4EsR8PzMqpPYjZ-T-5" value="" style="html=1;points=[[0,0,0,0,5],[0,1,0,0,-5],[1,0,0,0,5],[1,1,0,0,-5]];perimeter=orthogonalPerimeter;outlineConnect=0;targetShapes=umlLifeline;portConstraint=eastwest;newEdgeStyle={&quot;curved&quot;:0,&quot;rounded&quot;:0};fillColor=#fff2cc;strokeColor=#d6b656;" parent="_122mgHHi0J5CE1wqA7C-1" vertex="1">
          <mxGeometry x="973" y="200" width="10" height="44" as="geometry" />
        </mxCell>
        <mxCell id="Qd5D4EsR8PzMqpPYjZ-T-6" value="WebSocket Msg - WsCommand.started" style="html=1;verticalAlign=bottom;endArrow=open;dashed=1;endSize=8;curved=0;rounded=0;exitX=0;exitY=1;exitDx=0;exitDy=-5;entryX=1;entryY=1;entryDx=0;entryDy=-5;entryPerimeter=0;" parent="_122mgHHi0J5CE1wqA7C-1" edge="1">
          <mxGeometry x="0.0036" relative="1" as="geometry">
            <mxPoint x="422.5" y="220.0000000000001" as="targetPoint" />
            <mxPoint x="701.5000000000002" y="220.0000000000001" as="sourcePoint" />
            <mxPoint as="offset" />
          </mxGeometry>
        </mxCell>
        <mxCell id="Qd5D4EsR8PzMqpPYjZ-T-7" value="WebSocket Msg - WsCommand.started" style="html=1;verticalAlign=bottom;endArrow=open;dashed=1;endSize=8;curved=0;rounded=0;exitX=1;exitY=1;exitDx=0;exitDy=-5;" parent="_122mgHHi0J5CE1wqA7C-1" edge="1">
          <mxGeometry x="-0.0048" relative="1" as="geometry">
            <mxPoint x="969.5" y="219.9999999999999" as="targetPoint" />
            <mxPoint x="706" y="220" as="sourcePoint" />
            <mxPoint as="offset" />
          </mxGeometry>
        </mxCell>
        <mxCell id="k7m6J29GGPbBdgBv-FCm-1" value="Ongoing game" style="text;html=1;align=center;verticalAlign=middle;whiteSpace=wrap;rounded=0;labelBackgroundColor=none;fillColor=#f5f5f5;strokeColor=#666666;fontColor=#333333;" parent="_122mgHHi0J5CE1wqA7C-1" vertex="1">
          <mxGeometry x="629" y="255" width="150" height="30" as="geometry" />
        </mxCell>
        <mxCell id="5U6TFiHNg7RlFZfMuBse-4" value="Disconnection" style="shape=umlFrame;whiteSpace=wrap;html=1;pointerEvents=0;fontSize=11;width=80;height=31;fillColor=#dae8fc;strokeColor=#6c8ebf;" parent="_122mgHHi0J5CE1wqA7C-1" vertex="1">
          <mxGeometry x="295" y="309" width="821" height="211" as="geometry" />
        </mxCell>
        <mxCell id="5U6TFiHNg7RlFZfMuBse-5" value="Reconnection" style="shape=umlFrame;whiteSpace=wrap;html=1;pointerEvents=0;fontSize=11;width=80;height=31;fillColor=#dae8fc;strokeColor=#6c8ebf;" parent="_122mgHHi0J5CE1wqA7C-1" vertex="1">
          <mxGeometry x="295" y="539.5" width="821" height="310.5" as="geometry" />
        </mxCell>
        <mxCell id="CyqTYSSPb8y_qlc55ghb-1" value="" style="html=1;align=left;spacingLeft=2;endArrow=block;rounded=0;edgeStyle=orthogonalEdgeStyle;curved=0;rounded=0;" parent="_122mgHHi0J5CE1wqA7C-1" edge="1">
          <mxGeometry x="0.1068" y="4" relative="1" as="geometry">
            <mxPoint x="414" y="592" as="sourcePoint" />
            <Array as="points">
              <mxPoint x="381" y="592" />
              <mxPoint x="381" y="632" />
            </Array>
            <mxPoint x="410" y="632" as="targetPoint" />
            <mxPoint as="offset" />
          </mxGeometry>
        </mxCell>
        <mxCell id="CyqTYSSPb8y_qlc55ghb-2" value="&lt;div&gt;Connection&lt;/div&gt;&lt;div&gt;Loaded from&lt;/div&gt;&lt;div&gt;Local Storage&lt;br&gt;&lt;/div&gt;" style="text;html=1;align=center;verticalAlign=middle;whiteSpace=wrap;rounded=0;fontSize=11;" parent="_122mgHHi0J5CE1wqA7C-1" vertex="1">
          <mxGeometry x="319" y="599" width="59" height="31" as="geometry" />
        </mxCell>
        <mxCell id="fuMo1TxEkXK_UXu4sLWd-1" value="" style="html=1;points=[[0,0,0,0,5],[0,1,0,0,-5],[1,0,0,0,5],[1,1,0,0,-5]];perimeter=orthogonalPerimeter;outlineConnect=0;targetShapes=umlLifeline;portConstraint=eastwest;newEdgeStyle={&quot;curved&quot;:0,&quot;rounded&quot;:0};fillColor=#fff2cc;strokeColor=#d6b656;" parent="_122mgHHi0J5CE1wqA7C-1" vertex="1">
          <mxGeometry x="410" y="628" width="10" height="142" as="geometry" />
        </mxCell>
        <mxCell id="fuMo1TxEkXK_UXu4sLWd-2" value="" style="html=1;points=[[0,0,0,0,5],[0,1,0,0,-5],[1,0,0,0,5],[1,1,0,0,-5]];perimeter=orthogonalPerimeter;outlineConnect=0;targetShapes=umlLifeline;portConstraint=eastwest;newEdgeStyle={&quot;curved&quot;:0,&quot;rounded&quot;:0};fillColor=#fff2cc;strokeColor=#d6b656;" parent="_122mgHHi0J5CE1wqA7C-1" vertex="1">
          <mxGeometry x="699" y="626" width="10" height="94" as="geometry" />
        </mxCell>
        <mxCell id="fuMo1TxEkXK_UXu4sLWd-3" value="&lt;div&gt;Handles&lt;/div&gt;&lt;div&gt;Reconnection&lt;br&gt;&lt;/div&gt;" style="html=1;align=left;spacingLeft=2;endArrow=block;rounded=0;edgeStyle=orthogonalEdgeStyle;curved=0;rounded=0;" parent="_122mgHHi0J5CE1wqA7C-1" edge="1">
          <mxGeometry x="0.0909" relative="1" as="geometry">
            <mxPoint x="710.5" y="650" as="sourcePoint" />
            <Array as="points">
              <mxPoint x="737" y="650" />
              <mxPoint x="737" y="678" />
              <mxPoint x="711" y="678" />
            </Array>
            <mxPoint x="709" y="678" as="targetPoint" />
            <mxPoint as="offset" />
          </mxGeometry>
        </mxCell>
        <mxCell id="fuMo1TxEkXK_UXu4sLWd-4" value="WebSocket Msg - WsCommand.reconnected" style="html=1;verticalAlign=bottom;endArrow=open;dashed=1;endSize=8;curved=0;rounded=0;exitX=1;exitY=1;exitDx=0;exitDy=-5;" parent="_122mgHHi0J5CE1wqA7C-1" edge="1">
          <mxGeometry x="-0.007" relative="1" as="geometry">
            <mxPoint x="974" y="710" as="targetPoint" />
            <mxPoint x="710.5" y="710" as="sourcePoint" />
            <mxPoint as="offset" />
          </mxGeometry>
        </mxCell>
        <mxCell id="fuMo1TxEkXK_UXu4sLWd-5" value="" style="html=1;points=[[0,0,0,0,5],[0,1,0,0,-5],[1,0,0,0,5],[1,1,0,0,-5]];perimeter=orthogonalPerimeter;outlineConnect=0;targetShapes=umlLifeline;portConstraint=eastwest;newEdgeStyle={&quot;curved&quot;:0,&quot;rounded&quot;:0};fillColor=#fff2cc;strokeColor=#d6b656;" parent="_122mgHHi0J5CE1wqA7C-1" vertex="1">
          <mxGeometry x="973" y="700" width="10" height="66" as="geometry" />
        </mxCell>
        <mxCell id="fuMo1TxEkXK_UXu4sLWd-6" value="&lt;div&gt;Updates&lt;/div&gt;&lt;div&gt;Opponent&#39;s&lt;/div&gt;&lt;div&gt;Online Status&lt;br&gt;&lt;/div&gt;" style="html=1;align=left;spacingLeft=2;endArrow=block;rounded=0;edgeStyle=orthogonalEdgeStyle;curved=0;rounded=0;" parent="_122mgHHi0J5CE1wqA7C-1" edge="1">
          <mxGeometry x="0.0909" relative="1" as="geometry">
            <mxPoint x="984.5" y="720" as="sourcePoint" />
            <Array as="points">
              <mxPoint x="1011" y="720" />
              <mxPoint x="1011" y="748" />
              <mxPoint x="985" y="748" />
            </Array>
            <mxPoint x="983" y="748" as="targetPoint" />
            <mxPoint as="offset" />
          </mxGeometry>
        </mxCell>
        <mxCell id="fuMo1TxEkXK_UXu4sLWd-7" value="WebSocket Msg - WsCommand.started" style="html=1;verticalAlign=bottom;endArrow=open;dashed=1;endSize=8;curved=0;rounded=0;exitX=0;exitY=1;exitDx=0;exitDy=-5;entryX=1;entryY=1;entryDx=0;entryDy=-5;entryPerimeter=0;" parent="_122mgHHi0J5CE1wqA7C-1" edge="1">
          <mxGeometry x="0.0036" relative="1" as="geometry">
            <mxPoint x="420" y="710.0000000000001" as="targetPoint" />
            <mxPoint x="699.0000000000002" y="710.0000000000001" as="sourcePoint" />
            <mxPoint as="offset" />
          </mxGeometry>
        </mxCell>
        <mxCell id="0XDnIAaDKVrj4rUyTuFn-1" value="" style="html=1;align=left;spacingLeft=2;endArrow=block;rounded=0;edgeStyle=orthogonalEdgeStyle;curved=0;rounded=0;" parent="_122mgHHi0J5CE1wqA7C-1" edge="1">
          <mxGeometry x="0.1068" y="4" relative="1" as="geometry">
            <mxPoint x="409" y="718" as="sourcePoint" />
            <Array as="points">
              <mxPoint x="382" y="718" />
              <mxPoint x="382" y="758" />
            </Array>
            <mxPoint x="402" y="758" as="targetPoint" />
            <mxPoint as="offset" />
          </mxGeometry>
        </mxCell>
        <mxCell id="0XDnIAaDKVrj4rUyTuFn-2" value="&lt;div align=&quot;center&quot;&gt;Creates Game&lt;/div&gt;&lt;div align=&quot;center&quot;&gt;with&amp;nbsp;&lt;/div&gt;&lt;div align=&quot;center&quot;&gt;Incoming&amp;nbsp;&lt;/div&gt;&lt;div align=&quot;center&quot;&gt;Data&lt;br&gt;&lt;/div&gt;&lt;div align=&quot;center&quot;&gt;&lt;br&gt;&lt;br&gt;&lt;/div&gt;" style="text;html=1;align=center;verticalAlign=middle;whiteSpace=wrap;rounded=0;fontSize=11;" parent="_122mgHHi0J5CE1wqA7C-1" vertex="1">
          <mxGeometry x="299" y="742" width="84" height="31" as="geometry" />
        </mxCell>
        <mxCell id="0XDnIAaDKVrj4rUyTuFn-4" value="WebSocket Conn Init - ReconnectLobbyReqParams" style="html=1;verticalAlign=bottom;endArrow=block;curved=0;rounded=0;exitX=1;exitY=0;exitDx=0;exitDy=5;exitPerimeter=0;" parent="_122mgHHi0J5CE1wqA7C-1" edge="1">
          <mxGeometry relative="1" as="geometry">
            <mxPoint x="420" y="642" as="sourcePoint" />
            <mxPoint x="698.9999999999998" y="642" as="targetPoint" />
          </mxGeometry>
        </mxCell>
        <mxCell id="HZb0-TDiQod-62g-pnoy-1" value="&lt;p style=&quot;margin:0px;margin-top:4px;text-align:center;&quot;&gt;&lt;i&gt;&amp;lt;&amp;lt;Interface&amp;gt;&amp;gt;&lt;/i&gt;&lt;br&gt;&lt;b&gt;WsReconnectedData&lt;/b&gt;&lt;/p&gt;&lt;hr size=&quot;1&quot; style=&quot;border-style:solid;&quot;&gt;&lt;p style=&quot;margin:0px;margin-left:4px;&quot;&gt;+ lobbyId: string&lt;br&gt;+ color: Color&lt;br&gt;&lt;/p&gt;&lt;hr size=&quot;1&quot; style=&quot;border-style:solid;&quot;&gt;" style="verticalAlign=top;align=left;overflow=fill;html=1;whiteSpace=wrap;" parent="_122mgHHi0J5CE1wqA7C-1" vertex="1">
          <mxGeometry x="42" y="395" width="200" height="90" as="geometry" />
        </mxCell>
        <mxCell id="Ye3Gahciq7rlwuufYWlo-1" value="&lt;p style=&quot;margin:0px;margin-top:4px;text-align:center;&quot;&gt;&lt;i&gt;&amp;lt;&amp;lt;Interface&amp;gt;&amp;gt;&lt;/i&gt;&lt;br&gt;&lt;b&gt;WsStartedData&lt;/b&gt;&lt;/p&gt;&lt;hr size=&quot;1&quot; style=&quot;border-style:solid;&quot;&gt;&lt;p style=&quot;margin:0px;margin-left:4px;&quot;&gt;+ whitePlayer: PlayerWithoutToken&lt;br&gt;+ blackPlayer. PlayerWithoutToken&lt;br&gt;&lt;/p&gt;&lt;hr size=&quot;1&quot; style=&quot;border-style:solid;&quot;&gt;" style="verticalAlign=top;align=left;overflow=fill;html=1;whiteSpace=wrap;" parent="_122mgHHi0J5CE1wqA7C-1" vertex="1">
          <mxGeometry x="42" y="77" width="200" height="90" as="geometry" />
        </mxCell>
        <mxCell id="m9xjBAddC_182793_3iL-2" value="" style="html=1;points=[[0,0,0,0,5],[0,1,0,0,-5],[1,0,0,0,5],[1,1,0,0,-5]];perimeter=orthogonalPerimeter;outlineConnect=0;targetShapes=umlLifeline;portConstraint=eastwest;newEdgeStyle={&quot;curved&quot;:0,&quot;rounded&quot;:0};fillColor=#fff2cc;strokeColor=#d6b656;" parent="1" vertex="1">
          <mxGeometry x="329" y="483" width="10" height="44" as="geometry" />
        </mxCell>
        <mxCell id="m9xjBAddC_182793_3iL-1" value="" style="html=1;points=[[0,0,0,0,5],[0,1,0,0,-5],[1,0,0,0,5],[1,1,0,0,-5]];perimeter=orthogonalPerimeter;outlineConnect=0;targetShapes=umlLifeline;portConstraint=eastwest;newEdgeStyle={&quot;curved&quot;:0,&quot;rounded&quot;:0};fillColor=#fff2cc;strokeColor=#d6b656;" parent="1" vertex="1">
          <mxGeometry x="618" y="485" width="10" height="100" as="geometry" />
        </mxCell>
        <mxCell id="82Ek-WftcgXc6vQRsVWP-2" value="" style="html=1;points=[[0,0,0,0,5],[0,1,0,0,-5],[1,0,0,0,5],[1,1,0,0,-5]];perimeter=orthogonalPerimeter;outlineConnect=0;targetShapes=umlLifeline;portConstraint=eastwest;newEdgeStyle={&quot;curved&quot;:0,&quot;rounded&quot;:0};fillColor=#fff2cc;strokeColor=#d6b656;" parent="1" vertex="1">
          <mxGeometry x="892" y="561" width="10" height="66" as="geometry" />
        </mxCell>
        <mxCell id="l0Rbd_StUESgtsx4Pn9M-1" value="WebSocket Closed" style="html=1;verticalAlign=bottom;endArrow=block;curved=0;rounded=0;exitX=1;exitY=0;exitDx=0;exitDy=5;exitPerimeter=0;" parent="1" edge="1">
          <mxGeometry relative="1" as="geometry">
            <mxPoint x="339" y="498" as="sourcePoint" />
            <mxPoint x="617.9999999999998" y="498" as="targetPoint" />
          </mxGeometry>
        </mxCell>
        <mxCell id="l0Rbd_StUESgtsx4Pn9M-2" value="WebSocket Msg - WsCommand.disconnected" style="html=1;verticalAlign=bottom;endArrow=open;dashed=1;endSize=8;curved=0;rounded=0;exitX=1;exitY=1;exitDx=0;exitDy=-5;" parent="1" edge="1">
          <mxGeometry x="-0.007" relative="1" as="geometry">
            <mxPoint x="892" y="568.5799999999999" as="targetPoint" />
            <mxPoint x="628.5" y="568.5799999999999" as="sourcePoint" />
            <mxPoint as="offset" />
          </mxGeometry>
        </mxCell>
        <mxCell id="5U6TFiHNg7RlFZfMuBse-1" value="&lt;div&gt;Handles&lt;/div&gt;&lt;div&gt;Disconnection&lt;br&gt;&lt;/div&gt;" style="html=1;align=left;spacingLeft=2;endArrow=block;rounded=0;edgeStyle=orthogonalEdgeStyle;curved=0;rounded=0;" parent="1" edge="1">
          <mxGeometry x="0.0909" relative="1" as="geometry">
            <mxPoint x="627.5" y="508" as="sourcePoint" />
            <Array as="points">
              <mxPoint x="654" y="508" />
              <mxPoint x="654" y="536" />
              <mxPoint x="628" y="536" />
            </Array>
            <mxPoint x="626" y="536" as="targetPoint" />
            <mxPoint as="offset" />
          </mxGeometry>
        </mxCell>
        <mxCell id="5U6TFiHNg7RlFZfMuBse-2" value="&lt;div&gt;Updates&lt;/div&gt;&lt;div&gt;Opponent&#39;s&lt;/div&gt;&lt;div&gt;Online Status&lt;br&gt;&lt;/div&gt;" style="html=1;align=left;spacingLeft=2;endArrow=block;rounded=0;edgeStyle=orthogonalEdgeStyle;curved=0;rounded=0;" parent="1" edge="1">
          <mxGeometry x="0.0909" relative="1" as="geometry">
            <mxPoint x="903.5" y="581" as="sourcePoint" />
            <Array as="points">
              <mxPoint x="930" y="581" />
              <mxPoint x="930" y="609" />
              <mxPoint x="904" y="609" />
            </Array>
            <mxPoint x="902" y="609" as="targetPoint" />
            <mxPoint as="offset" />
          </mxGeometry>
        </mxCell>
      </root>
    </mxGraphModel>
  </diagram>
</mxfile>
